<?xml version='1.0' encoding='utf-8'?>
<svg xmlns="http://www.w3.org/2000/svg" width="138.02mm" height="117.58mm" clip-rule="evenodd" fill-rule="evenodd" image-rendering="optimizeQuality" shape-rendering="geometricPrecision" text-rendering="geometricPrecision" version="1.1" viewBox="0 0 12888 10980"> <defs> <style type="text/css">.str0 {stroke:#373435;stroke-width:15.81;stroke-miterlimit:22.9256} .fil20 {fill:none} .fil12 {fill:#061837} .fil16 {fill:#0A3B86} .fil15 {fill:#102B4F} .fil7 {fill:#114E92} .fil0 {fill:#12130C} .fil8 {fill:#1867A9} .fil9 {fill:#2889C5} .fil14 {fill:#3678B8} .fil4 {fill:#379AD5} .fil17 {fill:#5293D1} .fil10 {fill:#87171A} .fil1 {fill:#BA0A15} .fil6 {fill:#DCA603} .fil11 {fill:#E9C709} .fil19 {fill:#EBD969} .fil2 {fill:#EDD619} .fil3 {fill:#F4DC43} .fil13 {fill:#F8E656} .fil18 {fill:#F9ED8C} .fil5 {fill:#FDFDFD}</style> </defs> <path class="fil0" d="m8913.5 9105.3c-65.62 160.57-108.44 167.3-328.69 123.24-82.29-16.45-246.77-104.82-313.56-157.03-150.17-117.41-281.72-371.98-164.68-633.48 79.67-178.01 123.32-146.7 216.15-250.35 110.5-123.38-27.48-101.84 238.11-234.69 117.58-58.82 117.23-134.54 242.5-226.49 147.57-108.31 190.71-170.7 283.28-202.03 18.86-232.66-20.44-274.11-184.29-393.06-155.07-112.58-197.67-135.43-408.27-210.47-141.01-50.24-337.47-105.07-485.06-127.28-280.95-42.26-539.72 36.51-599.79-96.45-29.13-64.49-23.52-103.95-24.33-180.92l-151.84-1098.7c-22.88-81.55-46.96-113.38-59.58-189-29.36-175.96 37.56-44.64-70.84-169.64 32.88-103.89 19.25 2.28 52.39-126.66 19.12-74.41 2.7-202.21 243.21-231.97 638.72-79.01 999.86 253.19 1442.8 515.62 453.28 268.53 672.84 668.29 902.38 1073.2 149.88 264.37 62.32 387.56 21.98 525.52l165.49 121.8c-7.17 200.62 9.56 201.66-61.31 351.06-93.68 197.43-298.03 1128.3-559.44 1441.6-81.83 98.07-225.95 333.32-396.63 376.21zm-1959.2-4499.6c-53.36 56.53-131.05 90.25-168 142.97-68.3 97.42-38.15 128.91-2.34 203.07l90.05 207.95c65.59 93.32 63.09 22.44 118.6 153.05 164.29 386.5 111.9 1.74 151.99 412.77 7.51 76.95 1.65 50.47 35.02 115.37 99.48 193.49 10.32 112.36 29.15 355.38 54.8 126.35 56.96 135.49 51.69 295.82-6.3 191.11 56.9 160.79 69.07 279.26-735.77 120.51-1099.4 363.52-1648.3 724.49-141.86 93.29-340.72 289.64-466.85 342.76 48.65-153.67 50.86-20.88 89.74-230.47 35.98-193.97 267.11-158.24 353.84-395-85.82 136.96-359.02 406.87-413.46 289.81-137.46 7.35-29.83-11.74-120.25 30.88-36.26 17.1-52.99 37.36-79.47 53.98l9.69-304.79c-46.26-73.47-49.99-170.29-25.08-266.57l-33.4-102.98c-5.94-29.25-10.86-79.48-15.08-108.56-10.35-71.36-22.35-130.8-33.65-195.86-79.62 48.57-206.99 191.16-254.24 281.34 105.28-37.25 144.93-123.76 135.64-54.37 50.28 31.45 28.08-20.67 31.94 97.72l10.39 398.63c-0.55 74.96 17.97 209.92 14.97 246.69-8.95 109.76-28.24 26.21-77.94 172.6l86.68 123.51c-21.99 54.24-3.93 9.07-42.87 52.17-133.25 147.5 5.18 182.62-225.2 358.43-337.71 228.3-624.85 628.95-1148.3 965.68-101.36 65.22-536.76 395.25-734.45 333.2l-116.77-68.85c-126.1-44.75-60.2-14.26-145.71-137.59l-50.95-68.16c-1.62-2.04-6.35-6.93-8-9.06l-112.03-419.79c-112.73-357.19 6.67-501.21 14.78-658.49l10.3-195.98c18.79-85.13-0.19-23.38 21.86-58.6l49.65-6.26c31.27-86.45 45.06-223.29 83.11-314.49 16.69-13.63 73.17-47.73 79.04-53.66 51.45-52.1-9.38 24.37 30.64-43.47l95.06-174.51c67.27-3.91 503.95-31.94 559.55-72.15l-121.97-2.72-216.06 0.05c-112.26 14.98-136.66 38.66-225.37 60.79-176.74 51.9-197.43 142.37-286.17 267.96-78.19 110.64-13.56 93.41-70.99 224.02-30 68.22-61.45 82.77-97.9 163.39 9.43 125.31 66.66 188.98 10.18 316.7-112.65 254.74-24.47 99.66-34.93 331.01-8.38 184.99-99.41 164.25 18.4 348.49 93.97 146.93 70.14 142.29 61.24 342.74 147.6 51.9 162.63 92.37 239.79 210.53l43.4 65.44c14.09 22.64 18.4 37.56 38.38 61.32 150.06 178.48 927.83-35.29 931.57-37.22 41.98-21.73 172.49-135.7 254.5-189.07 279.33-181.81 777.01-553.08 898.11-831.71 27.1 15.73 65.39 35.43 94.11 55.07-66.3 289.18-137 320.35-124.05 688.9 8.62 228.62 36.63 469.04 44.67 720.38 6.47 202.24 174.22 326.42 223.01 521.25 109.62 72.03 163.98 220.99 265.09 281.13l217.48-3.98-34.8-19.81c-215.11-99.07-126.45-16.28-220.82-255.31-136.45-345.62-168.17-986.61-142.1-1340.5l47.84-147.27 5.24-204 17.5-586.78c168.72-79.45 42.17 17.88 105.46-139.96 26.55-4.76 96.42-7.87 100.81-8.72 96.12-18.56 80.86-76.79 81.25-77.84 22.27-59.33 8.76-78.87 144.18-66.09-1.82-6.57-17.91-55.75-18.27-62.16l6.5-51.12c0.65-3.18 3.66-10.6 6.69-15.26l148.09-5.78c163.38 5.29 234.27-44 495.83-39.42 108.65 1.9 72.14 30.39 104.14-54.29l-130.36 16.99-421.32 27.41c-123.15-9.51-114.31-33.21-136.38-55.5 70.45-42.8 127.21-46.06 180.06-115.6 63.61-83.7 21-76.76 124.88-149.76l559.29-306.27c103.71-64.84 326.01-256.8 632.07-190.66 76.55-95.29 83.33-108.09 394.68-119.99 319.67-12.21 234.27-12.15 408.92 104.91-6.37 22.55-16.89 70.43-24.52 90.01l258.59 104.29c148.45 56.14 41.06 49.8 187.82 163.03 35.25 27.2 54.84 35.28 83.16 66.22l33.95 69.18c4.45 41.45-17.1 28.05-19.53 33.99-2.28 5.54-12.58 2.63-15.83 2.76l-138.77-14.8c-67.16-15.3-113.1-38.52-176.54-61.27 159.84 67.87 354.35 226.96 243.88 456.29l-200.94-20.51c58.74 168.86 149.03 137.77 7.41 324.3l-62.06 114.35-156.36-11.31c105.62 162.69 191.74 56.93-126.56 467.12l-75.8 195.74c122.33-82.49 185.4-289.39 251.11-310.35 12.39 111.04-19.51 167.41 36.36 257.88 71.34 113.12 103.12-11.51 187.55 152.33 144.77 74.7 22.86 165.61 226.46 182.07 103.34 8.36 226.55 58.19 301.47 107.82 167.01-5 690-277.57 775.14-364.68 97.73-99.98 542.77-747.21 620.98-935.79 23.89-57.59 36.73-86.87 56.22-144.81 8.05-23.92 15.31-52.38 24.69-73.26 21.82-48.61 3.29-22.5 38.13-63.1 28 80.72 43.39 162.16 121.22 198.56 91.3-73.97 26.39-60.68 80.96-186.28l17.85-29.9c64.23 77.43 103.37 145.67 153.01 213.18 85.46 116.24 124.64 107.34 194.07 215.99 79.43 20.94 248.42 180.83 331.89 246.36 70.86 55.63 290.25 215.36 309.3 258.76 152.46 43.02 220.3 40.54 345.85 110.73 334.12-1.4 381.07 120.65 556.46 2.79l128.87-95.55c155.22-128.25 170.46 21.15 229.65-213.79 48.89-194.06 85.82-141.46 190.25-248.48 22.4-227.92-109.08-254.37-21.55-447.35 80.74-178.05-128.47-321.91 37.37-468.09-22.62-148.19-79.95-254.18-22.12-382.45l22.36-60.85c-135.51-140.71-30.94-258.68-222.55-380.3-89.25-56.65-305.82-137.72-419.65-171.37l-180.14 32.94c67.7 38.98 251.95 40.8 342.79 75.03 383.4 144.46 225.99 132.78 278.53 336.39 22.57 87.47 34.3 17.63 43.57 155.67 16.44 245 32.11 1169.4-31.2 1301.3l-148 201.35c-216.93 224.99-291.64 335.5-501.02 215-196.67-113.2-166.08-52.78-279.69-118.1l-460.8-373.81c-120.18-157.18-245.29-328.96-346.75-494.59-52.62-85.89-109.69-157.36-175.48-245.37-73.13-97.84-107.79-166.37-168.62-251.89-182.59-256.66-68.57-146.96-113.89-262.44-37.98-96.76-67.23-24.57-40.97-132.44 7.46-30.67 46.64-65.62 73.79-134.4-70.61-125.84-41.75 86.99-90.66-146.83-0.91-4.31-1.56-11.96-2.76-16.29l-12.11-31.42c-83.75-189.25-62.69-181.18 14.17-461.31 71.69-261.3 123.29-462.07 231.05-684.41 97.1-200.34 601.32-811.17 807.29-991.93 349.85-307.03 1105.9-587.02 1096.7 33.5-2.63 176.75-11.57 286.68 17.13 447.97 21.88 122.96 27.19 292.43 53.22 398.03 39.18 159.02 67.62 101.49 96.99 336.55l71.51 384.47 61.63-88.74c13.42-152.36 1.82-113.95-37.7-234.19-39.41-119.92-12.65-94.14-13.44-206.42-1.19-170.68-104.48-212.41-88.94-359.47 12.59-119.16-40.35-653.2 125.28-743.04l6.97-132.1c-7.85-136.13 29.08-122.41-0.45-254.01-172.41-152.52-197.18-186.68-518.26-118.72-585.51 123.94-914.18 303.7-1285.5 739.2-357.01 418.73-850.89 1331.8-844.03 1877.8l-35.89-122.21c-31.38-71.01-46.33-6.98-26.92-134.64 15.84-104.15 59.46-154.75 58.75-281.17-0.24-42.4-84.18-583.15-85.79-586.23-76.48 142.52 218.39 753.39-49.41 969.86-93.17-40.92-71.86-35.06-118.56-103.63 50.38 77.28 53.23 106.9 15.91 195.69-91.8-96.31-151.22-269.06-231.98-389.14-378.54-562.83-1045.6-1180.4-1711.4-1375.9-458.03-134.51-768.94-14.04-1086.1-5z"/> <path class="fil1" d="m12245 6384.7c133.48-61.57 285.01-65.12 431.27-142.83 182.26-96.83 164.68-149.87 204.99-372.91l-61.63 88.74-71.51-384.47c-29.38-235.05-57.81-177.52-96.99-336.55-26.02-105.6-31.34-275.07-53.22-398.03-28.7-161.28-19.76-271.22-17.13-447.97 9.22-620.52-746.83-340.53-1096.7-33.5-205.97 180.75-710.19 791.59-807.29 991.93-107.76 222.34-159.36 423.11-231.05 684.41-76.86 280.13-97.93 272.06-14.17 461.31l12.11 31.42c1.2 4.33 1.86 11.98 2.76 16.29 48.91 233.82 20.05 20.99 90.66 146.83-27.15 68.78-66.33 103.73-73.79 134.4-26.26 107.87 3 35.68 40.97 132.44 45.33 115.48-68.7 5.78 113.89 262.44 60.84 85.52 95.5 154.05 168.62 251.89 65.79 88.01 122.86 159.48 175.48 245.37 101.47 165.64 226.57 337.42 346.75 494.59l460.8 373.81c113.6 65.32 83.01 4.89 279.69 118.1 209.37 120.51 284.09 9.99 501.02-215l148-201.35c63.31-131.88 47.64-1056.3 31.2-1301.3-9.27-138.04-21-68.2-43.57-155.67-52.54-203.6 104.87-191.93-278.53-336.39-90.85-34.23-275.09-36.05-342.79-75.03l180.14-32.94z"/> <path class="fil1" d="m9086.6 7524.5c-30.26 94.93-64.33 145.96-132.27 180.07 62.51 73.6 19.05 24.05 41.46 77.43l30.13 68.07c57.11 96.9 28.88-42.28 51.25 99.01 4.45 28.12-4.08 115.61-6.11 148.41l-110.08 61.07c-6.13 3.94-23.31 15.66-29.07 19.99-116.34 87.42-49.77 98.1-209.61 160.82-66.5 26.1 35.69 30.61-145.85 174.41-5.64 4.46-29.96 24.52-40.02 34.63l-76.1 97.1c-158.05 198.24-4.94 62.55-150.82 243.72-20.01 24.85-13.8-7.61-32.33 48.17 61.48 110.5 253.72 268.03 451.32 255.65 156.69-9.8 47.76-35.34 184.99-87.73 170.68-42.89 314.8-278.14 396.63-376.21 261.41-313.31 465.77-1244.2 559.44-1441.6 70.87-149.4 54.14-150.44 61.31-351.06l-165.49-121.8c40.34-137.96 127.9-261.14-21.98-525.52-229.53-404.85-449.1-804.62-902.38-1073.2-442.97-262.43-804.11-594.63-1442.8-515.62-240.51 29.76-224.08 157.56-243.21 231.97-33.14 128.94-19.51 22.77-52.39 126.66 108.39 125 41.48-6.32 70.84 169.64 12.62 75.62 36.7 107.45 59.58 189l151.84 1098.7c0.8 76.97-4.81 116.43 24.33 180.92 60.07 132.96 318.84 54.19 599.79 96.45 147.59 22.21 344.05 77.04 485.06 127.28 210.6 75.04 253.2 97.89 408.27 210.47 163.85 118.95 203.16 160.4 184.29 393.06z"/> <path class="fil2" d="m1118.2 849.48 17.35-51.66c126.34 88.22 73.63 73.14 278.32 191.11 59.76 34.44 100.08 51.14 155.14 89.01l140.44 111.54c-152.81 47.16-84.64-5.11-208.2-67.48-63.21-31.92-249.78-110.06-309.44-48.65l-44.95 44.13c-28.6 24.38-102.67 70.87-77.3 161.98 25.91-0.38 140.44 58.74 226.88 78.33-30.64 18.84-7.19 5.94-53.68 13.63-124.63 20.61-237.71 21.47-317.91 137.57-29.7 181.6-202.87 192.8-210.56 446.43-7.05 107.89 14 112.67 114.72 160.48 183.08 86.91 537.75 176.02 652.99 331.41 172.8 233.03 164.33 84.41 220.9 201.77 1.63 3.39 4.1 10.94 6.02 14.58 96.12 181.35 194.26 32.8 200.35 171.97 2.36 53.8 10.25-12.53-5.56 32.11-22.46 63.43 17.45-1.44-18.82 26.62-78.12-85.38-444.62-297.27-580.91-373.06-143.7-79.9-524.82-271.04-664.48-232 19.78 260.58 162.39 257.38 371.46 328.18 53.52 18.12 72.58 27.47 116.55 57.1 55.87 37.63 57.63 39.93 118.61 75.2 166.53 96.35-49.89 44.91 398.44 299.23l210.43 160.33c92.47 67.06 101.22 98.6 209.83 161.25 78.9 45.51 166.59 79.66 246.82 132.06l-191.54-7.5c-142.34-45.01-240.29-75.58-332.49-164.87-3.82-3.71-8.63-9.1-12.45-12.8l-154.99-98.29 39.42 59.54c71.57 81.73 110.03 54.22 194.36 116.47l407.48 182.89c118.59 39.04 140.32 75.15 292.99 71.52-35.79-86.74-65.57-61.24-17.52-106.58 18.93-17.86 101.63-42.22 106.06-43.48 68.06-19.35 169.19 68.44 298.01 86.68l123.38 18.26-90.46-198.07c38.96 39.92 41.76 68.09 108.57 88.46 29.51-236.19 20.75-889.29-64.5-1079.3l-123.88 35.03c-68.6 25.02-34.61 21.17-95.16 64.6-124.11-53.2-159.86-123.51-281.1-98.76-47.59 9.71-120.2 40.74-165.27-120.77 19.94 83.14 184.15 269.14 270.25 466.03l169.03 282c0.66 0.9 4.23 4.91 4.76 5.64 41.33 56.49-7.85-42.21 10.14 17.01 0.35 1.13 2.67 6.62 2.94 8.08l0.73 62.76c-2.19 7.35-6.01 14.68-8.79 21.78-3.11 7.97-9.55 16.4-12.66 23.15-3.31 7.19-8.09 17.27-14.62 23.97-8.52-96.25-37.4-101.89-87.15-161.81-51.36-61.84 34.57 50.91-22.29-28.41-87.28-121.77-157.98-318.76-261.11-467.57-23.32 104.57 12.48 61.13-71.08 89.06-58.35 19.52-93.35 11.18-154.23-22.35-188.07-103.54-147.14-4.14-306.97-87.12 181.22-9.25 52.35-60.12-3.17-93.44-97.47-58.49-96.86-81.96-185.97-142.28 5.62-4.84 16.87-15.99 19.73-10.23l56.1-34.39c47.6-54.41 3.64 23.24 7.39-26.33l184.26-10.34c-122.12-39.65-114.97-28.38-176.56-132.48l-18.53-33.26c105.26-82.93 31.47 7.89 111.13-112.81 3.16-4.79 6.26-11.58 9.65-16.27l87.28-67.48c54.72-18.03 301.66-50.07 336.53-32.33-31.81-215.11-153.21-200.48-246.85-333.49-26.23-37.27-13.7-27.75-26.36-47.59l-71.07-80.15c-35.54-33.46-37.35-36.23-71.15-71.17l-97-102.94c316.17 108.36 480.01 544.89 616.76 573.47 42.73 8.94 169.66-68.71 211.72-90.92 6.22-3.29 24.3-12.16 29.79-15.16 61.19-33.55 5.43 10.5 38.15-23.11-15.77-32.9-29.52-54.87-43.4-84.28l-14.29-30.63c-35.67-110.26-35.94 29.87-5.42-60.83-7.58-178.8-404.74-686.11-501.92-798.75-88.08-102.1-225.87-191.51-346.48-295.67-121.88-105.26-223.15-234.05-479.81-174.63-79.36 116.23 29.69 98.14-125.37 178.38 2.82 116.47-30.67 67.78 37.41 92.22l-101.62 27.87c9.38 136.42 53.42 90.3 32.67 197.45-14.44 74.56-37.14-9.86-16.9 173.15z"/> <path class="fil0" d="m916.85 1256.7-0.5 102.83c92.58-85.27 111.13-186.04 139.32-242 64.38-127.81 47.3 13.43 49.67-121.5 1.33-75.08-28.74-37.34 12.87-146.53-20.24-183.01 2.47-98.59 16.9-173.15 20.75-107.15-23.3-61.03-32.67-197.45l101.62-27.87c-68.07-24.44-34.59 24.25-37.41-92.22 155.06-80.24 46.01-62.15 125.37-178.38 256.66-59.42 357.93 69.37 479.81 174.63 120.62 104.15 258.4 193.57 346.48 295.67 97.18 112.63 494.34 619.94 501.92 798.75 197.37 188.5 349.79 634.5 397.74 966.13 85.25 190.02 94 843.12 64.5 1079.3-66.81-20.37-69.61-48.54-108.57-88.46l90.46 198.07-123.38-18.26c131.92 126.97 24.33 125.45 2.92 180.65-37.16 95.78 47.07 53.05 58.34 216.6l-45.15-4.79c56.8 30.51 18.52 2.98 48.74 42.73-144.86 221.19-475.69 400.64-797.06 742.45l-864.18 647.18c-61.09 71.15-161.78 98.87-265.47 152.34-153.02 78.9-99.16 75.75-313.31 65.6-193.05-24.8-146.51 0.11-256.26-108.23-55.03-54.32-110.02-86.21-171.17-149.99-78.87-82.27-180.77-347.72-210.25-474.27-98.92-82.89 16.81-204.2-62.43-330.86-55.39 95.01-86.95 181.34-49.22 312.91l60.25 7.61c35.58 89.44 68.67 137.97 70.04 223.8 63.89 83.77-26.42 151.05 85.58 243.42 30.96 25.53 80.02 38.67 126.03 95.11 39 47.84 19.53 21.34 31.98 53.48 39 25.37 16.65 9.6 47.34 38.58 106.59 100.66 65.13 130.86 262.37 159.28 176.03 25.36 232.58-2.18 400.06-13.3 385.54-25.6 437.78-77.36 726.3-240.25 277.26-156.53 153.65-136.63 446.81-293.79 56.34-30.21 75.24-59.24 119.61-104.39 78.93-80.34 159.14-170.62 245.19-248.79 49.01-44.52 92.42-62.33 134.9-112.11 62.97-73.81 16.5-64.03 104.49-122.32 33.63 185-8.15 180.73-6.89 319.77 0.57 63.25 29.5 259.81 40.12 344.94l4.24 277.53c5.3 39.99 21 13.92-3.31 85.74-33.71 99.62-7.86 31.39-45.69 67.22 36.95 236.91-53.24 309.83-151.78 475.87l8.82 133.37c40.71 19.34 10.29 25.8 48.93-8.89l6.47-88.17c183.82-36.84-79.71 16.85 142.22-149.88-9.95-130.89 11.9-122.83 49.65-201.74 50.44-105.42 10.02-111.92 100.43-173.88 82.65 61.27 107.26 450.97 123.87 590.45l12.36 56.18 5.21 52.86c79.55 78.17 99.76 236.01 197.5 375.29 44.79 63.84 84.51 114.1 123.19 172.26 35.43 53.26 82.57 124.99 130.87 152.43l68-10.38c-91.98-66.72-200.89-190.91-248.6-339.04l-19.31-142.94c-87.65-85.3-53.71-511.04-57.75-654.45-5.45-194.01-33.61-429.86-47.09-640.93-14.49-226.66 2.61-439.28-6.09-669.66-14.48-383.36-99.94-201.63 63.81-498l128.55-0.21c-6.02-2.35-14.65-2.83-19.05-3.7-4.48-0.88-13.8-2.59-19.37-3.74l-117.65-37.09c5.42-3.68 13.15-7.47 17.47-8.99l129.02-17.73c2.09-39.4-0.53-29.34 8.97-68.1l20.14-36.04c126.57-3.03 142.64 14 241.25 48.44-29.16-18.79-184.59-103.92-231.67-130.36l176.25-22.51v-48.73l-110.73 7.54c26.27-54.46 337.04-343.45 380.46-379.67 60.63-50.56 412.78-277.08 433.88-307.87l39.47-6.68c165.9-115.24 381.91-223.91 610.75-288.58 495.53-179.48 1908.2-387 2199.6 73.53l-70.88 259.2c-91.51 294.51-49.19-11.47-216.8 279.52-100.59 174.63-95.93-31.89-287.98 330.71-51.77 97.74-21.54 59.44-48.75 147.68 17 66.22-22.7 97.75 51.57 6.5 66.22-81.36 33.23-189.48 119.56-256.53 48.65-37.78 122.02-44.51 182.05-91.12 94.38-73.26 28.32-61.87 163.19-111.23l200.12-107.24c23.87-43.47-25.46 15 23.76-39.43 47.7-52.74 9.69-17.03 59.82-51.12 75.17-112.93 133.27-73.87 90.9-248.57-72.68-299.76-412.51-393.32-679.23-478.94-822.84-264.12-1743.5 94.14-2426.8 470-91.98 50.58-895.36 575.04-918.54 554.47-80.12-71.1 97.1-208.11 161.7-315-88.01 99.94-88.43 188.29-252.63 205.23-162.4-497.59 149.17-650.78 135.01-947.41-31 46.15-109.5 346.44-138.8 424.94-90.4 242.13-22.22 266.95-29.35 487.15-1.79 5.29-114.27 148.56-172.75 170.12 36.51-1368.9-598.22-3223.6-1977.3-3537.7-434.6-98.96-340.7 468.3-327.55 501.89 77.88 198.99 26.38 201.32 57.9 411.77 35.6 237.7-35.52 152.96-85.42 331.43z"/> <path class="fil3" d="m3416.6 4090.8c-163.75 296.37-78.29 114.64-63.81 498 8.7 230.38-8.4 443 6.09 669.66 13.48 211.06 41.64 446.91 47.09 640.93 4.03 143.41-29.9 569.14 57.75 654.45 14.31-149.04 2.9-60.63 44.34-119.5 30.39-43.19 3.82 24.48 23.04-48.3l61.87-187.02c93.6-104.52 173.28-40.43 167-248.21-2.9-96.22-86.75-268.9 132.94-195.15-57.82-128.55-179.95-276.48-184.08-394.46 55.48 66.13 300.6 448.47 330.29 534.78 268.68 11.15 235.27 74.32 340.8 247.11 16.85-27.72 13.81 6.65 16.47-51.1 3.46-75.27-2.47-39.69-12.53-74.68-27.48-95.55-19.47-0.42-22.81-74.23-0.54-11.99-56.16 36.7 18.87-70.09l74.11 174.53c88.55-29.98-54.78 69.64 25.03-23.39 2.24-2.61 8.54-9.8 11.28-13.04 4.87-5.77 15.05-21.38 20.94-27.92 42.1-46.76-41.21-0.85 67.45-51.84l-279.49-423.56c-122.16-133.06-212.96-274.31-233.87-467.61 244.57 178.05 214.2 246.87 265.96 355.92l468.56 697.17c3.71-1.99 56.18-25.43 59.3-26.52l41.58-12.04c2.67-0.78 11.12-3.22 13.26-3.84 2.12-0.61 9.11-1.61 13.09-3.8-52.72-272.68-67.63-190.49-95.62-291.35 93.13 10.54 89.79 62.13 249.84 183.47 3.59 2.72 10.23 6.8 13.68 9.33 3.17 2.33 9.8 6.21 12.78 8.4l112.67 91.18c-35.69 61.04-48.03 17.14-34.66 114.17 0.53 3.84 2.6 12.71 6.04 18.03 213.59-245.41 39.61 146.15 215.15-340.33 102.5-284.06 147.13 82.8 133.72-370.11l-12.71-106.1c-142.4-44.86-248.87-238.28-338.53-322.51l-269.85-248.45c-53.23-59.3 55.07 6.25-81.78-61-81.24-39.91-153.22-65.41-254.89-110.71-188.24-83.87 107.39-8.16-100.89-105.32l-238.7-110c-79.29-54.09-143.47-61.64-209.31-110.35-2.28 3.77-2.91 10.93-3.55 12.75-24.61 70.09-13.19 54.01-45.86 67.69-147.11-92.73-25.48-67.25-72.16-246.18-0.66-2.54-3.24-14.57-4.04-16.94l-100.96-124.36 11.14 95.57c-119.7 13.72-104.36 4.31-192.77 71.3-95.42 72.3-100.3 39.94-160.1 76.78-53.14-73.83-46.77-44.08-49.16-141.21z"/> <path class="fil3" d="m521.94 3290.1-78.34 31.45c-0.43 120.21-41.54 230.01-105.32 363.56-117.78 246.67-8.67 259.07-160.08 315.12l-12.29 43.43c53.59 103.36 27.52 44.47 50.57 150.55l55.92-186.29c79.13 16.36 26.59-9.28 60.99 56.64 20.41 39.14 16.12 51.63 32.43 88.33 155.49 2.47 274.99-35.33 410.54-44.59 73.71-5.03 291.82 12.13 416.71 12.05-58.93 60.57-78.06 64.42-200.64 86.58-152.93 27.64-446.9 92.17-458.47 251.15l287.06-36.39c-20.92 50.96 1.32 16.92-42.94 50.46-38.84 29.44-35.75 16.6-76.09 40 232.48 1.41 180.33-71.36 386.44 57.81 144.35 90.46 175.75 8.23 395.92 12.26-117.17 109.48-448.64 91.73-164.83 108.11-5.5 3.45-14.48 1.3-17.22 9.04-10.69 30.2-11.78 6.57-34.17 16.36-35.08 15.33-8.36-0.3-48.98 19.7l101.31 30.45c-137.67 56.4-126.5 352.86-175.95 465.98l45.35 31.4c3.42 2.75 9.94 8.06 13.6 11.13l127.52 120.65c3.32 3.54 9.43 10.37 13.61 15.99l864.18-647.18c321.37-341.8 652.21-521.26 797.06-742.45-30.23-39.75 8.06-12.22-48.74-42.73-79.61-7.75-35.76-11.02-106.98 7.42l-75.17 51.01c-3.34 4.89-5.49 11.62-8.57 17.03-3.31 5.84-4.94 12.57-8.22 18.82-3.46 6.59-5.03 13.12-8.62 19.89l-49.41 76.65c-61.32-36.42 15.89 72.97-30.9-33.7-39.65-90.4-1.85-61.72 22.91-90.6-170.63 34.39-273.54 146.61-357.77-48.51 37.18-26.75 12.28-38.83 143.43-38.43-3.7 0.19-8.91 20.68-7.86-7.86 0.1-2.89 3.34-27.15 7.86-39.04 173.71-1.35 83.93-31.49 123.52 53.22-8.82-10.03-23.09-47.66 33.07-53.76-124.64 14.7-204.61-39.26-294.69-72.61l310.08 41.05c-96.11-117.39-177.76-100.34-377.22-131.21-58.71-9.09-132.22-29.15-187.93-35.89-122.13-14.79-148.3 33.27-174.88-83.26l-117.49-73.58c-42.67-19.16-44.85-17.92-89.05-42.16l-319.37-171.81c-4.43-2.09-10.84-5.13-15.45-7.07l-161.23-50.71c-112.62-22.64-260.22-31.23-378.27-34.49-368.09-10.22-157.31 61.04-306.93 41.03z"/> <path class="fil4" d="m5207.7 10134c68.97 81.33-16.46 149.98 61.59 277.73 61.79 8.72 11.84 12.91 64.34-6.05l41.29-23.66c2.54-1.57 8.09-7.4 12.91-9.85 69.58 139.95-91.11-132.3 45.88 54.55l94.29 153.44c3.49 4.61 8.96 10.74 12.23 14.9l79.87-151.12c-2.18-91.01-19.63-127.88-13.75-234.75 6.42 4.36 12.78 6.61 15.3 17.55l39.02 49.87c51.07 55.98 8.38 110.78 73.8-29.39l21.98-57.86c1.68-4.45 3.57-13.14 6.9-18.98 117.15 104.14-8.74 43.05 68.4 133.47 38.01 44.54 84.52 27.65 78.83 204.03 28.66 69.12-0.48 25.01 89.19 70.84 52.9 1.67 14.28 11.39 58-14.81 117.55-70.42 42.61-266.34 18.95-357.62l-31.17-118.62c-26.67-78.75-32.01-14.14-20.87-178.5 78.91 61.05-23.41 37.38 114.82 74.73-35.26-159.47-131.62-306.12-212.97-473.95-110.85-228.69-217.48-354.22-223.52-490.26l139.9 135.1 621.93 1176.7c35.07-38.03 15.58 13.01 16.87-49.94-60.01-244.16-115.8-309.19-134-389.42 52.35 51.96 13.69 24.11 42.39 55.33 45.62 49.62-21.11-1.32 53.81 44.81l-13.58-183.85c76.7 68.47 68.57 109.94 83.59 205.48 79.83-96.5 21.01 36.33 8.84-168.49 101.3 32.51 13.68 2.19 73.04 41.78l56.86 42.88c29.79-54.6 2.71-37.44 61.63-53.98-9.27-97.35 8.99 7.79-20.89-65.08l-158.17-284.87c-22.78-36.78-9.47-53.52-59.19-70.14 20.17 30.96 7.26 21.79 35.17 62.13 83.97 121.34 101.59 162.44 215.44 209.62-16.78-98.51-12.98-120.5-69.92-198.74l-21.55-26.33c-78.59-108.44-9.04-109.86-130.85-145.23 51.1-26.05 2.31 25.25 24.94-24.95 44.1 140.47 229.58 206.89 243.15 419.95 24.68-35.26 59.97-28.36-6.23-162.55 90.9 52.36 69.95 70.59 84.23 158.25 5.93-5.71 44.63-32.76 50.42-36.79l53.55-32.77-16.54-83.54c-44.78-32.04-70.74-38.56-47.31-98.59 38.71-99.2 35.7-15.74 36.21-15.68 2.33 0.29 11.17 4.67 13.19 5.2l28.79 16.25c36.01-202.58-108.96-298.53-249.8-388.79-55.7-35.71-137.96-126.46-186.94-180.31-86.29-94.86-86.43-84.77-180.68-164.05-241.19-202.9-114.69-132.36-423.66-314.41l-201.9-90.42c-140.74-66.12-108.72-80.75-311.72-121.99 135.1 170.57 264.99 275.31 474.22 356.34-4.76 1.04-11.95-1.26-14.57-1.34l-47.49-0.77c-82.83 8.37-30.77-9.68-74.1 19.72 44.38 61.43 56.47 90.2 112.42 148.87-20.97-16.98-400.78-492.95-636.07-537.15 37.24 90.17 48.47 84.81 85.73 165.82-27.72 61.63-33.45 12.92-44.21 99.91-19.17 154.99 25.07 277.42 78.78 394.29-3.63 1.1-9.74 0.24-11.38 0.54l-71.59 24.16c-5.79 201.21-37.92 408.61-48.37 593.49-11.42 202.17 14.66 434.87-9.74 627.83z"/> <path class="fil5" d="m5244.4 7502.9c54.44 117.06 327.64-152.85 413.46-289.81-86.73 236.76-317.86 201.04-353.84 395-38.87 209.59-41.09 76.79-89.74 230.47 126.13-53.11 324.99-249.46 466.85-342.76 548.96-360.98 912.56-603.98 1648.3-724.49-12.18-118.47-75.38-88.15-69.07-279.26 5.28-160.32 3.12-169.46-51.69-295.82l-68.3-64.71c-2.15-1.42-8.78-4.48-10.58-5.47l-26.08-4.87c4.44-75.24 22.73-99.02-10.08-167.59l-83.35-90.38c-38.68-49.11-28.97-96.98-53.93-167.41-30.82-86.95-76.91-120.38-95.73-198.65-20.5-85.26 9.94-79.52-40.49-167.27-73.2-127.39-48.16-25.32-26.07-77.24 27.66-65.06 4.93-133.96-44.66-192.49l-4.61 171.71c-142.03-34.36-114.96 46.55-191.95 173.29-77.22 127.14-68.71 49.04-140.55 156.49-35.61 53.24-7.38 48.82-92.09 101.8-4.48 2.79-11 6.15-15.62 8.82-31.45 18.18-18 11.85-64.66 33.68-134.25 62.83-138.83 26.67-326.09 125.02l-88.69 43.19c-16.11 143.71-16.27 310.77-34.16 468.3l-93.77 346.9c-3.17 1.2-8.98 0.15-10.15 0.27l-19.8 1.72c-1.55 0.36-8.1 1.54-9.7 2.1l-112.06 142.92c-109.22 179.48-105.42 109.19-59.16 223.55-73.81 38.5 60.49-10.94-27.29-2.39-39.49 3.85-40.14 19.41-106.03 85.43-86.07 86.24-108.64 202.29-108.64 359.94z"/> <path class="fil2" d="m5104.4 2786.8 38.53 21.04c144.27 60.32 145.05 37.67 169.47 187.53 16.08 98.65-12.54 47.43 36.86 106.46 112.18 77.26 768.48 58.46 913.57 58.11 162.86-0.38 564.78 297.01 638.13 277.25-32.53 24.03-39.53-4.89-125.48-33.99-72.56-24.57-127-28.59-212.42-49.18-497.63-119.94-274.68-112.04-773.88-139.03-192.11-10.38-255.66-48.12-406.87 8.92 30.53 32.17-47.66 52.06 55.58 31.8 72.94 58.42 58.12 64.23 99.34 157.24 58.65 132.36 4.72 48.31 118.98 139.07-75.59 188.51-8.15 9.06-45.82 206.05-0.13 0.7-17.79 88.4-18.35 90-14.13 39.89-8.73 22-23.48 45.72-110.31 177.51 9.59-141.14-39.96 53.49 346.15 314.91 561.12 345.43 770.54 600.22 5.92-3.72 13.99-17.56 16.57-12.88l56.77-53.39c4.92-5.39 52.72-67.49 53.59-68.98 100.09-172.78-34.17-167.74 253.57-534.81 27.21-88.24-3.02-49.94 48.75-147.68 192.05-362.6 187.39-156.08 287.98-330.71 167.61-290.99 125.29 14.99 216.8-279.52l70.88-259.2c-291.5-460.53-1704.1-253.01-2199.6-73.53z"/> <path class="fil4" d="m7121.9 7628.1c-6.64 5-15.32 9.73-21.23 13.04-5.71 3.19-13.8 8.52-20.75 12.25l-168.89 87.78c113.05 52.3 290.1 129.34 386.59 202.62-164.32-64.49-300.3-181.73-473.35-177.14-98.84 2.62-470.25 78.81-525 108.37 80.04 83.88 352.45 167.65 436.49 285.38-159.32-45.56-284.18-132.78-446-153.32-193.11 12.72-80.52 26.39-103.58 88.74-23.08 62.43-2.7 21.84-114.17 64.98l34.18 140.68c3.63 7.91 13.93 11.45 11.49 23.44-34.7 170.48 108.82-109.07-33.21 42.31-228.95-73.56-151.93-22.72-177.53 11.06 79.97 55.39 301.48 148.52 416.9 215.85l298.34 173.81c31.22 17.26 65.73 39.08 112.65 60.82l1.2 97.18 87.59 54.27 33.79-11.66c106.13-8.02 120.52 48.22 274.55 105 115.61 42.62 230.01 30.9 348.49 49.39-141.79 17.13-83.15-26.59-175.67-120.61-70.36-71.5-104.67-46.41-163.27-141.85 96.16 22.03 67.66 32.39 153.04 66.5-80.09-134.24-761.69-584.35-848.16-566.57l24.47-61.49 313.66 163.13c306.96 153.16 336.31 191.03 572.48 362.53 86.89 63.1 120.18 140.87 194.42 182.1 21.95 12.2 63.26 76.59 99.76-48.09 38.21-130.53-18.94-172.14-29.91-200.17l19.53-205.68 155.32 194.16c33.67-163.92-6.17-189.66-111.82-274.92l-79.87-86.91c92.5 32.57 142.22 78.44 257.47 80.7-7.76-174.88-164.43-236.88-287.12-363.58 176.23 48.85 41.01 90.56 234.9 57.8 132.69-22.42 56.77 75.12 230.24 150.93-44.41-187.79-131.69-207.07-201.96-313.78 45.13 16.87 180.24 75.24 218.2 94.28 2.14-163.28-20.31-147.33-107.87-226.27-52.88-47.67-112.06-122.64-184.26-141.99-49.62-63.19-193.68-153.8-298.5-150.01-127.92 4.61-205.73 63.13-268.91 68.05l-74.72-13.08z"/> <path class="fil2" d="m3750.6 3810.8-176.25 22.51c47.08 26.44 202.51 111.57 231.67 130.36l1.54 24.73 100.96 124.36c0.8 2.37 3.38 14.4 4.04 16.94 46.68 178.93-74.95 153.45 72.16 246.18 32.66-13.68 21.25 2.4 45.86-67.69 0.63-1.82 1.27-8.97 3.55-12.75 65.84 48.71 130.02 56.26 209.31 110.35l238.7 110c208.27 97.16-87.36 21.45 100.89 105.32 101.67 45.3 173.65 70.8 254.89 110.71 136.85 67.24 28.56 1.69 81.78 61l269.85 248.45c89.65 84.24 196.12 277.65 338.53 322.51-3.93-182.64-92.42-211.32-181.36-308.15l-219.24-290.16c176.65-20.24 379.35 89.82 502.08 154.46 220.21 115.97 285.45-1.13 504.24-62.32-20.12-89.99-3.23-66.12-88.53-128.55l-292.75-228.35c-84.92-67.35-139.52-100.37-210.54-141.17-119.27-68.52-95.06-51.8-166.85-163.77-71.57-111.62 38.97-20.32-235.02-121.63-134.51-49.74-129.07-55.53-231.49-115.91-78.98-46.57-43.69-23.34-102.72-68.08l-205-107.27c-37.2-8.93-77.97-27.85-84.1-33.35 15.35 6.57 45.91 22.53 120.62-8.5 101.11-41.99 9.12-35.93 137.18-65.37-100.36-11.37-31.69-15.57-69.57-29.11-123.13-44.04-133.61 62.03-372.52 75.92-164.51 9.57-484.08 102.12-581.92 88.31z"/> <path class="fil2" d="m3463.8 6553.9 19.31 142.94 64.11 36.88c-2.16 3.43 2.61-10.77 4.41-6.66l186.08-132.41c99.17 21.21 78.44 59.96 199.39 31.38 54.77-12.94-33.79-25.62 96.76-7.76 66.5 9.1 85.21 13.47 132.02 30.9 36.46-47.06 34.88-53.28 65.9-107.11 93.32 43.08 30.46 32.22 110.05 16.34 152.81-30.48 201.25 5.78 303.66-48.66 49.11-26.1-24.28-90.24 76.89 32.35l-9.09-189.83c15.79 87.66 28.29 77.45 92.03 100.35-12.82-128.71-13.45-52.93-46.95-148.77 6.92 4.44 19.9 16.39 24.13 18.75 81.69 45.53 56.59 21.93 141.1 43.15-4.37 4.16-24.42-65.09-1.52 18.07 16.15 58.66 24.98 67.27 74.43 91.08 71.96-43.18 153.87-202.38 195.42-294.55-3.45-5.32-5.51-14.19-6.04-18.03-13.37-97.02-1.03-53.12 34.66-114.17l-112.67-91.18c-2.98-2.19-9.61-6.07-12.78-8.4-3.45-2.53-10.09-6.61-13.68-9.33-160.05-121.35-156.72-172.93-249.84-183.47 28 100.86 42.9 18.68 95.62 291.35-3.98 2.19-10.97 3.19-13.09 3.8-2.14 0.62-10.59 3.05-13.26 3.84l-41.58 12.04c-3.13 1.09-55.6 24.53-59.3 26.52l-468.56-697.17c-51.76-109.06-21.39-177.88-265.96-355.92 20.91 193.3 111.71 334.56 233.87 467.61l279.49 423.56c-108.66 50.99-25.34 5.08-67.45 51.84-5.88 6.54-16.06 22.15-20.94 27.92-2.74 3.24-9.04 10.42-11.28 13.04-79.8 93.03 63.53-6.59-25.03 23.39l-74.11-174.53c-75.03 106.79-19.41 58.1-18.87 70.09 3.34 73.81-4.67-21.32 22.81 74.23 10.06 34.99 16-0.6 12.53 74.68-2.66 57.75 0.37 23.37-16.47 51.1-105.53-172.79-72.12-235.96-340.8-247.11-29.69-86.31-274.81-468.65-330.29-534.78 4.13 117.98 126.26 265.91 184.08 394.46-219.69-73.75-135.85 98.94-132.94 195.15 6.28 207.78-73.4 143.69-167 248.21l-61.87 187.02c-19.22 72.79 7.36 5.12-23.04 48.3-41.43 58.87-30.03-29.55-44.34 119.5z"/> <path class="fil4" d="m2407 7961.9-49.65 6.26c7.95 79.61 28.44 71.13 105.54 81.07 96.08 1.52 75.1-13.29 163.25 23.47l-74.11 74.24c69.75 44.58 98.49 26.58 128.48 24.7-87.86 0.44-74 4.38-128.48 24.83 70.88 90.14-95.62 72.77 98.81 73.98-186.49 12.88-168.76 103.62-172.93 110.98l209.08-4.36c310.22-49.99 521.13-109.97 829.46-134.86 78.77-10.63 78.26-8.55 146.99-70.45l-285.01 1.63c101.68 41.1 133.88-33.13 255-42.73 92.27-7.31 178.55 14.04 310.79-4.15 112.03-15.42 229.23-19.13 322.47-26.44 46.75-3.67 138.81-18.88 152.53-20.97 44.92-6.84 15.21-3.94 53.26-6.17l116.65-102.4c57.92-94.36 39.8 52.27 13.17-30.2-93.3-5-192.33-5.93-321.12-25.93-179.48-27.87-187.41 4.02-370.45 10.08 47.65-62.86 130.45-134.61 197.63-74.11-132.92-61.53-248.66-62.83-373.23-140.4-86.94-54.13-236.68-119.13-384.66-147.31 77.78-9.73 66.03-11.33 113.56-60.34-318.7-6.42-537.09-32.9-808.07 21.15 36.09 69.72-21.16 54.66 85.77 62.18-98.07 13.05-140.76 27.64-214.39 42.63 38.41 146.86-39.08 42.07 59.08 121.54 73.85 59.8 84.47-3.45 354.85 12.45l-426.82 104.54c5.95 63.52-46.11 22.09 78.99 36.69l-186.43 58.41z"/> <path class="fil2" d="m165.92 4043.7 0.31 10.83c-134.8 261.72 18.48 296.26-100.52 511.14 79.24 126.66-36.48 247.97 62.43 330.86 19.08-48.59-72.7-129.99 51.83-313.31 47.53 0.8-12.5-14.05 25.77 31.52 55.25 65.78 17.81 6.11 84.81 62.43l235.23 258.3c-49.12 105.71 13.64 60.54-23.93 197.63 85.48 41.76-66.92-24.58 38.33 9.81l87.08 59.34c47.32 69.31-4.54 115.88 114.85 111.46 52.71-1.95 17.48-46.55 61.02-3.28 56.93 56.6-32.61 2.62 92.51 241.76-76.8 32.93-86.67 14.08-129.82 76.82 214.15 10.15 160.29 13.3 313.31-65.6 103.69-53.47 204.38-81.19 265.47-152.34-4.18-5.61-10.29-12.45-13.61-15.99l-127.52-120.65c-3.66-3.07-10.18-8.38-13.6-11.13l-45.35-31.4c49.45-113.12 38.29-409.58 175.95-465.98l-101.31-30.45c40.62-20 13.89-4.37 48.98-19.7 22.38-9.79 23.48 13.84 34.17-16.36 2.74-7.74 11.72-5.59 17.22-9.04-283.81-16.39 47.66 1.36 164.83-108.11-220.17-4.03-251.57 78.2-395.92-12.26-206.11-129.17-153.96-56.4-386.44-57.81 40.34-23.4 37.26-10.56 76.09-40 44.25-33.54 22.02 0.49 42.94-50.46l-287.06 36.39c11.57-158.99 305.55-223.51 458.47-251.15 122.59-22.16 141.71-26.02 200.64-86.58-124.89 0.08-343-17.08-416.71-12.05-135.55 9.25-255.05 47.06-410.54 44.59-16.31-36.7-12.02-49.19-32.43-88.33-34.39-65.93 18.14-40.28-60.99-56.64l-55.92 186.29c-23.06-106.08 3.02-47.18-50.57-150.55z"/> <path class="fil6" d="m3018 2415.6c-47.95-331.63-200.37-777.62-397.74-966.13-30.53 90.7-30.25-49.43 5.42 60.83l14.29 30.63c13.89 29.41 27.63 51.39 43.4 84.28-32.73 33.61 23.04-10.44-38.15 23.11-5.49 3.01-23.57 11.88-29.79 15.16-42.06 22.21-168.99 99.86-211.72 90.92-136.75-28.57-300.59-465.11-616.76-573.47l97 102.94c33.79 34.94 35.61 37.72 71.15 71.17l71.07 80.15c12.66 19.83 0.13 10.32 26.36 47.59 93.64 133.02 215.03 118.39 246.85 333.49-34.87-17.74-281.81 14.3-336.53 32.33l-87.28 67.48c-3.39 4.69-6.49 11.48-9.65 16.27-79.66 120.7-5.87 29.88-111.13 112.81l18.53 33.26c61.59 104.1 54.44 92.83 176.56 132.48l-184.26 10.34c-3.74 49.57 40.21-28.08-7.39 26.33l-56.1 34.39c-2.86-5.75-14.11 5.4-19.73 10.23 89.11 60.32 88.5 83.79 185.97 142.28 55.51 33.32 184.39 84.18 3.17 93.44 159.84 82.99 118.9-16.42 306.97 87.12 60.88 33.52 95.88 41.86 154.23 22.35 83.56-27.94 47.76 15.5 71.08-89.06 103.13 148.81 173.82 345.8 261.11 467.57 56.86 79.32-29.07-33.44 22.29 28.41 49.75 59.92 78.63 65.56 87.15 161.81 6.54-6.7 11.32-16.78 14.62-23.97 3.11-6.75 9.55-15.17 12.66-23.15 2.77-7.1 6.6-14.43 8.79-21.78l-0.73-62.76c-0.27-1.46-2.6-6.95-2.94-8.08-17.99-59.22 31.19 39.48-10.14-17.01-0.53-0.73-4.1-4.74-4.76-5.64l-169.03-282c-86.1-196.89-250.31-382.88-270.25-466.03 45.07 161.51 117.69 130.48 165.27 120.77 121.23-24.75 156.99 45.56 281.1 98.76 60.56-43.43 26.57-39.58 95.16-64.6l123.88-35.03z"/> <path class="fil7" d="m2310.4 8881.2c84.23-42.9 68.46 61.29 68.46-42.72l346.09 98.81c8.25 90.28 60.78 129.79-6.72 191.31l-39.8 27.09c-4.18 2.57-10.78 5.85-15.16 8.42-59.13 34.56-108.75 55.88-143.95 115.27-2.38 4.02-5.39 13.36-7.1 16.74l-9.59 36.43c63.95-6.11 168.69-1.85 230.23 24.82l-133.43 50.76 27.67 107.67 116.77 68.85c197.69 62.04 633.09-267.99 734.45-333.2 523.41-336.72 810.55-737.38 1148.3-965.68 32.79-107.81 21.98-34.62 63.19-144.62-157.26 37.53-220.96 88.1-336.85 133.02l-44.46 24.53-172.67 37.44c30.14 34.96-16.3 27.13 54.71 57.81-58.49 27.24-170.61 157.89-222.19 206.26l-63.65 60.15c-126.91 112.73-60.32 68.84-138.35 158.12l-414.15 301.72c-182.63-9.69 70.61-26.23-61.47-18.43l-34.95 43.92c-2.76 4.5-6.43 10.98-9.07 15.8-47.62 87.26-5.49 65.63-99.47 151.49l-52.48 45.9c-117.44 85.57-185.39-5.44-132.31-105.25 72.6-136.49 64.07 36.22 76-112.7-59.23 21.42-70.07 55.39-147.87 69.74 19.7-151.77 11.14-21.12 36.46-99.26 2.48-7.66 11.22-67.29 13.73-92.48l24.87-32.08c86.82-154.79-39.88-156.57-43.17-158.31-75.72 55.64-55.82 93.58-112.36 166.84-107.94-94.12-29.25-136.66 31.88-226.21-49.11 2.79-42.7 10.08-74.68 18.76l-126 31.84c-55.03 5.19-68.13 16.51-131.37-30.55 28.35-93.15 97.95-84.5 147.22-141.73 26.48-30.76 64.24-217.64 328.38-234.32l400.75-91.3c101.72-28.85 129.11-45.89 234.53-39.78-36.59-47.72 63.58-42.95-104.35-39.89-308.33 24.89-519.23 84.87-829.46 134.86-80.05 34.55-267.06 31.74-346.59 24.64l110.26-61.96-97.48-44.6c55.45-100.71 96.68-175.82 221.11-218.48l-91.19-16.11c-4.19-8.81-13.43-7.64-20.22-11.34-77.09-9.94-97.59-1.47-105.54-81.07-22.05 35.21-3.07-26.54-21.86 58.6l-10.3 195.98c-8.11 157.28-127.51 301.3-14.78 658.49z"/> <path class="fil7" d="m5072.2 8931.2c80.76-165.41-15.9-421.76 98.26-513.54 0.9 140.78 53.11 222.31 76.14 359.99 17.75 106.14-74.91 842.15-68.45 1099 2.02 79.94 11.44 161.14-32.4 222.93l-17.26-34.86c-27.75-77.92-16.66-106.07-60.21-175.11-5.01 315.7 85.54 517.13 163.42 769.01 86.5 279.77 427.33 85.1 568 145.44l37.74 18.59c104.91-90.6 95.69-111.57 271.62-109.31-36.03-66.63 2.4-11.16-46.23-71.88-27.75-34.64-27.87-28.86-63.08-62.67-89.66-45.83-60.53-1.72-89.19-70.84l-91.08-65.95c-85.57 29.87-16.86 32.13-105.56 107.71l-44.79-107.8c-6.5 128.38-21.44 118.48 14.89 249.36l-93.62 49.17-80.25-52.5c-67.44-13.32-108.58 94.95-226.71-60.61-65.57-86.35-94.47-409.66-75.77-493.27 24.4-192.97-1.68-425.66 9.74-627.83 10.45-184.88 42.58-392.28 48.37-593.49l71.59-24.16c1.64-0.3 7.75 0.56 11.38-0.54-53.71-116.87-97.95-239.3-78.78-394.29 10.76-86.98 16.48-38.28 44.21-99.91-37.26-81.02-48.49-75.66-85.73-165.82 235.29 44.21 615.1 520.18 636.07 537.15-55.95-58.67-68.04-87.44-112.42-148.87 43.33-29.41-8.73-11.35 74.1-19.72l47.49 0.77c2.61 0.08 9.8 2.38 14.57 1.34-209.22-81.03-339.12-185.78-474.22-356.34 203 41.24 170.98 55.87 311.72 121.99l201.9 90.42c308.97 182.05 182.47 111.5 423.66 314.41 94.25 79.28 94.39 69.18 180.68 164.05 48.98 53.85 131.23 144.61 186.94 180.31 140.83 90.26 285.81 186.22 249.8 388.79l-28.79-16.25c-2.03-0.53-10.87-4.91-13.19-5.2-0.51-0.07 2.5-83.52-36.21 15.68-23.44 60.03 2.53 66.55 47.31 98.59 27.75-96.7 50.3 36.78 72.92-146.36 11.3-91.46-16.84-134.06-54.44-196.35-57.18-94.7-199.49-239.35-220.3-326.43l-1.2-97.18c-46.92-21.74-81.44-43.56-112.65-60.82l-298.34-173.81c-115.42-67.33-336.93-160.45-416.9-215.85 25.6-33.78-51.41-84.62 177.53-11.06 142.04-151.38-1.48 128.17 33.21-42.31 2.44-11.99-7.86-15.53-11.49-23.44l-188.83-97.23c-104.76-24.08-18.68-22.03-121.86-57.37-5.6-88.7 11.57-92.05 17.11-197.51-49.08 5.1-101.32 26.58-108.59 29.07-138.11 47.3 110.92 0.15-39.63 20.34 0.18-0.24 9.78-25.55 9.99-29.86 6.97-136.44 13.69 13.47-9.99-51.49l-148.09 5.78c-3.03 4.66-6.03 12.07-6.69 15.26l-6.5 51.12c0.36 6.42 16.45 55.59 18.27 62.16-135.42-12.77-121.91 6.76-144.18 66.09-0.39 1.06 14.88 59.28-81.25 77.84-4.39 0.85-74.26 3.96-100.81 8.72-63.29 157.84 63.25 60.51-105.46 139.96l-17.5 586.78z"/> <path class="fil8" d="m2730.3 6973.8c54.23-92.86-25.62 106.66 3.5-47.1l9.45-32.85c0.62-8.84 2.75-12.75 6.31-18.02 204.64 66.61 291.16 73.13 466.05 162.92 121.01 62.13 34.57-6.32 106.53 119.25l81.6 90.88c43.51 29.11 45.47 33.4 76.29 36.22-136.03-10.71-197.13-24.98-347.6 15.71l121.97 2.72c-55.6 40.22-492.28 68.24-559.55 72.15l-95.06 174.51c-40.01 67.84 20.81-8.63-30.64 43.47-5.86 5.94-62.35 40.03-79.04 53.66-38.04 91.2-51.83 228.04-83.11 314.49l186.43-58.41c-125.1-14.6-73.04 26.83-78.99-36.69l426.82-104.54c-270.38-15.89-281 47.35-354.85-12.45-98.16-79.47-20.67 25.32-59.08-121.54 73.63-14.99 116.32-29.58 214.39-42.63-106.93-7.52-49.68 7.54-85.77-62.18 270.99-54.05 489.37-27.57 808.07-21.15 105.55 1.4 429.77 79.58 525.74 110.16 37.18 11.84 175.18 68.62 251.76 67.97 241.8-2.07-129.22-54.33 234.65-12.04 0-42.65 11.55-37.81-26.87-24.78l-124.63-54.18c-4.76-2.33-11.07-5.64-15.84-7.9l-232.39-114.9c-6.85-3.53-26.27-13.34-32.99-16.84-4.93-2.56-11.15-5.86-16.05-8.42l-561.35-311.59c-60-44.78-33.62-44.16-102.84-69.82l113.99-22.78c-116.32-30.75-233.91-95.03-297.26-192.05l126.43 12.19c-88.67-52.73-174.8-50.26-329.59-64.29-54.26-4.91-133.84-2.21-178.57-13.32-137.86-34.22-168.76-146.66-58.6-233.68 72.29-57.09 229.49-17.41 317.95 12.54l161.23 66.19c-57.18-237.83 52.52-105.87-6.66-278.46l-5.21-52.86c-42.9-3.48-89.75-17.64-115.22-19.29-50.99-3.31-27.14-1.22-59.66 4.02l-32.52 15.99c93.44 11.64 158.55 18.76 216.57 74.11-35.29 26.69-46.82 41.89-144.49 47.88-198.86 12.19-281.34 4.38-321.93-97.28l96.89-34.37c4.08-0.62 85.85 3.51 100.19 3.45-176.41-108.89 81.16-13.82-66.37-140.27-4.01 95.55 30.06 42.51-56.72 96.96-0.32 53.41 8.26 2.16-51.73 15.85-38.64 34.69-8.22 28.23-48.93 8.89l-8.82-133.37-12.78-5.58c9.39 247.28-85.29 254.1-72.74 456.85 9.34 150.76-9.83 324.61 101.64 386.63z"/> <path class="fil9" d="m7239.1 7164.9c101.84 8.53 159.29 63.94 299.21 92.68-3.75 4.03-8.87 5.58-10.22 12.99l-58.9 85.24-273.18-48.7-24.59-70.06c-65.54 1.01-26.7-9.92-65.41 24.98-101.13 91.14 68.74-46.34-21.43 52.15-37.62-21.01-126.09-32.97-159.17-31.38-68.31 3.28-105.14 9.8-136.87 85.29-25.22-11.93-26.9-40.32-95.61-65-32.68 106.7-4.64 94.18-105.76 114.57 6.06 6.82 16.4 6.52 19.51 19.16 7.44 30.27 34.19 2.67 51.62 67.8l-106.09 72.46c-3.17 3.31-7.38 9.4-10.56 12.54-2.98 2.94-7.76 8.14-10.87 10.91-79.39 70.77-90.51 26.73-125.03 126.3l519.37-82.15c108.91-33.79 124.88-22.15 196.78-16.55l74.72 13.08c63.18-4.91 140.99-63.43 268.91-68.05 104.83-3.78 248.88 86.82 298.5 150.01 20.54-39.28-2.36-57.9 120.47 3.58 31.06 15.54 69.29 38.43 116.76 65.25-14.09-56.17-120.29-130.93-159.49-182.43 48.24 31.71 19.54 14.41 74.7 44.36 52.26 28.37 38.23 14.76 75.64 44.5 96.71 76.89 34.35 75.17 192.03 102.48-27.57-43.38-28.31-87.42-115.63-130.26 65.99-6.86-7.6 27.38 110.58-8.96 5.57-1.71 15.57-4.33 22.07-8.86l-104.44-92.29c-255.49-171.16-350.34-73.31-509.88-251.48-4.99-5.57-25.66-29.7-31.9-35.07 93.87 23.09 454.62 145.19 481.1 159.82 95.61 14.16 30.33 27.9 0.52-64.43 18.73-7.22-52.45-72.03 115.38-6.78-3-1.93-7.26-10.05-7.8-7.33l-33.87-125.73-258.59-104.29c-212.05 15.69-526.55-151.07-719.24-43.63 50.24 31.83 54.09 46.57 106.66 83.28z"/> <path class="fil10" d="m8913.5 9105.3c-137.23 52.39-28.3 77.92-184.99 87.73-197.6 12.37-389.84-145.16-451.32-255.65 18.53-55.78 12.32-23.33 32.33-48.17 145.88-181.16-7.24-45.48 150.82-243.72l76.1-97.1c10.07-10.11 34.38-30.17 40.02-34.63 181.54-143.8 79.34-148.31 145.85-174.41 159.84-62.71 93.27-73.4 209.61-160.82 5.76-4.33 22.94-16.05 29.07-19.99l110.08-61.07c2.03-32.79 10.56-120.29 6.11-148.41-22.36-141.29 5.86-2.11-51.25-99.01l-30.13-68.07c-22.41-53.38 21.05-3.83-41.46-77.43 67.94-34.11 102.01-85.14 132.27-180.07-92.58 31.34-135.72 93.72-283.28 202.03-125.27 91.95-124.91 167.67-242.5 226.49-265.59 132.85-127.61 111.31-238.11 234.69-92.84 103.65-136.48 72.34-216.15 250.35-117.04 261.51 14.51 516.08 164.68 633.48 66.78 52.21 231.26 140.57 313.56 157.03 220.25 44.06 263.08 37.32 328.69-123.24z"/> <path class="fil6" d="m4493.6 3075.4 54.81 58c-38.54 16.86-25.79 17.13-42.25 29.19-56.7 41.58 48.88-9.7-46.64 35.29 160.99 30.1 26.27 168.21 341.48 211.16-80.59 139.5 75.15-42.1-16.43 107.09l680.99-53.66c-5.65-102.09-23.85-74.88-27.71-206.72-103.24 20.25-25.04 0.36-55.58-31.8 151.21-57.04 214.76-19.3 406.87-8.92 499.19 27 276.25 19.1 773.88 139.03 85.42 20.59 139.85 24.61 212.42 49.18 85.96 29.1 92.95 58.02 125.48 33.99-73.35 19.76-475.27-277.63-638.13-277.25-145.09 0.35-801.4 19.15-913.57-58.11-49.4-59.03-20.78-7.81-36.86-106.46-24.42-149.86-25.2-127.21-169.47-187.53l-38.53-21.04c-228.84 64.66-444.86 173.34-610.75 288.58z"/> <path class="fil6" d="m3483.1 6696.8c47.72 148.13 156.62 272.32 248.6 339.04 210.25-11.49 274.5 47.96 425.72 44.25 162.97-3.99 183.4-89.98 361.12-122.44l7.5 1.69 166.94-69.01c47.25-90.19 174.62-232.78 254.24-281.34l16.83-48.37-7.3-34.54c66.08-25.62 14.05 3.14 39.73-51.23-49.45-23.81-58.28-32.42-74.43-91.08-22.9-83.16-2.85-13.9 1.52-18.07-84.51-21.23-59.41 2.38-141.1-43.15-4.23-2.36-17.21-14.31-24.13-18.75 33.5 95.84 34.13 20.06 46.95 148.77-63.74-22.9-76.24-12.68-92.03-100.35l9.09 189.83c-101.17-122.59-27.78-58.45-76.89-32.35-102.41 54.44-150.84 18.18-303.66 48.66-79.59 15.87-16.72 26.73-110.05-16.34-31.02 53.82-29.44 60.04-65.9 107.11-46.81-17.43-65.52-21.79-132.02-30.9-130.55-17.86-41.99-5.18-96.76 7.76-120.95 28.57-100.22-10.18-199.39-31.38l-186.08 132.41c-1.8-4.11-6.56 10.08-4.41 6.66l-64.11-36.88z"/> <path class="fil8" d="m7764 7723.2c72.19 19.35 131.37 94.32 184.26 141.99 87.56 78.93 110.01 62.98 107.87 226.27-37.96-19.04-173.07-77.41-218.2-94.28 70.27 106.71 157.55 125.99 201.96 313.78-173.48-75.81-97.55-173.35-230.24-150.93-193.89 32.76-58.67-8.96-234.9-57.8 122.69 126.7 279.36 188.7 287.12 363.58-115.26-2.26-164.97-48.13-257.47-80.7l79.87 86.91c105.65 85.26 145.49 111 111.82 274.92l-155.32-194.16-19.53 205.68c10.97 28.02 68.12 69.63 29.91 200.17-36.49 124.68-77.8 60.29-99.76 48.09-74.25-41.23-107.54-119-194.42-182.1-236.16-171.5-265.51-209.37-572.48-362.53l-313.66-163.13-24.47 61.49c86.47-17.78 768.07 432.33 848.16 566.57-85.38-34.1-56.88-44.47-153.04-66.5 58.6 95.44 92.91 70.35 163.27 141.85 92.52 94.01 33.89 137.73 175.67 120.61 95.18-18.86 163.08-31.08 213.67-108.3l75.8-195.74c318.3-410.19 232.18-304.42 126.56-467.12l156.36 11.31 62.06-114.35c141.62-186.52 51.32-155.44-7.41-324.3l200.94 20.51c110.47-229.33-84.04-388.42-243.88-456.29 63.44 22.75 109.38 45.97 176.54 61.27l138.77 14.8c3.25-0.13 13.55 2.77 15.83-2.76 2.44-5.94 23.99 7.46 19.53-33.99l-33.95-69.18c-28.32-30.95-47.91-39.02-83.16-66.22-146.76-113.23-39.37-106.89-187.82-163.03l33.87 125.73c0.54-2.72 4.8 5.4 7.8 7.33-167.83-65.25-96.65-0.44-115.38 6.78 29.81 92.33 95.09 78.59-0.52 64.43-26.47-14.63-387.22-136.73-481.1-159.82 6.24 5.37 26.91 29.51 31.9 35.07 159.54 178.17 254.38 80.32 509.88 251.48l104.44 92.29c-6.51 4.53-16.51 7.15-22.07 8.86-118.18 36.34-44.59 2.1-110.58 8.96 87.32 42.84 88.07 86.88 115.63 130.26-157.68-27.31-95.32-25.6-192.03-102.48-37.41-29.74-23.37-16.14-75.64-44.5-55.16-29.95-26.46-12.64-74.7-44.36 39.2 51.5 145.4 126.26 159.49 182.43-47.47-26.82-85.7-49.71-116.76-65.25-122.83-61.48-99.92-42.85-120.47-3.58z"/> <path class="fil11" d="m4670 3580.8c78.99-22.42 852.15-150.05 878.02-50.4 1.13 4.34 5.03 13.28 6.15 18.72 1.4 6.82 5.93 30.82 6.43 39.06 6.97 113.6-17.29 203.24-109.43 212.8l-52.83 2.39c-110.79-17.94-257.16-176.66-428.24-221.45 117.06 45.63 209.3 105.69 289.07 175.47 81.84 71.58 79.03 58.86 90.24 158.71 11.49 102.43 40.82 89.8 61.5 150.71-165.96-1.28-559.45-192.49-650.75-257.65l14.41-133.52c-128.06 29.43-36.07 23.37-137.18 65.37-74.71 31.03-105.27 15.07-120.62 8.5 6.13 5.49 46.89 24.42 84.1 33.35l205 107.27c59.02 44.75 23.74 21.51 102.72 68.08 102.42 60.38 96.97 66.17 231.49 115.91 273.98 101.31 163.45 10.01 235.02 121.63 71.79 111.97 47.58 95.25 166.85 163.77 71.02 40.8 125.62 73.82 210.54 141.17l292.75 228.35c85.3 62.42 68.41 38.56 88.53 128.55 23.08-55.74 185.92-133.21 165.38-310.1-209.41-254.79-424.39-285.31-770.54-600.22 49.55-194.63-70.35 124.03 39.96-53.49 14.74-23.72 9.35-5.83 23.48-45.72 0.56-1.6 18.22-89.3 18.35-90 37.67-196.99-29.77-17.54 45.82-206.05-114.27-90.76-60.33-6.7-118.98-139.07-41.22-93.01-26.4-98.82-99.34-157.24 3.86 131.84 22.06 104.63 27.71 206.72l-680.99 53.66c91.59-149.19-64.15 32.41 16.43-107.09-315.21-42.94-180.48-181.06-341.48-211.16 95.53-44.99-10.06 6.29 46.64-35.29 16.46-12.06 3.72-12.33 42.25-29.19l-54.81-58-39.47 6.68c17.51 148.91 20.96 0.63-49.08 137.23l38.49 42.38c14.13 22.32 19.83 67.16 71.82 104.14 23.12 16.43-81.73-46.64 51.96 24.32 75.44 40.04 123.98 83.14 102.62 190.7z"/> <path class="fil3" d="m678.2 2644.1c111.93 18.62 63.91 22.16 153.63 54.77 43.86 15.94 31.09 3.96 75.52 25.88 53.34 26.3 40.64 6.43 51.02 48.22 112.53 21.77 296.88 125.96 388.54 180.03 108.19 63.82 74.68 34.99 140.66 131.8 40.17 58.95 92.65 104.14 132.61 134.35l154.99 98.29c3.82 3.71 8.63 9.1 12.45 12.8 92.2 89.29 190.16 119.86 332.49 164.87l191.54 7.5c-80.23-52.39-167.92-86.54-246.82-132.06-108.61-62.65-117.36-94.19-209.83-161.25l-210.43-160.33c-448.33-254.33-231.91-202.88-398.44-299.23-60.98-35.27-62.74-37.57-118.61-75.2-43.96-29.63-63.02-38.98-116.55-57.1-209.08-70.8-351.68-67.6-371.46-328.18 139.67-39.04 520.78 152.1 664.48 232 136.29 75.79 502.79 287.68 580.91 373.06 36.27-28.06-3.64 36.81 18.82-26.62 15.81-44.64 7.92 21.68 5.56-32.11-6.1-139.16-104.23 9.38-200.35-171.97-1.92-3.63-4.39-11.19-6.02-14.58-56.57-117.37-48.1 31.25-220.9-201.77-115.24-155.39-469.91-244.5-652.99-331.41-100.72-47.81-121.77-52.59-114.72-160.48-90.34 70.52-115.04 198.86-119.07 335.78-5.72 194.95 7.19 235.53 82.98 352.95z"/> <path class="fil8" d="m6134 7840.7 130.36-16.99c-32 84.69 4.51 56.19-104.14 54.29-261.56-4.58-332.46 44.71-495.83 39.42 23.68 64.95 16.96-84.95 9.99 51.49-0.21 4.31-9.81 29.62-9.99 29.86 150.55-20.19-98.48 26.96 39.63-20.34 7.27-2.49 59.51-23.97 108.59-29.07-5.54 105.45-22.71 108.81-17.11 197.51 103.18 35.34 17.1 33.29 121.86 57.37-0.21-26.72-4.82-55.12-72.12-88.25l105.19-125.23c61.86-72.37 6.02-31.38 59.93-72.56 93.21 29.43 175.8 50.05 279.4 88.87 161.82 20.53 286.67 107.76 446 153.32-84.04-117.72-356.45-201.49-436.49-285.38 54.76-29.55 426.16-105.74 525-108.37 173.05-4.59 309.03 112.65 473.35 177.14-96.49-73.28-273.54-150.32-386.59-202.62l168.89-87.78c6.95-3.74 15.03-9.06 20.75-12.25 5.9-3.31 14.59-8.04 21.23-13.04-71.9-5.6-87.87-17.25-196.78 16.55l-519.37 82.15c34.52-99.57 45.64-55.52 125.03-126.3 3.11-2.76 7.89-7.97 10.87-10.91 3.18-3.14 7.39-9.24 10.56-12.54l106.09-72.46c-17.43-65.13-44.18-37.53-51.62-67.8-3.11-12.64-13.45-12.34-19.51-19.16 101.12-20.38 73.08-7.86 105.76-114.57 68.71 24.68 70.39 53.07 95.61 65 31.72-75.49 68.56-82.01 136.87-85.29 33.08-1.59 121.55 10.37 159.17 31.38 90.17-98.5-79.7 38.99 21.43-52.15 38.71-34.9-0.13-23.97 65.41-24.98l24.59 70.06 273.18 48.7 58.9-85.24c1.35-7.4 6.47-8.96 10.22-12.99-139.93-28.74-197.38-84.14-299.21-92.68-95.01-25.75-138.99-75.74-265.19-104.83-35.13 82.92-29.82 57.73-54.55 64.59l-164.01 109.48c-3.75 2.79-9.02 7.83-12.91 10.31l-319.45 99.87c-84.94 16.58-33.41 56.2-146.66 177.79l-48.53 48.65c-22.67 27.49-14.92 18.62-40.14 56.4l-28.89 49.26 124.3 5.2c-49.36 34.52-72.42 35.74-124.35 94.72-55.04 0.33-1.34-8.4-24.71 64.38z"/> <path class="fil7" d="m3218.8 6624.7c25.58 34.02 72.7 39.95 134.59 125.76l42.16 58.82c0.21 0.31 26.16 40.85 27.94 43.75 77.87 126.59-40.22-107.88 15.54 32.76l-132.64-28.53-126.43-12.19c63.36 97.02 180.94 161.3 297.26 192.05l-113.99 22.78c69.22 25.66 42.84 25.04 102.84 69.82l561.35 311.59c4.9 2.56 11.12 5.86 16.05 8.42 6.72 3.49 26.14 13.31 32.99 16.84l232.39 114.9c4.76 2.26 11.07 5.57 15.84 7.9l124.63 54.18c23.23-64.08-49.68-52.95 78.76-45.9-201.44-170.15-157.6 4.1-192.35-154.22l62.41 2.86-9.45-164.31c112.58 42.75 163.3 125.05 223.96 222.59l-83.68 103.2c121.16 55.51 105.51 33.94 206.49-6.5-29.25-126.93-116.75-182.15-180.64-274.29-51.83-74.76-59.48-73.84-98.31-124.86l-76.51-120.78c-381.37 90.4-253.57-1.39-518.68 11.97-50.69 2.56-42.58 13.85-101.09 4.94-83-12.62-52.29 10.04-96.51-52.04-48.3-27.44-95.44-99.17-130.87-152.43-38.69-58.16-78.4-108.41-123.19-172.26-97.74-139.28-117.95-297.12-197.5-375.29 59.17 172.58-50.52 40.63 6.66 278.46z"/> <path class="fil6" d="m4670 3580.8c-226.82 8.92-422.56 77.87-635.88 112.94-8.38-42.27 109.44-25.46 20.8 1.89-79.14 24.41-244.42 8.1-304.34 66.41v48.73c97.84 13.81 417.41-78.74 581.92-88.31 238.91-13.89 249.39-119.95 372.52-75.92 37.87 13.54-30.8 17.73 69.57 29.11l-14.41 133.52c91.3 65.16 484.79 256.37 650.75 257.65-20.68-60.91-50-48.29-61.5-150.71-11.21-99.85-8.4-87.12-90.24-158.71-79.77-69.78-172.01-129.83-289.07-175.47 171.08 44.78 317.44 203.51 428.24 221.45l52.83-2.39c92.14-9.56 116.4-99.21 109.43-212.8-0.5-8.25-5.03-32.24-6.43-39.06-1.12-5.44-5.02-14.38-6.15-18.72-25.88-99.65-799.03 27.98-878.02 50.4z"/> <path class="fil7" d="m6134 7840.7c23.37-72.78-30.33-64.05 24.71-64.38 51.94-58.99 74.99-60.2 124.35-94.72l-124.3-5.2 28.89-49.26c25.22-37.78 17.47-28.91 40.14-56.4l48.53-48.65c113.25-121.59 61.72-161.21 146.66-177.79l319.45-99.87c3.89-2.48 9.16-7.52 12.91-10.31l164.01-109.48c24.74-6.86 19.42 18.33 54.55-64.59 126.19 29.09 170.17 79.07 265.19 104.83-52.57-36.71-56.42-51.44-106.66-83.28 192.7-107.44 507.2 59.31 719.24 43.63 7.63-19.58 18.15-67.46 24.52-90.01-174.65-117.06-89.24-117.13-408.92-104.91-311.35 11.91-318.13 24.7-394.68 119.99-306.06-66.14-528.37 125.82-632.07 190.66l-559.29 306.27c-103.87 73-61.27 66.06-124.88 149.76-52.85 69.54-109.61 72.81-180.06 115.6 22.07 22.3 13.23 46 136.38 55.5l421.32-27.41z"/> <path class="fil12" d="m6937.8 9595.1 16.54 83.54c-46.88 160.44-83.45 176.08-185.68 246.91 30.44 87.23 15.97 121.36-40.43 172.79l-74.25 48.76c-31.13 19.26 12.52 14.8-44.76 25.6-38.15 107.29-29.9 55.32-51.21 104.02-15.49 35.39-18.07 16.75-25.64 80.11-302.73-2.96-67.25-11.48-315.71 243.64-96.65 99.23-38.57 98.79-107.64 112.82-175.94-2.26-166.71 18.71-271.62 109.31l-37.74-18.59c-140.67-60.34-481.5 134.34-568-145.44-77.88-251.88-168.44-453.32-163.42-769.01l-1.33-754.4-47.84 147.27c-26.06 353.92 5.65 994.9 142.1 1340.5 94.37 239.03 5.71 156.24 220.82 255.31l34.8 19.81 320.65 81.55c107.07-68.9 78.77-102.56 185.91-151.58 88.18-40.34 202.77-20.55 309.29-41.41 158.31-183.24-38.48-145.34 284.96-306.56 144.38-71.97 47.58-213.6 317.85-288.94 1.15-5.4 3.74-19.15 4.38-15.98 5.99 30.3-12.48-213.58 217.47-351.92l-17.98-27.52c18.01-221.08 88.2-235.78 1.67-455.75-71.48-181.73-141.97-218.18-217.42-359.72l-87.59-54.27c20.8 87.09 163.12 231.74 220.3 326.43 37.6 62.28 65.74 104.88 54.44 196.35-22.62 183.14-45.17 49.66-72.92 146.36z"/> <path class="fil9" d="m3516.4 8242.2c167.93-3.06 67.77-7.83 104.35 39.89 226-61.79 668.77-211.63 857.84-205.36-2.61 8.29-6.26 11.9-7.93 24.85-14.96 116.14-89.65 63.64-144.69 158.9-50.78-0.18-23.34-10.46-17.56 38.23l44.46-24.53c104.45-22.74 295.64-174.35 394.29-248.78-8.1-84.36-11.7-50.96-19.14-84.22l-25.29-163.63c-19.97-38.43-159.1-92.15-226.61-109.15-363.87-42.29 7.15 9.96-234.65 12.04-76.58 0.65-214.58-56.13-251.76-67.97-95.97-30.58-420.2-108.76-525.74-110.16-47.53 49.01-35.77 50.61-113.56 60.34 147.98 28.17 297.72 93.17 384.66 147.31 124.57 77.57 240.3 78.87 373.23 140.4-67.18-60.49-149.98 11.25-197.63 74.11 183.04-6.05 190.97-37.95 370.45-10.08 128.79 20 227.82 20.94 321.12 25.93 26.63 82.47 44.76-64.16-13.17 30.2l-116.65 102.4c-38.05 2.23-8.34-0.67-53.26 6.17-13.72 2.09-105.78 17.3-152.53 20.97-93.24 7.3-210.44 11.02-322.47 26.44-132.24 18.19-218.53-3.17-310.79 4.15-121.12 9.6-153.32 83.83-255 42.73l285.01-1.63c-68.73 61.9-68.22 59.83-146.99 70.45z"/> <path class="fil8" d="m3773.4 8423c-76.94 23.06-9.03 32.14-221.61 129.16-140.86 64.29-53.06 116.33-200.18 96.31 111.09-36.7 80.71 16.15 116.68-106.33-54.21-39.84-90.48-30.16-182.04-34.36l-2.8 224.8c-91.57-32.03 11.64-46.33-77.08-24.6-75.01 18.37 27.1 12.57-86.31 52.3l-123.51-224.48c-59.48 7.86-119.41 45.43-186.63 6.34 47.47-62.25 64.02-43.63 127.57-85.72 54.18-35.89 5.16 20 48.02-43.29-264.13 16.68-301.89 203.56-328.38 234.32-49.27 57.23-118.87 48.58-147.22 141.73 63.25 47.06 76.35 35.75 131.37 30.55l126-31.84c31.97-8.67 25.57-15.97 74.68-18.76-61.13 89.55-139.82 132.09-31.88 226.21 56.54-73.27 36.64-111.21 112.36-166.84 3.29 1.75 129.99 3.53 43.17 158.31l-24.87 32.08c94.56-2.14 222.52-2.42 314.4-69.1l39.75-39.53c3.63-4.31 8.75-13.07 11.59-16.78 2.93-3.82 7.12-12.07 11.21-17.75 13.24 15.02 73.01-59.02 33.4 99.37 27.29-32.01 5.7-8.81 45.2-33.94l92.03-51.97c4.81-2.56 10.94-6.04 15.91-8.61 5.16-2.67 11.42-5.99 16.71-8.63 39.99-19.85 24.02-4.52 74.1-33.37-25.4-53.51-49.78-92.47-108.63-109.38 5.38-5.01 15.25-17.34 18.41-12.12l266.54-212.4c97.44-84.17 119.07-72.26 262.6-76.68-44.79-40.6-2.86-38.93-80.8-38.91l-179.76 33.92z"/> <path class="fil6" d="m128.13 4896.5c29.48 126.56 131.38 392.01 210.25 474.27 61.15 63.78 116.14 95.67 171.17 149.99 109.75 108.34 63.21 83.42 256.26 108.23 43.14-62.74 53.01-43.89 129.82-76.82-125.12-239.13-35.58-185.16-92.51-241.76-43.54-43.27-8.31 1.33-61.02 3.28-119.39 4.43-67.53-42.15-114.85-111.46l-87.08-59.34c-105.26-34.39 47.15 31.94-38.33-9.81 37.58-137.09-25.18-91.92 23.93-197.63l-235.23-258.3c-67-56.33-29.55 3.34-84.81-62.43-38.28-45.58 21.76-30.72-25.77-31.52-124.53 183.32-32.76 264.72-51.83 313.31z"/> <path class="fil13" d="m2261.4 3578.1c16.9 110.86-6.45 126.52-126.57 124.84-91.99-1.3-154.68-43.81-225.14-74.01 26.58 116.53 52.75 68.47 174.88 83.26 55.72 6.74 129.23 26.81 187.93 35.89 199.47 30.87 281.11 13.82 377.22 131.21l-310.08-41.05c90.07 33.35 170.04 87.31 294.69 72.61-56.16 6.1-41.89 43.73-33.07 53.76-39.59-84.7 50.19-54.57-123.52-53.22-4.52 11.9-7.76 36.15-7.86 39.04-1.05 28.55 4.16 8.05 7.86 7.86-131.15-0.39-106.25 11.68-143.43 38.43 84.24 195.12 187.14 82.9 357.77 48.51-24.75 28.87-62.55 0.2-22.91 90.6 46.79 106.67-30.42-2.72 30.9 33.7l49.41-76.65c3.59-6.77 5.15-13.3 8.62-19.89 3.28-6.25 4.9-12.98 8.22-18.82 3.08-5.42 5.23-12.14 8.57-17.03l75.17-51.01c71.22-18.44 27.38-15.17 106.98-7.42l45.15 4.79c-11.27-163.55-95.51-120.82-58.34-216.6 21.41-55.2 128.99-53.68-2.92-180.65-128.82-18.25-229.95-106.03-298.01-86.68-4.43 1.26-87.13 25.61-106.06 43.48-48.05 45.34-18.27 19.84 17.52 106.58-152.67 3.63-174.39-32.48-292.99-71.52z"/> <path class="fil14" d="m3953.2 8389.1c77.94-0.02 36.01-1.69 80.8 38.91-143.53 4.43-165.16-7.49-262.6 76.68l-266.54 212.4c-3.17-5.22-13.04 7.12-18.41 12.12 58.85 16.91 83.23 55.88 108.63 109.38-50.08 28.85-34.1 13.52-74.1 33.37-5.29 2.63-11.54 5.96-16.71 8.63-4.97 2.57-11.1 6.05-15.91 8.61l-92.03 51.97c-39.5 25.14-17.91 1.93-45.2 33.94 39.61-158.4-20.16-84.35-33.4-99.37-4.1 5.68-8.28 13.93-11.21 17.75-2.84 3.71-7.96 12.47-11.59 16.78l-39.75 39.53c-91.88 66.68-219.83 66.96-314.4 69.1-2.5 25.19-11.24 84.83-13.73 92.48-25.32 78.14-16.76-52.51-36.46 99.26 77.79-14.35 88.64-48.32 147.87-69.74-11.93 148.92-3.4-23.79-76 112.7-53.09 99.8 14.87 190.82 132.31 105.25l52.48-45.9c93.98-85.86 51.84-64.23 99.47-151.49 2.63-4.82 6.3-11.3 9.07-15.8l34.95-43.92c132.08-7.8-121.16 8.74 61.47 18.43l414.15-301.72c78.03-89.28 11.44-45.39 138.35-158.12l63.65-60.15c51.57-48.37 163.69-179.03 222.19-206.26-71.01-30.68-24.57-22.85-54.71-57.81l-182.61 52.97z"/> <path class="fil8" d="m5999.8 10579c35.2 33.8 35.33 28.02 63.08 62.67 48.63 60.72 10.21 5.26 46.23 71.88 69.07-14.03 10.99-13.59 107.64-112.82 248.45-255.11 12.98-246.6 315.71-243.64 7.57-63.36 10.15-44.72 25.64-80.11 21.31-48.71 13.06 3.27 51.21-104.02-60.8 24.16-50.26 18.41-84.88 48.78-108 94.68 54.58-90.68-42.68 60.13-1.3 62.95 18.2 11.91-16.87 49.94l-621.93-1176.7-139.9-135.1c6.04 136.03 112.67 261.57 223.52 490.26 81.35 167.83 177.71 314.48 212.97 473.95-138.23-37.35-35.91-13.68-114.82-74.73-11.14 164.37-5.8 99.76 20.87 178.5l31.17 118.62c23.66 91.29 98.6 287.21-18.95 357.62-43.72 26.2-5.1 16.48-58 14.81z"/> <path class="fil2" d="m3750.6 3762.1c59.92-58.32 225.2-42 304.34-66.41 88.64-27.34-29.18-44.16-20.8-1.89 213.32-35.07 409.07-104.02 635.88-112.94 21.36-107.56-27.18-150.66-102.62-190.7-133.69-70.96-28.84-7.88-51.96-24.32-51.98-36.98-57.69-81.82-71.82-104.14l-38.49-42.38c70.04-136.6 66.59 11.68 49.08-137.23-21.09 30.79-373.25 257.31-433.88 307.87-43.42 36.22-354.2 325.21-380.46 379.67l110.73-7.54z"/> <path class="fil15" d="m4693 6890.4-166.94 69.01c170.17 26.18 212.76-45.64 244.75-18.07 80.46 69.38 54.59 488.56 38.31 573.51-63.22-40.27-74.32-75.71-117.78-146.25l-197.02-277.35c-13.22-29.27-15.87-59.35-11.88-75.08l36.12-58.45c-177.73 32.46-198.15 118.45-361.12 122.44-151.23 3.71-215.47-55.75-425.72-44.25l-68 10.38c44.21 62.08 13.5 39.42 96.51 52.04 58.51 8.91 50.41-2.38 101.09-4.94 265.11-13.36 137.31 78.43 518.68-11.97l76.51 120.78c38.83 51.01 46.47 50.1 98.31 124.86 63.89 92.14 151.4 147.36 180.64 274.29-100.98 40.44-85.33 62.01-206.49 6.5l-0.89-10.11c-128.43-7.05-55.52-18.18-78.76 45.9 38.43-13.03 26.87-17.86 26.87 24.78 67.51 17 206.64 70.72 226.61 109.15l25.29 163.63c7.44 33.26 11.05-0.14 19.14 84.22-98.65 74.43-289.84 226.04-394.29 248.78 115.88-44.92 179.59-95.49 336.85-133.02-41.21 109.99-30.4 36.81-63.19 144.62 230.38-175.8 91.95-210.92 225.2-358.43 38.94-43.1 20.88 2.07 42.87-52.17l-86.68-123.51c49.71-146.39 69-62.84 77.94-172.6 3-36.77-15.52-171.72-14.97-246.69l-10.39-398.63c-3.86-118.4 18.35-66.27-31.94-97.72 9.29-69.4-30.36 17.12-135.64 54.37z"/> <path class="fil13" d="m606.17 3178.1c-20.83 44.78-6.3 22.64-41.38 66.31-3.54 4.41-35.73 37.23-42.85 45.72 149.62 20.01-61.16-51.25 306.93-41.03 118.05 3.27 265.64 11.86 378.27 34.49l161.23 50.71c4.61 1.94 11.03 4.98 15.45 7.07l319.37 171.81c44.2 24.24 46.37 23 89.05 42.16-46.77-111.41-24.93-11.05-44.58-143.01 67.79-31.45 13.54-11.61 106.29-17.13-84.33-62.26-122.78-34.75-194.36-116.47l-39.42-59.54-150.7-126.08-495.37-14.27-162.44 5.52-190.6 86.03c-2.12-4.5-10.38 4.4-14.89 7.7z"/> <path class="fil4" d="m3620.8 8282c-105.42-6.11-132.81 10.93-234.53 39.78-170.61 41.25-86.81 5.21-112.61 110.64 175.12 50.13 316.04 10.97 499.76-9.48l179.76-33.92 182.61-52.97 172.67-37.44c-5.77-48.69-33.21-38.41 17.56-38.23 55.04-95.27 129.73-42.76 144.69-158.9 1.67-12.95 5.31-16.56 7.93-24.85-189.07-6.28-631.85 143.57-857.84 205.36z"/> <path class="fil4" d="m5072.2 8931.2-5.24 204 1.33 754.4c43.55 69.04 32.46 97.19 60.21 175.11l17.26 34.86c43.84-61.79 34.42-142.99 32.4-222.93-6.46-256.84 86.2-992.84 68.45-1099-23.03-137.68-75.24-219.21-76.14-359.99-114.17 91.78-17.5 348.13-98.26 513.54z"/> <path class="fil8" d="m5910.6 10508c5.69-176.38-40.82-159.49-78.83-204.03-77.14-90.42 48.75-29.33-68.4-133.47-3.33 5.85-5.22 14.53-6.9 18.98l-21.98 57.86c-65.42 140.16-22.73 85.37-73.8 29.39l-39.02-49.87c-2.52-10.93-8.89-13.19-15.3-17.55-5.87 106.87 11.58 143.75 13.75 234.75l-79.87 151.12c-3.28-4.16-8.74-10.29-12.23-14.9l-94.29-153.44c-136.99-186.85 23.7 85.4-45.88-54.55-4.83 2.46-10.37 8.28-12.91 9.85l-41.29 23.66c-52.5 18.97-2.55 14.77-64.34 6.05-78.06-127.75 7.38-196.39-61.59-277.73-18.7 83.6 10.2 406.92 75.77 493.27 118.13 155.56 159.28 47.3 226.71 60.61l80.25 52.5 93.62-49.17c-36.33-130.88-21.39-120.98-14.89-249.36l44.79 107.8c88.69-75.58 19.98-77.84 105.56-107.71l91.08 65.95z"/> <path class="fil16" d="m2310.4 8881.2 112.03 419.79c1.65 2.13 6.38 7.02 8 9.06l50.95 68.16c85.51 123.33 19.61 92.85 145.71 137.59l-27.67-107.67 133.43-50.76c-61.54-26.67-166.28-30.93-230.23-24.82l9.59-36.43c1.71-3.38 4.72-12.73 7.1-16.74 35.2-59.39 84.83-80.71 143.95-115.27 4.39-2.57 10.98-5.85 15.16-8.42l39.8-27.09c67.5-61.52 14.98-101.03 6.72-191.31l-346.09-98.81c0 104.01 15.77-0.18-68.46 42.72z"/> <path class="fil4" d="m3306.3 6857.3 132.64 28.53c-55.76-140.64 62.33 93.84-15.54-32.76-1.78-2.89-27.73-43.44-27.94-43.75l-42.16-58.82c-61.88-85.82-109.01-91.74-134.59-125.76l-161.23-66.19c-88.46-29.95-245.65-69.63-317.95-12.54-110.17 87.02-79.26 199.46 58.6 233.68 44.73 11.1 124.31 8.4 178.57 13.32 154.79 14.03 240.92 11.56 329.59 64.29z"/> <path class="fil9" d="m6481.7 10282c97.26-150.81-65.32 34.55 42.68-60.13 34.62-30.37 24.08-24.62 84.88-48.78 57.28-10.8 13.62-6.34 44.76-25.6l74.25-48.76c56.4-51.42 70.87-85.56 40.43-172.79 102.23-70.84 138.81-86.47 185.68-246.91l-53.55 32.77c-5.8 4.03-44.5 31.09-50.42 36.79-14.28-87.65 6.67-105.89-84.23-158.25 66.2 134.19 30.91 127.29 6.23 162.55-13.57-213.06-199.05-279.48-243.15-419.95-22.64 50.2 26.16-1.1-24.94 24.95 121.81 35.37 52.26 36.79 130.85 145.23l21.55 26.33c56.94 78.24 53.14 100.22 69.92 198.74-113.86-47.18-131.48-88.28-215.44-209.62-27.91-40.34-15-31.17-35.17-62.13 49.72 16.61 36.41 33.35 59.19 70.14l158.17 284.87c29.88 72.86 11.62-32.27 20.89 65.08-58.92 16.54-31.84-0.62-61.63 53.98l-56.86-42.88c-59.36-39.58 28.26-9.26-73.04-41.78 12.17 204.83 70.99 72-8.84 168.49-15.02-95.55-6.89-137.01-83.59-205.48l13.58 183.85c-74.93-46.13-8.19 4.81-53.81-44.81-28.7-31.22 9.95-3.37-42.39-55.33 18.2 80.23 73.99 145.26 134 389.42z"/> <path class="fil9" d="m2985.5 8413.1c-42.85 63.29 6.16 7.4-48.02 43.29-63.54 42.1-80.09 23.48-127.57 85.72 67.21 39.09 127.14 1.52 186.63-6.34l123.51 224.48c113.41-39.73 11.3-33.93 86.31-52.3 88.71-21.73-14.49-7.43 77.08 24.6l2.8-224.8c91.56 4.2 127.84-5.48 182.04 34.36-35.97 122.49-5.58 69.63-116.68 106.33 147.12 20.02 59.31-32.02 200.18-96.31 212.58-97.02 144.66-106.1 221.61-129.16-183.71 20.45-324.63 59.6-499.76 9.48 25.79-105.43-58.01-69.39 112.61-110.64l-400.75 91.3z"/> <path class="fil17" d="m2730.3 6973.8 26.33 57.28c143.06 12.48 244.51 109.72 276.67 237.77l-116.93 32 216.06-0.05c150.47-40.69 211.57-26.42 347.6-15.71-30.82-2.82-32.78-7.12-76.29-36.22l-81.6-90.88c-71.96-125.58 14.48-57.12-106.53-119.25-174.9-89.79-261.41-96.31-466.05-162.92-3.57 5.28-5.7 9.18-6.31 18.02l-9.45 32.85c-29.12 153.76 50.73-45.76-3.5 47.1z"/> <path class="fil3" d="m1118.2 849.48c-41.61 109.19-11.54 71.45-12.87 146.53-2.37 134.92 14.71-6.31-49.67 121.5-28.19 55.96-46.75 156.73-139.32 242l0.5-102.83c-16.71 46.91-18.81 58.87-18.02 121.1 0.09 7.17 5.24 62.09 6.84 70.56 11.4 60.51 4 31.13 19.19 60.64 80.19-116.1 193.28-116.96 317.91-137.57 46.49-7.69 23.05 5.21 53.68-13.63-86.44-19.59-200.97-78.71-226.88-78.33-25.37-91.1 48.7-137.59 77.3-161.98l44.95-44.13c59.66-61.41 246.23 16.73 309.44 48.65 123.56 62.38 55.38 114.64 208.2 67.48l-140.44-111.54c-55.06-37.87-95.38-54.57-155.14-89.01-204.69-117.97-151.97-102.89-278.32-191.11l-17.35 51.66z"/> <path class="fil7" d="m4526 6959.4-7.5-1.69-36.12 58.45c-4 15.73-1.34 45.8 11.88 75.08l197.02 277.35c43.46 70.54 54.56 105.98 117.78 146.25 16.28-84.95 42.15-504.13-38.31-573.51-31.98-27.57-74.57 44.25-244.75 18.07z"/> <path class="fil7" d="m2771.9 6260.4c60-13.69 51.41 37.57 51.73-15.85 86.78-54.46 52.71-1.41 56.72-96.96l11.53-75.1c247.7 13.19 167.69 13.52 210.49 68.23l92.17 96.47c-16.61-139.48-41.22-529.19-123.87-590.45-90.41 61.96-49.99 68.47-100.43 173.88-37.75 78.91-59.6 70.85-49.65 201.74-221.92 166.74 41.6 113.04-142.22 149.88l-6.47 88.17z"/> <path class="fil9" d="m2880.4 6147.6c147.53 126.45-110.04 31.38 66.37 140.27-14.33 0.07-96.11-4.06-100.19-3.45l-96.89 34.37c40.59 101.66 123.07 109.47 321.93 97.28 97.67-5.99 109.2-21.19 144.49-47.88-58.03-55.36-123.14-62.47-216.57-74.11l32.52-15.99c32.52-5.25 8.67-7.33 59.66-4.02 25.47 1.65 72.32 15.81 115.22 19.29l-12.36-56.18-92.17-96.47c-42.8-54.71 37.21-55.04-210.49-68.23l-11.53 75.1z"/> <path class="fil18" d="m1792.2 3555.3 117.49 73.58c70.45 30.2 133.15 72.71 225.14 74.01 120.11 1.68 143.47-13.98 126.57-124.84l-407.48-182.89c-92.75 5.52-38.5-14.32-106.29 17.13 19.65 131.96-2.19 31.6 44.58 143.01z"/> <path class="fil0" d="m5191.9 6180.3c-41.55 92.17-123.47 251.38-195.42 294.55-25.68 54.37 26.35 25.6-39.73 51.23l7.3 34.54c160.76-109.73 134.29-177.37 246.31-300.76 73.17-80.59 96.74-31.63 159.27-111.22 65.81-83.77 16.87-123.66 86.37-186.64 11.57-180.48 84.13-112.95 132.08-213.5 44.63-93.59-5.74-190.66-7.04-278.63h-40.26c13.41 452.91-31.22 86.05-133.72 370.11-175.54 486.48-1.57 94.92-215.15 340.33z"/> <path class="fil14" d="m5917.4 8204.3 188.83 97.23-34.18-140.68c111.48-43.14 91.09-2.55 114.17-64.98 23.06-62.35-89.53-76.02 103.58-88.74-103.59-38.82-186.19-59.44-279.4-88.87-53.91 41.19 1.93 0.2-59.93 72.56l-105.19 125.23c67.3 33.13 71.9 61.54 72.12 88.25z"/> <path class="fil19" d="m3416.6 4090.8c2.39 97.12-3.98 67.37 49.16 141.21 59.8-36.84 64.67-4.47 160.1-76.78 88.41-66.99 73.07-57.59 192.77-71.3l-11.14-95.57-1.54-24.73c-98.62-34.44-114.69-51.46-241.25-48.44l-20.14 36.04c-9.51 38.76-6.88 28.7-8.97 68.1l-129.02 17.73c-4.32 1.52-12.06 5.31-17.47 8.99l117.65 37.09c5.57 1.15 14.88 2.86 19.37 3.74 4.4 0.87 13.03 1.34 19.05 3.7l-128.55 0.21z"/> <path class="fil0" d="m178.2 4000.2c151.4-56.05 42.3-68.45 160.08-315.12 63.78-133.55 104.89-243.35 105.32-363.56l78.34-31.45c7.12-8.49 39.31-41.31 42.85-45.72 35.07-43.67 20.54-21.53 41.38-66.31-149.04 65.26-157.68 85.89-278.86 168-22.06 236.66 71.4 131.98-84.36 342.68-118.47 160.27-18.34 175.21-64.75 311.47z"/> <path class="fil9" d="m2687 8377-209.08 4.36c4.16-7.36-13.56-98.1 172.93-110.98-194.43-1.21-27.93 16.15-98.81-73.98 54.48-20.45 40.62-24.39 128.48-24.83-29.99 1.89-58.73 19.88-128.48-24.7l74.11-74.24c-88.16-36.75-67.18-21.94-163.25-23.47 6.79 3.7 16.02 2.52 20.22 11.34l91.19 16.11c-124.44 42.66-165.66 117.77-221.11 218.48l97.48 44.6-110.26 61.96c79.53 7.1 266.54 9.91 346.59-24.64z"/> <path class="fil8" d="m4528 7597.7 0.89 10.11 83.68-103.2c-60.66-97.53-111.38-179.84-223.96-222.59l9.45 164.31-62.41-2.86c34.76 158.32-9.09-15.92 192.35 154.22z"/> <line class="fil20 str0" x1="10009" x2="9677.4" y1="6275.1" y2="5461.7"/> <line class="fil20 str0" x1="3578" x2="4105.2" y1="3373.1" y2="2726.8"/> <line class="fil20 str0" x1="5179.4" x2="5460.6" y1="7504.8" y2="6966"/> </svg>