<?xml version='1.0' encoding='utf-8'?>
<svg xmlns:xlink="http://www.w3.org/1999/xlink" xmlns="http://www.w3.org/2000/svg" viewBox="0 0 712.32 538.21"> <defs> <filter id="bm" x="-.1169" y="-1.0008" width="1.2339" height="3.0016"> <feGaussianBlur stdDeviation="10.127"/> </filter> <filter id="bl" x="-.3762" y="-.0714" width="1.7524" height="1.1428"> <feGaussianBlur stdDeviation="3.242"/> </filter> <filter id="bk" x="-.1517" y="-.0512" width="1.3034" height="1.1023"> <feGaussianBlur stdDeviation="2.152"/> </filter> <linearGradient id="f"> <stop stop-color="#fecdbe" offset="0"/> <stop stop-color="#bc9ba0" offset="1"/> </linearGradient> <linearGradient id="g"> <stop stop-color="#fe9e00" offset="0"/> <stop stop-color="#fe7800" offset="1"/> </linearGradient> <linearGradient id="h"> <stop stop-color="#fb0" offset="0"/> <stop stop-color="#fff" stop-opacity="0" offset="1"/> </linearGradient> <linearGradient id="i"> <stop stop-opacity=".476" offset="0"/> <stop stop-opacity="0" offset="1"/> </linearGradient> <linearGradient id="d"> <stop offset="0"/> <stop stop-opacity="0" offset="1"/> </linearGradient> <linearGradient id="b"> <stop stop-color="#fff" offset="0"/> <stop stop-color="#fff" stop-opacity="0" offset="1"/> </linearGradient> <linearGradient id="v"> <stop stop-color="#8dd11e" offset="0"/> <stop stop-color="#67d10d" offset=".195"/> <stop stop-color="#85f11e" offset=".646"/> <stop stop-color="#6ec51e" offset="1"/> </linearGradient> <linearGradient id="w"> <stop stop-color="#fc8f8f" offset="0"/> <stop stop-color="#b06c73" offset="1"/> </linearGradient> <linearGradient id="x"> <stop stop-color="#ffe18d" offset="0"/> <stop stop-color="#fffcf2" offset="1"/> </linearGradient> <linearGradient id="y"> <stop stop-color="#1e9bff" offset="0"/> <stop stop-color="#1e55c5" offset="1"/> </linearGradient> <linearGradient id="z"> <stop stop-color="#dbae77" offset="0"/> <stop stop-color="#a15400" offset=".49"/> <stop stop-color="#dbae94" offset="1"/> </linearGradient> <linearGradient id="aa"> <stop stop-color="#8dff1e" offset="0"/> <stop stop-color="#6ec51e" offset="1"/> </linearGradient> <linearGradient id="bi" x1="342.99" x2="361.63" gradientUnits="userSpaceOnUse"> <stop stop-color="#abff10" offset="0"/> <stop stop-color="#b3e31e" offset="1"/> </linearGradient> <linearGradient id="bg" x1="372.24" x2="361.13" gradientUnits="userSpaceOnUse"> <stop stop-color="#8dd01e" offset="0"/> <stop stop-color="#85d700" offset="1"/> </linearGradient> <linearGradient id="bc" x1="325.31" x2="343.96" gradientUnits="userSpaceOnUse"> <stop stop-color="#10adff" offset="0"/> <stop stop-color="#497ee8" offset="1"/> </linearGradient> <linearGradient id="ba" x1="354.56" x2="343.46" gradientUnits="userSpaceOnUse"> <stop stop-color="#10adff" offset="0"/> <stop stop-color="#1544a2" offset="1"/> </linearGradient> <linearGradient id="a" x1="380" x2="445.71" gradientUnits="userSpaceOnUse"> <stop stop-color="#efb612" offset="0"/> <stop stop-color="#ddba14" offset=".212"/> <stop stop-color="#efe719" offset=".647"/> <stop stop-color="#ffd11e" offset="1"/> </linearGradient> <linearGradient id="m" x1="380" x2="445.72" gradientUnits="userSpaceOnUse"> <stop stop-opacity=".502" offset="0"/> <stop stop-opacity="0" offset=".417"/> <stop stop-opacity="0" offset=".601"/> <stop stop-opacity=".502" offset="1"/> </linearGradient> <linearGradient id="af" x2="0" y1="812.86" y2="913.27" gradientUnits="userSpaceOnUse"> <stop stop-color="#f55" offset="0"/> <stop stop-color="#ffd5d5" offset=".239"/> <stop stop-color="#8c1414" offset=".642"/> <stop stop-color="#800000" offset="1"/> </linearGradient> <linearGradient id="ae" x1="411.38" x2="481.12" y1="825.03" y2="922.03" gradientUnits="userSpaceOnUse"> <stop stop-color="#f3c85f" offset="0"/> <stop stop-color="#f9e7ba" offset=".392"/> <stop stop-color="#ffc600" offset=".487"/> <stop stop-color="#df9a17" offset="1"/> </linearGradient> <linearGradient id="ad" x2="0" y1="810.19" y2="919.47" gradientUnits="userSpaceOnUse"> <stop stop-color="#c80000" offset="0"/> <stop stop-color="#ff3a00" offset=".262"/> <stop stop-color="#ff5a5a" offset=".274"/> <stop stop-color="#f00" offset=".297"/> <stop stop-color="#e50007" offset=".695"/> <stop stop-color="#ff5a5a" offset=".714"/> <stop stop-color="#cf0101" offset=".726"/> <stop stop-color="#f00" offset="1"/> </linearGradient> <linearGradient id="c" x2="0" y1="809.74" y2="918.34" gradientUnits="userSpaceOnUse"> <stop stop-color="#999" offset="0"/> <stop stop-color="#fff" offset=".28"/> <stop stop-color="#b3b3b3" offset=".512"/> <stop stop-color="#ccc" offset=".59"/> <stop stop-color="#ccc" offset=".728"/> <stop stop-color="#ccc" offset="1"/> </linearGradient> <linearGradient id="ab" x2="0" y1="809.39" y2="918.29" gradientUnits="userSpaceOnUse"> <stop stop-color="#666" offset="0"/> <stop stop-color="#fff" offset=".28"/> <stop stop-color="#808080" offset=".512"/> <stop stop-color="#999" offset=".59"/> <stop stop-color="#ececec" offset=".728"/> <stop stop-color="#666" offset="1"/> </linearGradient> <linearGradient id="e" x2="0" y1="809.74" y2="918.34" gradientUnits="userSpaceOnUse"> <stop stop-color="#333" offset="0"/> <stop stop-color="#fff" offset=".28"/> <stop stop-color="#4d4d4d" offset=".512"/> <stop stop-color="#666" offset=".59"/> <stop stop-color="#ccc" offset=".728"/> <stop stop-color="#1a1a1a" offset="1"/> </linearGradient> <linearGradient id="aw" x1="446.18" x2="500.63" y1="1238" y2="1278.3" gradientUnits="userSpaceOnUse"> <stop stop-color="#ffff49" offset="0"/> <stop stop-color="#d38c00" offset=".566"/> <stop stop-color="#fff204" offset="1"/> </linearGradient> <linearGradient id="ah" x2="0" y1="347.36" y2="482.02" gradientUnits="userSpaceOnUse"> <stop stop-color="#d8d2cd" offset="0"/> <stop stop-color="#e9e9e2" offset=".167"/> <stop stop-color="#ebebe4" offset="1"/> </linearGradient> <linearGradient id="bj" x1="434.37" x2="258.6" y1="352.33" y2="233.13" gradientUnits="userSpaceOnUse" xlink:href="#d"/> <linearGradient id="bh" x1="332.85" x2="343.95" gradientUnits="userSpaceOnUse" xlink:href="#aa"/> <linearGradient id="bf" x1="331.92" x2="363.16" y1="47.459" y2="53.173" gradientUnits="userSpaceOnUse" xlink:href="#z"/> <linearGradient id="be" x1="345.97" x2="355.6" y1="32.924" y2="34.686" gradientUnits="userSpaceOnUse" xlink:href="#aa"/> <linearGradient id="bd" x1="432.35" x2="256.58" y1="357.68" y2="238.49" gradientUnits="userSpaceOnUse" xlink:href="#d"/> <linearGradient id="bb" x1="315.17" x2="326.27" gradientUnits="userSpaceOnUse" xlink:href="#y"/> <linearGradient id="az" x1="314.24" x2="345.49" y1="198.12" y2="203.84" gradientUnits="userSpaceOnUse" xlink:href="#z"/> <linearGradient id="ay" x1="328.29" x2="337.92" y1="183.59" y2="185.35" gradientUnits="userSpaceOnUse" xlink:href="#y"/> <linearGradient id="u" x2="0" y1="347" y2="481.3" gradientTransform="matrix(0 -.4247 .4247 0 236.67 559.68)" gradientUnits="userSpaceOnUse" xlink:href="#w"/> <linearGradient id="t" x1="383.57" x2="442.14" gradientUnits="userSpaceOnUse" xlink:href="#v"/> <linearGradient id="s" x2="0" y1="287.87" y2="293.54" gradientUnits="userSpaceOnUse" xlink:href="#b"/> <linearGradient id="r" x2="0" y1="296.44" y2="302.11" gradientUnits="userSpaceOnUse" xlink:href="#b"/> <linearGradient id="q" x2="0" y1="305.01" y2="310.68" gradientUnits="userSpaceOnUse" xlink:href="#b"/> <linearGradient id="p" x2="0" y1="313.58" y2="319.25" gradientUnits="userSpaceOnUse" xlink:href="#b"/> <linearGradient id="o" x2="0" y1="322.15" y2="327.83" gradientUnits="userSpaceOnUse" xlink:href="#b"/> <linearGradient id="n" x2="0" y1="330.72" y2="336.4" gradientUnits="userSpaceOnUse" xlink:href="#b"/> <linearGradient id="l" x1="395.93" x2="445.33" y1="606.35" y2="182.25" gradientTransform="matrix(1 0 0 .24886 2.1429 571.52)" gradientUnits="userSpaceOnUse" xlink:href="#x"/> <linearGradient id="k" x1="356.32" x2="412.75" y1="683.91" y2="673.16" gradientUnits="userSpaceOnUse" xlink:href="#d"/> <linearGradient id="j" x1="395.93" x2="445.33" y1="606.35" y2="182.25" gradientTransform="matrix(.28372 0 0 .07061 296.77 679.85)" gradientUnits="userSpaceOnUse" xlink:href="#v"/> <linearGradient id="ax" x1="320.54" x2="121.54" y1="378.24" y2="249.24" gradientUnits="userSpaceOnUse" xlink:href="#b"/> <linearGradient id="ac" x1="264.76" x2="281.77" gradientUnits="userSpaceOnUse" xlink:href="#d"/> <linearGradient id="av" x1="449.5" x2="448.56" y1="1427.4" y2="1328.4" gradientUnits="userSpaceOnUse" xlink:href="#h"/> <linearGradient id="au" x1="428.5" x2="430.5" y1="1545.4" y2="1446.9" gradientUnits="userSpaceOnUse" xlink:href="#i"/> <linearGradient id="at" x1="390.32" x2="471.14" gradientUnits="userSpaceOnUse" xlink:href="#g"/> <linearGradient id="as" x1="388.76" x2="468.27" gradientUnits="userSpaceOnUse" xlink:href="#f"/> <linearGradient id="ar" x1="357.46" x2="362.27" y1="1425.7" y2="1326.8" gradientUnits="userSpaceOnUse" xlink:href="#h"/> <linearGradient id="aq" x1="329.64" x2="337.36" y1="1542.3" y2="1444" gradientUnits="userSpaceOnUse" xlink:href="#i"/> <linearGradient id="ap" x1="291.03" x2="371.71" y1="1548.5" y2="1553.2" gradientUnits="userSpaceOnUse" xlink:href="#g"/> <linearGradient id="ao" x1="287.15" x2="366.52" y1="1588.5" y2="1593.1" gradientUnits="userSpaceOnUse" xlink:href="#f"/> <linearGradient id="an" x1="449.5" x2="448.56" y1="1427.4" y2="1328.4" gradientTransform="matrix(.9426 -.33394 .33394 .9426 -666.87 225.33)" gradientUnits="userSpaceOnUse" xlink:href="#h"/> <linearGradient id="am" x1="428.5" x2="430.5" y1="1545.4" y2="1446.9" gradientTransform="matrix(.9426 -.33394 .33394 .9426 -666.87 225.33)" gradientUnits="userSpaceOnUse" xlink:href="#i"/> <linearGradient id="al" x1="390.32" x2="471.14" gradientTransform="matrix(.9426 -.33394 .33394 .9426 -666.87 225.33)" gradientUnits="userSpaceOnUse" xlink:href="#g"/> <linearGradient id="ak" x1="388.76" x2="468.27" gradientTransform="matrix(.9426 -.33394 .33394 .9426 -666.87 225.33)" gradientUnits="userSpaceOnUse" xlink:href="#f"/> <linearGradient id="aj" x2="0" y1="347" y2="481.3" gradientUnits="userSpaceOnUse" xlink:href="#w"/> <linearGradient id="ai" x1="277.64" x2="326.04" y1="447.75" y2="359.87" gradientUnits="userSpaceOnUse" xlink:href="#x"/> <linearGradient id="ag" x2="0" y1="358.08" y2="410.34" gradientUnits="userSpaceOnUse" xlink:href="#b"/> </defs> <g transform="translate(-10.088 -14.526)"> <g transform="translate(-221.22)"> <path d="m317.19 287.17-85.863-60.104 31.82-22.223 88.893 81.822z" fill="url(#bj)"/> <g transform="translate(-15.657 -5.0508)"> <path d="m342.99 76.835h18.644v224.23h-18.644z" fill="url(#bi)"/> <path d="m333.35 68.474v224.25l10.102 8.5863v-223.75z" fill="url(#bh)"/> <path d="m371.74 68.474v224.25l-10.102 8.5863v-223.75z" fill="url(#bg)"/> <path d="m333.35 68.622s1.5542 9.849 19.572 9.849 18.814-9.849 18.814-9.849l-19.51-42.174z" fill="url(#bf)"/> <path d="m346.41 39.448s0.4791 3.036 6.033 3.036 5.7996-3.036 5.7996-3.036l-6.0139-13z" fill="url(#be)"/> </g> </g> <g transform="translate(-96.975 -133.34)"> <path d="m315.17 292.53-85.863-60.104 31.82-22.223 88.893 81.822z" fill="url(#bd)"/> <path d="m325.31 221.59h18.644v74.592h-18.644z" fill="url(#bc)"/> <path d="m315.67 218.81v74.601l10.102 2.8563v-74.433z" fill="url(#bb)"/> <path d="m354.06 218.81v74.601l-10.102 2.8563v-74.433z" fill="url(#ba)"/> <path d="m315.67 219.29s1.5542 9.849 19.572 9.849 18.814-9.849 18.814-9.849l-19.51-42.174z" fill="url(#az)"/> <path d="m328.73 190.11s0.4791 3.036 6.033 3.036 5.7996-3.036 5.7996-3.036l-6.0139-13z" fill="url(#ay)"/> </g> <path transform="translate(206.85 -108.96)" d="m477.14 292.36c0 6.7063-46.53 12.143-103.93 12.143s-103.93-5.4365-103.93-12.143 46.53-12.143 103.93-12.143 103.93 5.4365 103.93 12.143z" fill="#ff9430" filter="url(#bm)"/> <g transform="matrix(.63211 0 0 .63211 279.58 -121.51)"> <path d="m613.57 347.36h65s17.772 1.7204 17.857 67.143-17.857 67.857-17.857 67.857h-65z" fill="url(#aj)"/> <path d="m312.14 347.36-126.43 66.333 126.25 67.774 66.607-34.612-20-74.977z" fill="url(#ai)"/> <path d="m311.43 347.36h260v33.571h-232.86z" fill="#ffe230"/> <path d="m311.43 414.5h260v-33.571h-232.86z" fill="#ffd230"/> <path d="m311.43 414.5h260v33.571h-232.86z" fill="#ffb330"/> <path d="m311.43 481.65h260v-33.571h-232.86z" fill="#ff9430"/> <path d="m231.32 390.21-45.607 23.945 45.607 24.466z" fill="#ff9430"/> <path d="m231.07 399.35-45.354 14.613h45.354z" fill="#ffead6" opacity=".738"/> <path d="m569.29 347.36h55.714v135h-55.714z" fill="url(#ah)"/> <g transform="translate(-1.2627)" fill="#ff9430"> <path d="m579.89 347.36h7.732v135h-7.732z"/> <path d="m594.54 347.36h7.732v135h-7.732z"/> <path d="m609.19 347.36h7.732v135h-7.732z"/> </g> <path d="m346.86 359.51h263.69a15 15 0 0 1 15 15v25.714a15 15 0 0 1-15 15h-263.69a15 15 0 0 1-15-15v-25.714a15 15 0 0 1 15-15" fill="url(#ag)"/> </g> <g transform="matrix(.66103 .38164 -.38164 .66103 222.88 -310.52)"> <path d="m384.19 299.1v-27.606s0.7307-7.5476 28.516-7.5839 28.819 7.5839 28.819 7.5839v27.606z" fill="url(#u)"/> <path d="m383.57 332.36h58.571v312.86h-58.571z" fill="url(#t)"/> <path d="m383.28 329.5h59.148a3.283 3.283 0 0 1 3.283 3.283v2.0054a3.283 3.283 0 0 1-3.283 3.283h-59.148a3.283 3.283 0 0 1-3.283-3.283v-2.0054a3.283 3.283 0 0 1 3.283-3.283" fill="url(#a)"/> <path d="m383.28 320.93h59.148a3.283 3.283 0 0 1 3.283 3.283v2.0054a3.283 3.283 0 0 1-3.283 3.283h-59.148a3.283 3.283 0 0 1-3.283-3.283v-2.0054a3.283 3.283 0 0 1 3.283-3.283" fill="url(#a)"/> <path d="m383.28 312.36h59.148a3.283 3.283 0 0 1 3.283 3.283v2.0054a3.283 3.283 0 0 1-3.283 3.283h-59.148a3.283 3.283 0 0 1-3.283-3.283v-2.0054a3.283 3.283 0 0 1 3.283-3.283" fill="url(#a)"/> <path d="m383.28 303.79h59.148a3.283 3.283 0 0 1 3.283 3.283v2.0054a3.283 3.283 0 0 1-3.283 3.283h-59.148a3.283 3.283 0 0 1-3.283-3.283v-2.0054a3.283 3.283 0 0 1 3.283-3.283" fill="url(#a)"/> <path d="m383.28 295.22h59.148a3.283 3.283 0 0 1 3.283 3.283v2.0054a3.283 3.283 0 0 1-3.283 3.283h-59.148a3.283 3.283 0 0 1-3.283-3.283v-2.0054a3.283 3.283 0 0 1 3.283-3.283" fill="url(#a)"/> <path d="m383.28 286.65h59.148a3.283 3.283 0 0 1 3.283 3.283v2.0054a3.283 3.283 0 0 1-3.283 3.283h-59.148a3.283 3.283 0 0 1-3.283-3.283v-2.0054a3.283 3.283 0 0 1 3.283-3.283" fill="url(#a)"/> <path d="m383.72 287.87h58.278a2.3489 2.3489 0 0 1 2.3489 2.3489v1.4349a2.3489 2.3489 0 0 1-2.3489 2.3489h-58.278a2.3489 2.3489 0 0 1-2.3489-2.3489v-1.4349a2.3489 2.3489 0 0 1 2.3489-2.3489" fill="url(#s)"/> <path d="m383.72 296.44h58.278a2.3489 2.3489 0 0 1 2.3489 2.3489v1.4349a2.3489 2.3489 0 0 1-2.3489 2.3489h-58.278a2.3489 2.3489 0 0 1-2.3489-2.3489v-1.4349a2.3489 2.3489 0 0 1 2.3489-2.3489" fill="url(#r)"/> <path d="m383.72 305.01h58.278a2.3489 2.3489 0 0 1 2.3489 2.3489v1.4349a2.3489 2.3489 0 0 1-2.3489 2.3489h-58.278a2.3489 2.3489 0 0 1-2.3489-2.3489v-1.4349a2.3489 2.3489 0 0 1 2.3489-2.3489" fill="url(#q)"/> <path d="m383.72 313.58h58.278a2.3489 2.3489 0 0 1 2.3489 2.3489v1.4349a2.3489 2.3489 0 0 1-2.3489 2.3489h-58.278a2.3489 2.3489 0 0 1-2.3489-2.3489v-1.4349a2.3489 2.3489 0 0 1 2.3489-2.3489" fill="url(#p)"/> <path d="m383.72 322.15h58.278a2.3489 2.3489 0 0 1 2.3489 2.3489v1.4349a2.3489 2.3489 0 0 1-2.3489 2.3489h-58.278a2.3489 2.3489 0 0 1-2.3489-2.3489v-1.4349a2.3489 2.3489 0 0 1 2.3489-2.3489" fill="url(#o)"/> <path d="m383.72 330.72h58.278a2.3489 2.3489 0 0 1 2.3489 2.3489v1.4349a2.3489 2.3489 0 0 1-2.3489 2.3489h-58.278a2.3489 2.3489 0 0 1-2.3489-2.3489v-1.4349a2.3489 2.3489 0 0 1 2.3489-2.3489" fill="url(#n)"/> <path d="m383.28 286.66c-1.8188 0-3.2813 1.4625-3.2813 3.2813v2c0 1.8188 1.4625 3.2813 3.2813 3.2813-1.8188 0-3.2813 1.4625-3.2813 3.2813v2c0 1.8188 1.4625 3.2813 3.2813 3.2813-1.8188 0-3.2813 1.4625-3.2813 3.2813v2.0313c0 1.8188 1.4625 3.2813 3.2813 3.2813-1.8188 0-3.2813 1.4625-3.2813 3.2813v2c0 1.8188 1.4625 3.2813 3.2813 3.2813-1.8188 0-3.2813 1.4625-3.2813 3.2813v2c0 1.8188 1.4625 3.2813 3.2813 3.2813-1.8188 0-3.2813 1.4625-3.2813 3.2813v2c0 1.8188 1.4625 3.2813 3.2813 3.2813h59.156c1.8188 0 3.2813-1.4625 3.2813-3.2813v-2c0-1.8188-1.4625-3.2813-3.2813-3.2813 1.8188 0 3.2813-1.4625 3.2813-3.2813v-2c0-1.8188-1.4625-3.2813-3.2813-3.2813 1.8188 0 3.2813-1.4625 3.2813-3.2813v-2c0-1.8188-1.4625-3.2813-3.2813-3.2813 1.8188 0 3.2813-1.4625 3.2813-3.2813v-2.0313c0-1.8188-1.4625-3.2813-3.2813-3.2813 1.8188 0 3.2813-1.4625 3.2813-3.2813v-2c0-1.8188-1.4625-3.2813-3.2813-3.2813 1.8188 0 3.2813-1.4625 3.2813-3.2813v-2c0-1.8188-1.4625-3.2813-3.2813-3.2813h-59.156z" fill="url(#m)" opacity=".5"/> <path d="m383.57 644.99s8.8664-10.191 29.929-10 28.643 10 28.643 10l-28.643 77.857z" fill="url(#l)"/> <path d="m383.57 644.99s8.8664-10.191 29.929-10v87.857z" fill="url(#k)"/> <path d="m404.99 700.69s2.5155-2.8914 8.4912-2.8372 8.1265 2.8372 8.1265 2.8372l-8.1265 22.089z" fill="url(#j)"/> </g> <g transform="matrix(.38164 -.66103 -.66103 -.38164 540.55 874.08)"> <path d="m384.19 299.1v-27.606s0.7307-7.5476 28.516-7.5839 28.819 7.5839 28.819 7.5839v27.606z" fill="url(#u)"/> <path d="m383.57 332.36h58.571v312.86h-58.571z" fill="url(#t)"/> <path d="m383.28 329.5h59.148a3.283 3.283 0 0 1 3.283 3.283v2.0054a3.283 3.283 0 0 1-3.283 3.283h-59.148a3.283 3.283 0 0 1-3.283-3.283v-2.0054a3.283 3.283 0 0 1 3.283-3.283" fill="url(#a)"/> <path d="m383.28 320.93h59.148a3.283 3.283 0 0 1 3.283 3.283v2.0054a3.283 3.283 0 0 1-3.283 3.283h-59.148a3.283 3.283 0 0 1-3.283-3.283v-2.0054a3.283 3.283 0 0 1 3.283-3.283" fill="url(#a)"/> <path d="m383.28 312.36h59.148a3.283 3.283 0 0 1 3.283 3.283v2.0054a3.283 3.283 0 0 1-3.283 3.283h-59.148a3.283 3.283 0 0 1-3.283-3.283v-2.0054a3.283 3.283 0 0 1 3.283-3.283" fill="url(#a)"/> <path d="m383.28 303.79h59.148a3.283 3.283 0 0 1 3.283 3.283v2.0054a3.283 3.283 0 0 1-3.283 3.283h-59.148a3.283 3.283 0 0 1-3.283-3.283v-2.0054a3.283 3.283 0 0 1 3.283-3.283" fill="url(#a)"/> <path d="m383.28 295.22h59.148a3.283 3.283 0 0 1 3.283 3.283v2.0054a3.283 3.283 0 0 1-3.283 3.283h-59.148a3.283 3.283 0 0 1-3.283-3.283v-2.0054a3.283 3.283 0 0 1 3.283-3.283" fill="url(#a)"/> <path d="m383.28 286.65h59.148a3.283 3.283 0 0 1 3.283 3.283v2.0054a3.283 3.283 0 0 1-3.283 3.283h-59.148a3.283 3.283 0 0 1-3.283-3.283v-2.0054a3.283 3.283 0 0 1 3.283-3.283" fill="url(#a)"/> <path d="m383.72 287.87h58.278a2.3489 2.3489 0 0 1 2.3489 2.3489v1.4349a2.3489 2.3489 0 0 1-2.3489 2.3489h-58.278a2.3489 2.3489 0 0 1-2.3489-2.3489v-1.4349a2.3489 2.3489 0 0 1 2.3489-2.3489" fill="url(#s)"/> <path d="m383.72 296.44h58.278a2.3489 2.3489 0 0 1 2.3489 2.3489v1.4349a2.3489 2.3489 0 0 1-2.3489 2.3489h-58.278a2.3489 2.3489 0 0 1-2.3489-2.3489v-1.4349a2.3489 2.3489 0 0 1 2.3489-2.3489" fill="url(#r)"/> <path d="m383.72 305.01h58.278a2.3489 2.3489 0 0 1 2.3489 2.3489v1.4349a2.3489 2.3489 0 0 1-2.3489 2.3489h-58.278a2.3489 2.3489 0 0 1-2.3489-2.3489v-1.4349a2.3489 2.3489 0 0 1 2.3489-2.3489" fill="url(#q)"/> <path d="m383.72 313.58h58.278a2.3489 2.3489 0 0 1 2.3489 2.3489v1.4349a2.3489 2.3489 0 0 1-2.3489 2.3489h-58.278a2.3489 2.3489 0 0 1-2.3489-2.3489v-1.4349a2.3489 2.3489 0 0 1 2.3489-2.3489" fill="url(#p)"/> <path d="m383.72 322.15h58.278a2.3489 2.3489 0 0 1 2.3489 2.3489v1.4349a2.3489 2.3489 0 0 1-2.3489 2.3489h-58.278a2.3489 2.3489 0 0 1-2.3489-2.3489v-1.4349a2.3489 2.3489 0 0 1 2.3489-2.3489" fill="url(#o)"/> <path d="m383.72 330.72h58.278a2.3489 2.3489 0 0 1 2.3489 2.3489v1.4349a2.3489 2.3489 0 0 1-2.3489 2.3489h-58.278a2.3489 2.3489 0 0 1-2.3489-2.3489v-1.4349a2.3489 2.3489 0 0 1 2.3489-2.3489" fill="url(#n)"/> <path d="m383.28 286.66c-1.8188 0-3.2813 1.4625-3.2813 3.2813v2c0 1.8188 1.4625 3.2813 3.2813 3.2813-1.8188 0-3.2813 1.4625-3.2813 3.2813v2c0 1.8188 1.4625 3.2813 3.2813 3.2813-1.8188 0-3.2813 1.4625-3.2813 3.2813v2.0313c0 1.8188 1.4625 3.2813 3.2813 3.2813-1.8188 0-3.2813 1.4625-3.2813 3.2813v2c0 1.8188 1.4625 3.2813 3.2813 3.2813-1.8188 0-3.2813 1.4625-3.2813 3.2813v2c0 1.8188 1.4625 3.2813 3.2813 3.2813-1.8188 0-3.2813 1.4625-3.2813 3.2813v2c0 1.8188 1.4625 3.2813 3.2813 3.2813h59.156c1.8188 0 3.2813-1.4625 3.2813-3.2813v-2c0-1.8188-1.4625-3.2813-3.2813-3.2813 1.8188 0 3.2813-1.4625 3.2813-3.2813v-2c0-1.8188-1.4625-3.2813-3.2813-3.2813 1.8188 0 3.2813-1.4625 3.2813-3.2813v-2c0-1.8188-1.4625-3.2813-3.2813-3.2813 1.8188 0 3.2813-1.4625 3.2813-3.2813v-2.0313c0-1.8188-1.4625-3.2813-3.2813-3.2813 1.8188 0 3.2813-1.4625 3.2813-3.2813v-2c0-1.8188-1.4625-3.2813-3.2813-3.2813 1.8188 0 3.2813-1.4625 3.2813-3.2813v-2c0-1.8188-1.4625-3.2813-3.2813-3.2813h-59.156z" fill="url(#m)" opacity=".5"/> <path d="m383.57 644.99s8.8664-10.191 29.929-10 28.643 10 28.643 10l-28.643 77.857z" fill="url(#l)"/> <path d="m383.57 644.99s8.8664-10.191 29.929-10v87.857z" fill="url(#k)"/> <path d="m404.99 700.69s2.5155-2.8914 8.4912-2.8372 8.1265 2.8372 8.1265 2.8372l-8.1265 22.089z" fill="url(#j)"/> </g> <path d="m207.54 333.74 57-34 293 169-41 84-307-198z" fill="url(#ax)"/> <g transform="matrix(.70711 .70711 -.70711 .70711 517.77 -420.96)"> <path d="m212.5 914.36s-12.5 1-17-2-18-12-17-42.5 15-52 19.5-54 9-3.5 11.5-1 3 99.5 3 99.5z" fill="url(#af)"/> <path d="m412.95 811.46-2.6075 7.9197h-18.969v91.75h18.969l3.2262 5.4854 74.555-52.798z" fill="url(#ae)"/> <path d="m260.91 809.69c-7.6993 0-13.906 6.2265-13.906 13.95v2.5393c0 7.7237 6.2069 13.95 13.906 13.95h8.0938c-12.188 0-22 9.843-22 22.07v4.0126c0 12.227 9.812 22.07 22 22.07h-8.0938c-7.6993 0-13.906 6.1952-13.906 13.919v2.5393c0 7.7237 6.2069 13.95 13.906 13.95h145.19c7.6993 0 13.906-6.2265 13.906-13.95v-2.5393c0-7.7237-6.2069-13.919-13.906-13.919h-8.0938c12.188 0 22-9.843 22-22.07v-4.0126c0-12.227-9.812-22.07-22-22.07h8.0938c7.6993 0 13.906-6.2265 13.906-13.95v-2.5393c0-7.7237-6.2069-13.95-13.906-13.95h-145.19z" fill="url(#ad)"/> <path transform="matrix(1.4028 0 0 1 -106.64 0)" d="m274.35 809.69s-9.5625 3.249-9.5625 54.406 9.5625 54.594 9.5625 54.594h11.119s-9.5625-3.4364-9.5625-54.594 9.5625-54.406 9.5625-54.406z" fill="url(#ac)" filter="url(#bl)" opacity=".3"/> <path d="m211.05 809.69h67.529s-9.5459 3.2502-9.5459 54.408 9.5459 54.592 9.5459 54.592h-67.529s-10.253-11.324-10.253-54.592 10.253-54.408 10.253-54.408z" fill="url(#c)"/> <path d="m224.5 914.36s-12.5 1-17-2-18-12-17-42.5 15-52 19.5-54 9-3.5 11.5-1 3 99.5 3 99.5z" filter="url(#bk)" opacity=".3"/> <path d="m207.87 809.69h67.529s-9.5459 3.2502-9.5459 54.408 9.5459 54.592 9.5459 54.592h-67.529s-10.253-11.324-10.253-54.592 10.253-54.408 10.253-54.408z" fill="url(#c)"/> <path d="m209.3 809.69h67.529s-9.5459 3.2502-9.5459 54.408 9.5459 54.592 9.5459 54.592h-67.529s-10.253-11.324-10.253-54.592 10.253-54.408 10.253-54.408z" fill="url(#ab)"/> <g transform="translate(10)"> <path d="m252.03 809.69s-9.5625 3.249-9.5625 54.406 9.5625 54.594 9.5625 54.594h1.75s-9.5625-3.4365-9.5625-54.594 9.5625-54.406 9.5625-54.406h-1.75z" fill="url(#c)"/> <path d="m251.34 809.69s-9.5625 3.249-9.5625 54.406 9.5625 54.594 9.5625 54.594h1.75s-9.5625-3.4364-9.5625-54.594 9.5625-54.406 9.5625-54.406h-1.75z" fill="url(#e)"/> </g> <g transform="translate(-8.5)"> <path d="m252.03 809.69s-9.5625 3.249-9.5625 54.406 9.5625 54.594 9.5625 54.594h1.75s-9.5625-3.4365-9.5625-54.594 9.5625-54.406 9.5625-54.406h-1.75z" fill="url(#c)"/> <path d="m251.34 809.69s-9.5625 3.249-9.5625 54.406 9.5625 54.594 9.5625 54.594h1.75s-9.5625-3.4364-9.5625-54.594 9.5625-54.406 9.5625-54.406h-1.75z" fill="url(#e)"/> </g> <g transform="translate(-27.75)"> <path d="m252.03 809.69s-9.5625 3.249-9.5625 54.406 9.5625 54.594 9.5625 54.594h1.75s-9.5625-3.4365-9.5625-54.594 9.5625-54.406 9.5625-54.406h-1.75z" fill="url(#c)"/> <path d="m251.34 809.69s-9.5625 3.249-9.5625 54.406 9.5625 54.594 9.5625 54.594h1.75s-9.5625-3.4364-9.5625-54.594 9.5625-54.406 9.5625-54.406h-1.75z" fill="url(#e)"/> </g> <path d="m488.08 863.74-36.416 25.809 3.9775-7.8666-4.4194-4.773 4.773-15.291-2.3865-21.655z" fill="#f00"/> </g> <g transform="matrix(.57316 0 0 .57316 179.28 -456.01)"> <path d="m200.11 1634.3 19.092 10.607 72.832-50.558-2.4749-12.728-8.8388-11.667-12.374-7.4246-16.617-3.5355h-17.324l-12.728 2.4749-3.182 2.4748-17.324 58.69z" fill="#cca89d" stroke="#000"/> <path d="m203.5 1631.4-13.25 31.25 31.75-21.25s-7.75-12.5-18.5-10z" stroke="#000"/> <path d="m426.39 1270.2 16.264-2.8285 11.314 2.8285 16.971 5.6568 11.314 9.8995 9.1924 11.314-2.1213 7.0711-194.45 284.26-11.314-8.4853-6.364-9.1923-10.607-8.4853-12.021-1.4142-16.263-0.7071h-13.435v-5.6569l57.983-84.146 78.489-108.19 53.033-74.246z" fill="#c96400" stroke="#000"/> <path d="m428.62 1261.7 30.25-41.25 26.75 2 15.5 10.25 10.25 8.25 4.75 13.75-25.25 39-9.5-8-14.5-11.5-15.5-6.25-16.25-1.25z" fill="url(#aw)" stroke="#000"/> <path d="m463.86 1214.6 19.445-17.324 11.667-5.3033 7.7782 1.0606 12.728 0.7071 12.021 7.0711 8.1317 9.1924-3.182 22.627-10.253 16.617-7.4246-7.7781-8.4853-9.546-14.849-8.1317-12.728-3.182-13.435-0.7071z" fill="#fc64e3" stroke="#000"/> <path d="m247.13 1530.4s242.18-305.82 244.31-312.19-7.7782-14.849-25.456-2.8284-218.85 315.02-218.85 315.02z" fill="#fff" opacity=".445"/> <path d="m511.88 1198.5s8.625 14.125 10.25 20.25-0.25 25.5-0.25 27.25 5-1.75 5-1.75l4.625-7.25 5.125-15.5s-1.5-6.375-1.75-7.125-3.875-7.125-4.25-7.75-8.25-6.875-8.25-6.875l-9.375-5.25-0.375 4z" fill="#bd4baa"/> <path d="m292.74 1591.9 200.82-294.16s27.577-43.841 35.355-57.276c7.7782-13.435 9.9834-32.04-7.0711-42.426-21.817-13.287-44.548-2.8284-59.397 16.97s-243.24 346.48-243.24 346.48l-29.284 103.89s69.899-49.313 102.82-73.489z" fill="none" stroke="#000" stroke-width="9"/> <path d="m218.85 1562.2s53.387-21.92 73.186 29.345" fill="none" stroke="#000" stroke-width="9"/> <path d="m425.32 1269.4s41.012-14.142 67.175 30.759" fill="none" stroke="#000" stroke-width="9"/> <path d="m459.97 1221s42.073-10.253 59.043 31.466" fill="none" stroke="#000" stroke-width="9"/> <path d="m211.07 1627.2s19.445-50.912 50.558-53.387c-4.5962-7.4246-23.688-11.314-38.891-2.4748-5.3033 16.97-11.667 55.861-11.667 55.861z" fill="#fff" opacity=".44"/> <path d="m200.25 1636.4-5 19.5s11.25-14 16-15.75c-2.75-5.25-11-3.75-11-3.75z" fill="#fff" opacity=".44"/> </g> <g transform="matrix(.78183 0 0 .78183 336.73 -748.91)"> <path d="m386.75 1394.9s46-68.25 52.25-77.25 14.25-17.75 19.75 0.5 33 79.5 31.5 87.25-10.25 21-10.25 21l-28.5 14.75-27 0.75-30.25-14.25-5.75-21.5z" fill="#fee7a1" stroke="#000"/> <path d="m387.25 1393.1s46-68.25 52.25-77.25 13.75-16 19.25 2.25 33 79.5 31.5 87.25-10.25 21-10.25 21l-28.5 14.75-27 0.75-30.25-14.25-5.75-21.5z" fill="url(#av)" stroke="#000" stroke-width="6"/> <path d="m387 1393.9 3.5 135.5s16 15.5 39.25 16.25 42-15.5 42-15.5l18.25-127.75s-4.5 14-8.25 12.5-6.9764-17.091-11.75-17.25c-7.5-0.25-10.906 31.239-18 30.75-14.5-1-10.75-36.75-23.75-36.25-10.19 0.3919-17.25 24.25-25 21s-7.5-19.5-16.25-19.25z" fill="#3773bb" stroke="#f00"/> <path d="m387 1395.9 3.5 133.5s16 15.5 39.25 16.25 42-15.5 42-15.5l18.25-127.75s-4.5 14-8.25 12.5-6.9764-17.091-11.75-17.25c-7.5-0.25-10.906 31.239-18 30.75-14.5-1-10.75-36.75-23.75-36.25-10.19 0.3919-17.25 24.25-25 21s-7.5-17.5-16.25-17.25z" fill="url(#au)" stroke="#000" stroke-width="6"/> <path d="m413.75 1407.1 3 136.75" fill="none" stroke="#000" stroke-width="6"/> <path d="m456.35 1424.1s-8.3536 114.47-12.104 120.97" fill="none" stroke="#000" stroke-width="6"/> <path d="m429.21 1331.8s28.108 14.496 35.179 2.8285c-4.0659-11.314-6.5407-26.163-13.082-26.87s-22.097 24.042-22.097 24.042z" stroke="#000"/> <path d="m449.01 1310.3s-8.4853 7.9549-15.733 19.445c3.3588 2.6517 8.1317 3.8891 11.667 4.773s-3.0052-3.3588 4.0659-24.218z" fill="#fff" stroke="#000"/> <path d="m387.67 1530.7s-1.4142 8.4853 3.8891 14.142c-4.2426 4.7729-5.3033 17.147-3.5355 18.562-2.1213 4.0659-1.9446 4.4194-2.1213 9.546s-3.182 34.118 4.4194 40.659 35.355 9.1924 48.437 9.0156 21.567-8.6621 25.102-12.198c1.7678-6.5407 6.7175-39.068 5.4801-42.073s1.591-7.4247 0.8839-9.1924 2.2981-5.4801 1.2374-7.6014 1.2374-4.5962 0.5303-5.8337 3.5355-11.49 2.4749-13.788c-4.5962 1.2374-26.163 11.137-26.163 11.137l-20.86 2.6516-19.445-5.1265-15.91-9.1924z" stroke="#000"/> <path d="m393.15 1535.5s-1.2374 7.7782 0.3536 9.7227c-1.2374 1.9446-2.8284 6.1872-1.4142 8.3085-1.2374 2.1213-1.9445 4.0659-0.3535 5.3033-1.0607 3.0052-0.1768 7.955 8.3085 10.96s28.461 5.48 40.482 4.7729 25.633-9.1923 27.047-10.607c1.0607-2.1213 0.3535-3.3587 0.3535-3.3587s0.7071-5.6569 0.1768-6.5408c0-1.9445 1.2374-5.6568 0-6.0104 0.5303-1.4142 3.3588-10.783 2.2981-12.728-4.0659 2.1213-7.1018 4.3976-10.332 5.9231s-5.4703 1.8239-8.4372 2.4283-8.5429 1.2522-12.521 1.6642-7.4664 0.2879-11.844 0.061-9.3762-1.3873-14.142-2.7641-11.25-3.8203-14.319-5.5444-4.5962-4.0659-4.5962-4.0659z" fill="url(#at)" stroke="#000"/> <path d="m391.56 1544.2s20.506 16.617 76.721 4.2427" fill="none" stroke="#000" stroke-width="3"/> <path d="m391.21 1553.2s52.856 9.5459 76.898 1.2374" fill="none" stroke="#000" stroke-width="3"/> <path d="m391.21 1559.2s54.624 16.617 77.782 1.4141" fill="none" stroke="#000" stroke-width="3"/> <path d="m389.44 1569.3s-0.1768 25.986-0.1768 31.466 2.4749 10.96 6.8943 13.082 25.456 6.0104 37.653 6.1872 23.511-3.7124 26.693-11.137 7.6014-31.82 7.2478-36.593-5.6569-3.7123-10.783 0-24.572 5.3033-33.941 4.2427-22.451-4.2427-26.34-6.0104-7.2478-4.0659-7.2478-1.2375z" fill="url(#as)" stroke="#000"/> <path d="m296.71 1389.6s49.889-65.461 56.651-74.083 15.258-16.892 19.688 1.647 28.324 81.283 26.376 88.933-11.453 20.369-11.453 20.369l-29.309 13.069-26.998-0.8204-29.371-15.984-4.4908-21.798z" fill="#fee7a1" stroke="#000"/> <path d="m297.31 1387.9s49.889-65.461 56.651-74.083 14.657-15.174 19.087 3.3649 28.324 81.283 26.376 88.933-11.453 20.369-11.453 20.369l-29.309 13.069-26.998-0.8204-29.371-15.984-4.4908-21.798z" fill="url(#ar)" stroke="#000" stroke-width="6"/> <path d="m297.01 1388.6-4.3804 135.47s15.072 16.404 38.239 18.504 42.83-13.033 42.83-13.033l25.643-126.47s-5.306 13.715-8.9625 11.999-5.9714-17.468-10.728-17.904c-7.4728-0.6854-12.703 30.553-19.757 29.652-14.417-1.841-8.5961-37.313-21.603-37.569-10.196-0.201-18.63 23.206-26.178 19.512s-6.3541-19.903-15.104-20.162z" fill="#fd0" stroke="#f00"/> <path d="m296.9 1390.6-4.2642 133.48s15.072 16.404 38.239 18.504 42.83-13.033 42.83-13.033l25.643-126.47s-5.306 13.715-8.9625 11.999-5.9714-17.468-10.728-17.904c-7.4728-0.6854-12.703 30.553-19.757 29.652-14.417-1.841-8.5961-37.313-21.603-37.569-10.196-0.201-18.63 23.206-26.178 19.512s-6.4703-17.906-15.22-18.165z" fill="url(#aq)" stroke="#000" stroke-width="6"/> <path d="m364.49 1422.8s-14.992 113.8-19.114 120.07" fill="none" stroke="#000" stroke-width="6"/> <path d="m342.76 1329.1s27.218 16.105 34.955 4.8681c-3.4015-11.531-5.0092-26.499-11.498-27.585s-23.457 22.717-23.457 22.717z" stroke="#000"/> <path d="m363.78 1308.8s-8.9332 7.4484-16.837 18.498c3.199 2.8425 7.892 4.3551 11.37 5.443s-2.8049-3.5278 5.4664-23.941z" fill="#fff" stroke="#000"/> <path d="m289.73 1525.3s-1.9049 8.3888 3.0606 14.344c-4.5128 4.5183-6.2908 16.81-4.6083 18.325-2.354 3.9357-2.1981 4.2989-2.6725 9.4066s-5.1593 33.875 2.0491 40.847 34.761 11.232 47.831 11.815 22.034-7.3942 25.769-10.718c2.1449-6.4269 8.9765-38.611 7.9159-41.683s2.0198-7.3197 1.4166-9.1255 2.6127-5.3373 1.6771-7.5167 1.5025-4.5165 0.8685-5.793 4.1973-11.266 3.272-13.621c-4.6603 0.9682-26.766 9.5977-26.766 9.5977l-20.978 1.4348-19.115-6.2479-15.349-10.101z" stroke="#000"/> <path d="m294.92 1530.3s-1.6874 7.6932-0.2121 9.7268c-1.3484 1.8694-3.1832 6.0124-1.8947 8.2123-1.3586 2.0458-2.1776 3.946-0.6612 5.2738-1.2335 2.9385-0.6388 7.9313 7.6575 11.424s28.094 7.1248 40.136 7.1175 26.124-7.6872 27.618-9.0169c1.1821-2.0561 0.5481-3.3325 0.5481-3.3325s1.0347-5.6062 0.5566-6.5195c0.113-1.9412 1.5641-5.5753 0.3493-6.0002 0.6116-1.381 3.9798-10.57 3.0339-12.573-4.1823 1.8814-7.3454 3.9774-10.658 5.3127s-5.5671 1.5029-8.564 1.9338-8.6013 0.7536-12.596 0.9338-7.4705-0.1465-11.828-0.6274-9.2798-1.9299-13.958-3.5813-11.009-4.4677-13.972-6.3672-4.3521-4.3261-4.3521-4.3261z" fill="url(#ap)" stroke="#000"/> <path d="m292.83 1538.9s19.506 17.781 76.345 8.6942" fill="none" stroke="#000" stroke-width="3"/> <path d="m291.96 1547.9s52.212 12.602 76.696 5.7043" fill="none" stroke="#000" stroke-width="3"/> <path d="m291.61 1553.9s53.566 19.763 77.568 5.932" fill="none" stroke="#000" stroke-width="3"/> <path d="m289.26 1563.8s-1.6867 25.932-2.0051 31.403 1.8338 11.085 6.1224 13.46 25.064 7.4796 37.23 8.365 23.687-2.3398 27.295-9.5669 9.4377-31.324 9.3622-36.11-5.4316-4.0347-10.765-0.6266-24.839 3.8663-34.13 2.263-22.166-5.5402-25.946-7.531-6.9993-4.4802-7.1637-1.6566z" fill="url(#ao)" stroke="#000"/> <path d="m322.95 1403.4-4.9523 136.69" fill="none" stroke="#000" stroke-width="6"/> <path d="m163.48 1411s20.568-79.693 23.454-90.264 7.5046-21.49 18.783-6.1239 57.654 63.916 58.828 71.722-2.649 23.217-2.649 23.217l-21.938 23.42-25.2 9.7232-33.272-3.3305-12.6-18.346z" fill="#fee7a1" stroke="#000"/> <path d="m163.36 1409.2s20.568-79.693 23.454-90.264 7.6177-19.673 18.896-4.3074 57.654 63.916 58.828 71.722-2.649 23.217-2.649 23.217l-21.938 23.42-25.2 9.7232-33.272-3.3305-12.6-18.346z" fill="url(#an)" stroke="#000" stroke-width="6"/> <path d="m163.38 1409.9 48.547 126.55s20.258 9.2673 42.423 2.2103 34.413-28.636 34.413-28.636l-25.458-126.51s0.4334 14.699-3.6022 14.537-12.283-13.78-16.836-12.336c-7.1529 2.2688 0.1518 33.088-6.6982 34.996-14.002 3.8995-22.405-31.051-34.492-26.238-9.4747 3.7724-8.1618 28.618-16.552 28.143s-13.581-15.876-21.745-12.718z" fill="#f00" stroke="#f00"/> <path d="m164.05 1411.8 47.879 124.67s20.258 9.2673 42.423 2.2103 34.413-28.636 34.413-28.636l-25.458-126.51s0.4334 14.699-3.6022 14.537-12.283-13.78-16.836-12.336c-7.1529 2.2688 0.1518 33.088-6.6982 34.996-14.002 3.8995-22.405-31.051-34.492-26.238-9.4747 3.7724-8.1618 28.618-16.552 28.143s-12.913-13.991-21.078-10.833z" fill="url(#am)" stroke="#000" stroke-width="6"/> <path d="m193.02 1413.5 48.493 127.9" fill="none" stroke="#000" stroke-width="6"/> <path d="m238.86 1415.3s30.353 110.69 28.989 118.07" fill="none" stroke="#000" stroke-width="6"/> <path d="m182.46 1337.4s31.335 4.2776 34.104-9.0812c-7.6105-9.3065-14.902-22.477-21.303-20.959s-12.8 30.04-12.8 30.04z" stroke="#000"/> <path d="m193.92 1310.5s-5.3418 10.332-8.3365 23.583c4.0515 1.3779 8.9636 0.9504 12.591 0.6029s-3.9543-2.1625-4.2549-24.186z" fill="#fff" stroke="#000"/> <path d="m209.71 1538.7s1.5005 8.4705 8.3884 12.032c-2.4053 5.9157 0.7272 17.934 2.8658 18.677-0.6418 4.5409-0.3571 4.8151 1.1882 9.7064s8.3939 33.222 17.743 36.849 36.396-3.1417 48.667-7.6767 17.436-15.367 19.588-19.88c-0.5179-6.7555-6.7142-39.068-8.8841-41.488s-0.9797-7.5298-2.2365-8.9599 0.3362-5.9329-1.372-7.5783-0.3684-4.7455-1.4482-5.6759-0.5045-12.011-2.2717-13.823c-3.9191 2.7012-20.942 19.234-20.942 19.234l-18.777 9.4652-20.041 1.6613-18.066-3.3519z" stroke="#000"/> <path d="m216.47 1541.4s1.431 7.745 3.58 9.0465c-0.517 2.2462-0.5999 6.7766 1.4415 8.3039-0.458 2.4127-0.4752 4.4818 1.4377 5.1169 4e-3 3.1869 2.4898 7.5574 11.492 7.5565s28.657-4.3387 39.752-9.0194 21.092-17.224 21.952-19.03c0.2914-2.3537-0.7883-3.284-0.7883-3.284s-1.2225-5.5683-2.0176-6.2243c-0.6493-1.8329-0.7226-5.7453-2.0071-5.6654 0.0276-1.5101-0.435-11.286-2.0841-12.765-3.1241 3.3573-5.2256 6.5167-7.7605 9.0332s-4.5473 3.5459-7.1419 5.1063-7.6344 4.0331-11.246 5.7498-6.9417 2.7647-11.144 4.0127-9.3013 1.8234-14.253 2.1171-11.88 0.1557-15.348-0.4445-5.6901-2.2977-5.6901-2.2977z" fill="url(#al)" stroke="#000"/> <path d="m217.87 1550.1s24.878 8.8155 73.734-21.621" fill="none" stroke="#000" stroke-width="3"/> <path d="m220.54 1558.7s53.01-8.6526 72.897-24.512" fill="none" stroke="#000" stroke-width="3"/> <path d="m222.55 1564.4s57.037-2.5779 73.789-24.641" fill="none" stroke="#000" stroke-width="3"/> <path d="m224.25 1574.5s8.5111 24.554 10.341 29.719 5.9928 9.5045 10.867 10.028 26.002-2.8353 37.558-6.7418 20.922-11.351 21.442-19.412-3.4607-32.532-5.3878-36.913-6.5718-1.6101-10.164 3.601-21.39 13.204-30.576 15.333-22.579 3.4979-26.835 3.1303-8.1895-1.4121-7.245 1.2539z" fill="url(#ak)" stroke="#000"/> </g> </g> </svg>