<?xml version='1.0' encoding='utf-8'?>
<svg xmlns="http://www.w3.org/2000/svg" width="6e3pt" height="4e3pt" version="1.0" viewBox="0 0 6e3 4e3"> <g transform="translate(0 4e3) scale(.1 -.1)"> <path d="m14804 39913c-4-49-7-180-7-293 3-612 129-886 386-841 66 12 183 65 337 156 143 83 184 74 244-55l26-55v-833-833l723 3c708 3 723 3 757 24 19 11 37 28 38 39 2 10-21 68-52 129-177 350-106 590 214 725 203 87 534 129 920 118 451-13 744-89 899-233 161-149 173-344 39-625-51-109-51-110-32-130 45-44 115-49 816-49h657l3 858c3 805 4 860 21 907 22 60 60 102 97 110 38 8 108-20 236-97 138-83 195-112 263-132 212-63 331 68 388 425 15 92 18 174 18 424 0 171-3 318-7 328-7 16-183 17-3492 17h-3484l-8-87z" fill="#87be3e"/> <path d="m22036 39928c11-205 12-284 4-456-28-590-180-903-462-952-112-20-223 4-397 86-51 24-102 44-111 44-24 0-46-57-59-154-7-48-11-309-11-696v-619l858-3c813-3 860-4 910-22 32-12 65-33 84-54 43-50 37-103-27-214-125-216-147-257-165-306-28-75-27-175 3-223 87-142 351-209 822-209 508 0 772 77 830 240 32 92-12 219-153 440-50 78-92 170-92 202 0 30 40 82 79 103 15 7 61 20 103 29 67 14 188 16 898 16h820v624c0 636-5 748-38 815-32 64-43 65-176 11-255-104-444-89-588 44-186 174-264 500-256 1064l4 262h-1442-1442l4-72z" fill="#26a9e1"/> <path d="m32284 39973c3-16 9-125 12-243 11-344-21-639-92-851-41-125-86-205-156-276-148-150-334-161-605-33-58 27-112 50-120 50s-24-21-36-47c-22-48-22-52-25-740l-3-693 873-2 873-3 52-29c69-38 90-80 72-143-6-24-43-97-82-161-91-153-122-216-142-287-22-74-15-154 17-201 54-80 189-139 393-171 159-26 691-26 851 0 197 31 329 90 382 170 23 35 27 51 26 111-1 94-22 147-140 342-52 87-99 176-105 199-17 60 9 101 86 140l60 30 1740 10v675c0 717-2 749-47 798-28 29-40 28-136-13-128-56-231-78-337-72-132 6-192 32-282 122-121 120-191 296-230 579-18 131-25 557-10 694l7 72h-1451-1451l6-27z" fill="#ed297b"/> <path d="m35466 39938c-24-242-16-582 20-787 31-184 94-315 177-369 37-24 52-27 122-27 97 0 164 25 328 122 121 72 166 93 198 93s94-70 118-135c21-55 21-68 21-880v-825h679c420 0 699 4 732 10 34 7 63 20 78 35l25 24-56 108c-77 149-100 226-101 338 0 127 25 189 112 276 118 118 322 197 596 230 149 19 691 19 840 0 312-38 541-136 647-276 57-75 73-132 72-250-1-113-15-162-92-328-45-97-45-98-26-117 39-40 94-43 791-47l672-4 3 868c4 955 1 916 66 980 57 57 113 44 297-69 165-102 263-141 349-140 64 1 94 12 141 53 73 65 133 238 155 448 11 114 14 535 4 654l-7 77h-3477-3477l-7-62z" fill="#7f3f96"/> <path d="m45704 39988c-4-6-9-129-12-272-14-836 173-1099 601-851 34 20 89 52 122 72 92 54 126 64 161 47s68-64 95-133c18-49 19-83 19-871v-820h696c472 0 709 4 739 11 24 6 54 22 66 35l23 24-57 113c-63 126-83 184-95 275-45 335 244 530 848 572 545 38 1020-35 1230-188 201-147 227-371 79-666-47-94-49-116-11-138 57-33 159-38 816-38h646v848c0 915-1 904 53 983 48 71 100 63 279-44 151-91 217-123 285-141 80-21 122-20 175 3 100 42 165 166 205 386 17 93 29 587 18 720l-7 85h-3483c-2679 0-3486-3-3491-12z" fill="#fedd14"/> <path d="m48945 37964c-16-2-73-9-125-14-248-27-401-94-458-200-20-39-23-55-19-115 6-87 39-163 148-337 82-130 100-179 80-216-16-30-92-72-170-94-61-17-122-18-884-18h-818l3-707c3-685 4-709 23-748 11-22 28-41 38-43s61 19 115 46c155 79 219 97 342 97 93 0 112-4 163-27 106-50 200-168 261-329 32-85 71-274 87-419 16-143 16-571 0-705-57-488-196-734-444-785-111-22-255 9-419 91-99 50-112 49-131 0-31-77-37-202-37-818v-612l858-3c814-3 860-4 910-22 69-25 112-73 112-124 0-46-23-95-105-232-103-170-128-231-133-320-3-59 0-84 13-110 76-147 346-220 821-220 608 0 889 115 844 347-16 85-46 150-148 315-107 174-123 234-75 283 85 84 98 85 1054 85h820l-3 673c-4 736-6 755-63 804-25 22-27 22-63 7-199-88-330-116-452-97-245 38-392 251-457 667-23 143-26 687-4 836 46 328 151 516 322 581 54 20 80 24 169 23 61-1 149-11 210-23 58-12 139-24 181-28 69-5 78-4 97 15 12 12 29 47 39 79 17 53 18 113 18 738v680l-835 5c-823 5-836 5-891 27-121 46-163 94-138 156 7 17 44 81 81 140 114 181 148 263 148 356 0 178-182 276-575 311-102 9-442 11-510 4z" fill="#ed297b"/> <path d="m7755 37944c-206-23-327-60-410-122-105-80-123-192-53-342 19-42 66-125 105-186 115-181 119-214 25-270-108-65-95-64-997-64h-816l3-707c3-685 4-709 23-748 13-25 28-41 42-43 11-2 59 17 105 42 143 77 226 101 348 100 95 0 110-2 164-29 217-107 331-399 355-912 12-244-1-516-33-703-65-379-204-581-428-620-111-20-255 13-420 96-88 44-102 44-121-5-31-77-37-202-37-818v-613h811c949 0 977-2 1044-82 40-47 32-100-30-209-173-302-185-330-185-432 0-171 179-265 565-298 157-13 566-7 679 11 256 39 394 110 431 221 30 89 1 182-120 384-135 226-145 259-99 315 35 41 65 55 156 74 67 14 188 16 898 16h820v638c-1 663-6 759-44 817-30 46-43 46-171-6-262-104-442-89-587 49-123 117-193 281-234 555-24 159-30 586-10 774 39 369 143 574 327 644 84 31 217 31 379-1 63-12 151-23 195-24l80-1 22 45c13 25 27 77 33 115 5 41 10 337 10 713v642h-811c-880 0-869-1-980 55-48 25-89 67-89 92 0 20 35 85 103 193 166 261 181 415 50 515-89 68-244 112-472 135-141 14-480 11-626-6z" fill="#5373bc"/> <path d="m38740 37954c-312-27-477-74-564-159-99-98-89-218 36-421 120-196 130-214 135-252 7-53-27-92-114-128l-68-29-848-3-848-2 3-708c3-674 4-709 22-744 11-20 26-40 33-42 8-3 47 12 87 34 189 104 361 135 505 91 63-19 81-30 142-90 114-112 182-282 225-561 21-138 30-591 15-765-30-363-106-593-240-726-90-89-149-113-286-113-122 0-192 18-334 85-118 56-121 55-148-25-16-46-18-119-21-723l-3-672 1736-6 52-23c67-31 84-51 90-106 6-54-16-106-112-266-144-238-164-346-84-443 40-49 87-78 176-110 271-98 927-100 1236-4 71 22 154 76 183 119 70 100 45 207-101 443-128 208-142 262-80 321 76 71 42 69 1003 72l863 3-6 1354-24 58c-33 82-48 87-148 43-217-96-429-101-565-15-170 109-266 337-309 738-16 147-6 615 15 749 49 304 150 484 301 541 101 38 191 38 428 1l208-33 27 20c16 11 35 42 47 74 19 52 20 84 23 742l3 687h-824c-797 0-827 1-888 20-83 26-140 59-158 92-20 36-5 85 59 182 121 186 170 296 170 383-1 156-144 250-455 298-96 15-495 28-595 19z" fill="#69bc76"/> <path d="m18105 37934c-341-26-505-73-595-170-88-95-75-223 42-413 166-270 165-266 112-320-29-28-60-45-119-64l-80-27h-823-822l-2-637c-3-746-2-765 22-820 24-54 48-56 133-9 97 54 205 93 292 106 241 35 410-100 508-405 93-289 114-849 47-1242-84-487-304-689-653-598-32 8-107 38-168 67-124 58-132 58-158-8-14-34-16-131-19-731l-3-693 873-2 873-3 52-29c69-38 90-80 72-143-6-24-43-97-82-161-91-153-122-216-142-287-59-202 69-318 406-372 160-25 703-25 859 0 198 32 325 89 378 170 23 35 27 51 26 111-1 93-22 147-138 339-51 86-99 176-106 201-18 64 5 101 85 141l60 30 1740 10 3 653c2 706-1 767-50 819-28 30-42 29-125-8-37-17-111-42-163-56-119-32-241-29-335 7-82 31-188 137-238 236-106 211-154 512-144 909 13 529 107 800 313 901 85 41 209 44 421 9 89-14 183-25 209-23 42 3 51 7 70 35 40 60 44 127 44 821v662h-824-825l-73 26c-83 30-135 65-149 100-11 30 11 77 98 211 151 234 175 363 90 474-62 81-229 145-437 169-100 11-470 21-555 14z" fill="#7f3f96"/> <path d="m28405 37930c-358-23-553-93-622-223-25-47-22-138 9-212 13-33 51-103 83-155 31-52 73-120 92-151 18-31 36-73 40-92 5-32 1-41-28-70-19-19-61-45-94-58l-60-24-847-3-848-2v-693c0-439 4-705 10-729 6-20 19-47 29-59l18-23 114 57c272 136 480 129 627-20 105-108 180-313 219-593 24-177 24-673 0-850-53-385-163-604-345-688-45-20-77-27-148-30-116-5-218 19-360 87-97 46-103 48-119 32-40-45-45-125-45-803v-647l858-3c805-3 860-4 907-21 99-37 131-95 101-184-9-26-46-97-82-158-88-146-120-211-140-283-53-190 83-305 427-359 163-25 645-25 807 0 193 30 307 74 374 144 93 97 78 203-64 436-105 173-128 222-128 278 0 59 33 92 121 122 64 22 70 22 917 25l853 3-3 687c-3 679-3 688-25 734-29 63-52 74-100 49-72-36-211-80-290-91-306-41-498 133-586 530-46 207-64 487-48 764 22 367 80 575 197 705 107 119 275 144 569 85 44-9 111-17 149-18 68-1 70 0 92 32 42 61 44 102 44 807v675h-828c-915 0-872-3-985 64-82 47-77 91 27 255 114 181 156 278 156 360-1 113-121 217-306 265-154 40-505 62-739 46z" fill="#fedd14"/> <path d="m51840 36158v-823l-27-80c-19-59-36-90-64-119-47-47-62-45-169 21-41 25-107 66-146 89-261 160-435 115-519-134-65-192-90-534-64-877 33-452 159-645 388-595 76 16 144 48 283 131 74 45 132 73 158 76 37 5 44 3 78-34 21-22 48-65 60-97l22-58v-824-825l708 3c634 3 711 5 744 20 62 28 64 45 13 140-152 285-148 485 12 644 137 135 401 211 816 236 138 8 238 8 380 0 447-27 710-108 853-266 73-80 97-145 98-261 0-114-19-189-86-328-61-126-60-132 28-161 56-19 91-20 729-20l670-1 5 870c5 864 5 870 26 916 29 61 66 89 117 89 44 0 102-27 244-113 143-87 225-120 313-124 70-4 78-3 123 26 118 76 177 271 196 642 10 193-1 471-25 621-38 242-118 370-245 393-74 14-210-38-368-139-102-66-206-116-240-116-42 0-86 42-113 108l-23 57-10 1730h-670c-709 0-743-2-800-47-33-26-32-41 10-138 57-133 78-230 72-335-6-112-17-148-69-225-72-108-206-190-398-244-146-40-284-57-536-63-417-10-701 33-904 138-281 145-341 396-180 746l39 83-22 26c-49 57-68 58-819 62l-688 3v-823z" fill="#f36559"/> <path d="m410 36128v-823l-26-78c-26-79-69-141-104-152-26-8-86 20-190 88l-85 56-3-385c-1-212-1-556 0-765l3-379 103 61c61 36 119 63 142 66 37 5 44 2 79-35 22-23 49-66 60-97 21-55 21-68 21-881v-825l708 3c634 3 711 5 744 20 62 28 64 45 13 140-151 283-147 487 11 643 139 136 400 212 818 237 141 8 238 8 385 0 442-27 704-109 847-266 74-82 97-144 98-266 0-115-16-176-87-323-60-126-59-132 29-161 56-19 90-20 729-21h670l5 870c5 864 5 870 26 916 29 61 66 89 117 89 44 0 102-27 244-113 143-87 225-120 313-124 70-4 78-3 123 26 117 76 177 268 197 638 15 293-13 640-65 794-66 192-168 257-327 209-75-23-103-37-249-126-123-75-204-114-237-114-42 0-81 35-111 99l-26 56-10 1740h-670c-709 0-743-2-800-47-33-26-32-41 10-138 200-467-5-758-595-846-58-8-209-18-336-21-417-10-701 33-904 138-281 145-341 396-180 746l39 83-22 26c-49 57-68 58-819 62l-688 3v-823z" fill="#ed297b"/> <path d="m10727 36944c-4-4-7-377-7-828v-821l-25-75c-14-42-39-92-56-113-49-60-79-54-235 44s-202 122-279 144c-158 46-268-34-335-243-92-285-89-924 5-1201 52-153 124-230 232-246 62-10 180 34 338 126 120 70 148 83 196 87 55 4 56 3 88-34 17-22 40-63 51-92 19-51 20-80 20-878v-825l713 3c650 3 715 4 743 20 17 10 34 23 37 31 3 7-22 67-54 132-76 154-92 219-87 349 3 92 7 107 38 164 128 240 546 358 1195 339 473-15 762-90 923-241 152-143 160-374 21-650-36-71-39-80-24-96 39-43 56-44 773-47l682-4v835c0 573 3 852 11 888 21 100 71 158 136 158 33 0 137-48 235-108 169-104 294-151 366-137 160 30 245 223 273 625 12 169 6 440-12 580-26 204-85 359-160 424-98 84-224 55-484-110-212-135-289-126-348 39-8 23-13 281-17 897l-5 865h-670-670l-56-23c-31-12-64-31-74-43-18-19-18-22 15-97 97-224 106-430 25-567-98-168-348-279-708-315-170-18-671-8-797 15-383 70-583 213-621 443-21 124 13 287 92 445l29 57-24 24c-13 14-48 33-77 42-49 17-113 19-729 22-372 2-679 0-683-4z" fill="#f0466a"/> <path d="m31270 36131c0-802 0-820-21-887-24-81-62-149-89-164-42-22-76-10-203 69-243 153-346 187-445 145-111-46-184-194-224-454-17-113-17-644 0-755 43-279 118-421 247-470 40-16 55-17 101-7 81 17 158 51 294 132 100 60 134 74 175 78 45 4 53 1 79-24 16-16 41-54 55-84l26-55 3-832 2-833h693c420 0 706 4 726 10 19 5 44 19 57 31l22 21-52 101c-79 156-91 200-91 347 0 119 2 128 30 183 90 178 314 280 720 329 177 21 635 16 820-9 230-32 418-93 525-171 201-147 229-385 79-686-21-43-39-85-39-93s21-24 48-36c47-22 51-22 734-25l688-3 2 868 3 868 23 52c34 73 54 88 116 87 57-1 88-14 238-106 249-151 368-172 467-83 119 108 170 341 171 776 0 444-43 663-155 787-45 50-89 66-169 60-75-6-137-34-304-135-158-95-197-113-247-113-55 0-77 18-111 92l-29 63-10 1740-620 3c-648 3-744-2-817-39-53-27-55-50-15-145 162-377 67-640-278-774-44-17-147-45-230-62l-150-32-360-1c-355 0-362 0-498 28-356 72-538 199-586 408-27 115 0 276 71 429 46 101 45 120-14 149-76 36-161 41-820 41h-638v-819z" fill="#87be3e"/> <path d="m41568 36113c-3-837-3-838-25-897-24-63-63-120-92-136-29-15-70 2-215 93-177 111-253 140-349 135-57-3-80-9-110-30-52-35-93-94-127-181-106-276-106-979 1-1272 40-109 84-166 154-200 49-24 64-27 119-22 78 7 148 33 251 93 144 84 226 124 252 124 37 0 96-66 122-135 21-55 21-68 21-881v-825l708 3c757 3 750 3 792 53 13 16 10 26-33 106-290 539-9 837 830 880 256 13 525-1 720-37 243-44 386-106 494-214 89-88 113-149 113-280 0-115-16-176-87-323-57-121-57-133 6-154 82-27 218-33 814-33h612l3 868c4 950 1 912 64 979 55 59 119 43 322-81 150-91 216-118 303-123 63-5 82-2 116 15 69 36 128 123 159 239 39 149 46 218 51 515 6 329-4 474-42 624-39 152-86 229-168 270-43 22-60 26-107 21-76-8-163-46-307-133-142-86-218-124-252-124-40 0-87 45-113 107l-23 58-3 868-3 867h-655c-559 0-665-2-724-16-74-16-120-45-120-73 0-9 16-55 36-101 68-162 90-306 63-429-6-27-27-78-48-113-138-230-527-342-1131-325-239 6-394 26-540 69-173 50-290 120-363 217-64 86-82 144-81 266 0 111 23 198 88 335 40 86 36 110-23 134-84 33-153 36-813 36h-658l-2-837z" fill="#26a9e1"/> <path d="m21010 36101c0-786-1-821-20-882-24-78-71-155-100-164-38-12-78 6-233 107-23 16-82 48-132 73-196 98-326 64-410-109-42-87-61-156-81-306-44-334-21-780 51-1e3 70-211 195-282 383-215 42 15 138 63 214 107 75 43 152 82 172 85 33 5 40 2 75-35 22-23 49-66 60-97 21-55 21-68 21-880v-825h679c420 0 699 4 732 10 34 7 63 20 78 35l25 24-56 108c-76 145-102 235-101 343 0 122 27 185 112 271 85 85 209 148 371 188 183 46 301 56 645 56 342 0 463-10 640-55 210-52 346-127 427-235 57-75 73-132 72-250-1-113-16-166-91-328-78-166-105-160 770-165l667-3v847c0 948-1 932 67 1e3 58 58 114 45 298-68 111-68 163-95 235-120 60-21 150-25 191-9 71 27 138 121 172 241 41 144 49 223 54 508 6 318-5 482-42 627-31 123-54 174-105 229s-92 70-179 63c-80-6-150-36-316-137-143-88-190-109-232-110-45 0-87 40-115 108l-23 57-6 1726-1404-6-42-23c-58-30-62-54-25-138 59-135 75-194 80-305 5-122-9-179-63-264-150-234-593-349-1213-315-624 34-928 234-898 591 7 81 46 210 90 297 38 76 33 101-29 132l-50 25-707 3-708 3v-820z" fill="#f58347"/> <path d="m43825 32824c-446-35-647-155-607-361 15-72 49-142 151-306 44-71 83-142 86-157 14-63-45-116-174-154-48-14-150-16-878-16h-823l-2-632c-3-734-2-750 18-805 26-72 30-72 166-4 148 73 242 96 366 88 197-12 329-148 411-424 100-339 106-993 11-1372-55-217-166-390-285-441-147-63-325-45-526 55-50 25-95 45-101 45-5 0-19-21-31-47-22-48-22-52-25-735l-3-687 863-3c820-3 865-4 908-22 25-10 59-32 75-48 25-24 30-36 29-76-1-53-17-88-123-266-91-152-114-213-115-296-1-89 23-133 101-186 105-71 238-105 493-124 342-26 694 2 873 69 87 33 133 64 174 118 25 33 28 45 28 112-1 66-5 86-36 151-20 41-68 128-108 193-87 143-101 173-101 230 0 55 29 87 109 119l56 23 1730 10 3 605c3 643-2 743-40 819-34 67-45 70-125 34-229-105-444-111-588-16-152 100-258 344-295 678-13 122-14 577 0 706 33 323 124 532 266 615 60 35 174 57 259 50 39-3 147-18 242-33 200-31 213-29 244 42 34 77 39 196 37 835l-3 615-1690 10-65 28c-87 39-120 70-120 117 0 29 19 68 89 180 99 157 140 248 148 327 5 43 1 62-21 107-53 109-176 170-421 212-88 14-517 27-630 18z" fill="#7f3f96"/> <path d="m54135 32789c-357-19-560-91-627-222-17-34-20-54-16-116 6-94 33-155 147-338 45-72 84-146 87-165 7-43-18-71-105-112l-66-31-1700-10v-715c0-678 1-717 19-753 28-56 49-56 158 1 147 75 224 97 343 97 93 0 105-2 167-33 173-85 277-298 330-672 21-150 18-713-5-860-56-361-161-568-333-655-56-28-66-30-174-30-131 1-179 14-339 92-109 54-117 52-146-28-19-52-20-85-23-736l-3-683h833c709 0 843-3 897-15 113-27 161-75 147-147-3-18-31-78-62-133-161-286-192-365-180-450 27-180 266-269 751-282 520-13 837 56 919 201 62 109 39 197-121 467-117 197-125 231-69 284 25 24 57 38 114 54 77 21 93 21 916 21h837l-3 683c-3 603-6 688-20 731-17 48-52 96-72 96-6 0-60-20-121-45-246-99-422-92-573 23-45 34-115 135-153 219-44 96-85 267-105 435-20 178-15 625 9 783 55 352 174 526 388 565 73 14 134 9 338-26 194-32 223-32 254 5 51 61 52 83 52 821v685l-829 2c-803 3-832 3-890 23-109 36-165 85-152 133 3 12 38 74 77 137 125 200 159 280 159 378 0 66-18 109-64 156-68 67-185 114-354 142-83 13-408 36-472 32-14 0-88-4-165-9z" fill="#87be3e"/> <path d="m23245 32784c-272-31-406-68-499-139-43-32-86-116-86-165 0-82 47-191 155-361 35-56 72-122 81-146 16-42 16-45-3-71-26-35-82-67-162-92-61-19-91-20-882-20h-820l3-718c3-673 4-720 21-745 10-16 25-31 34-34 10-4 54 13 107 40 158 81 226 101 346 101 99 1 109-1 172-32 175-86 285-307 334-672 22-159 25-641 5-805-48-406-161-635-356-727-63-29-79-32-160-32-108 0-194 24-339 96-96 47-100 48-118 30-43-43-48-118-48-809v-653h823c870 0 912-2 991-47 17-10 39-36 50-57 23-47 13-88-46-191-23-38-63-107-89-152-60-102-99-210-99-271 1-212 275-311 855-312 499 0 780 83 825 246 27 96-6 192-144 418-83 136-109 199-97 242 11 44 67 81 155 104 76 19 109 20 908 20h828v663c0 700-2 735-47 803-21 33-57 29-175-20-120-51-213-69-316-63-359 21-541 445-518 1207 20 700 200 961 616 897 58-9 144-24 193-32 120-22 174-17 200 16 44 60 47 104 47 817v672h-811c-706 0-819 2-872 16-73 19-131 47-163 79-41 41-33 74 57 218 99 158 135 234 150 311 47 255-236 379-856 375-121-1-233-4-250-5z" fill="#48b1aa"/> <path d="m2715 32754c-341-26-505-73-595-170-92-100-76-221 57-438 153-248 150-241 97-295-29-28-60-45-119-64l-80-27h-823-822l-2-637c-3-746-2-765 22-820 24-54 48-56 133-9 97 54 205 93 292 106 241 35 410-100 508-405 93-289 114-849 47-1242-84-487-304-689-653-598-32 8-107 38-168 67-124 58-132 58-158-8-14-34-16-131-19-731l-3-693 873-2 873-3 52-29c69-38 90-80 72-143-6-24-43-97-82-161-91-153-122-216-142-287-22-74-15-154 17-201 54-80 189-139 393-171 156-25 701-25 855 0 198 32 324 88 377 168 24 37 28 52 27 113-1 93-22 147-138 339-51 86-99 176-106 201-18 64 5 101 85 141l60 30 1740 10 3 653c2 706-1 767-50 819-28 30-40 29-136-12-183-80-355-96-487-45-82 31-188 137-238 236-106 211-154 513-144 909 14 531 107 800 313 901 85 41 209 44 421 9 89-14 183-25 209-23 42 3 51 7 70 35 40 60 44 127 44 821v662h-822-823l-77 27c-81 28-142 69-151 102-6 26 26 95 98 206 153 236 178 365 92 476-62 81-229 145-437 169-100 11-470 21-555 14z" fill="#f36559"/> <path d="m13015 32753c-316-16-530-83-609-192-29-40-31-49-31-125 1-72 5-90 36-156 20-41 63-118 96-170 78-123 103-173 103-206 0-42-57-88-147-118l-78-26h-828-828l3-707c4-895-11-840 199-738 144 70 220 91 329 89 131-2 226-52 307-159 59-78 84-129 121-245 117-368 117-1081 0-1450-130-411-389-518-785-323-53 26-99 43-108 39-9-3-22-21-30-41-30-69-36-226-33-830l3-600 870-5c820-5 872-6 913-24 57-25 92-68 92-114 0-45-27-103-110-242-97-161-122-223-127-311-5-63-2-82 15-116 48-93 178-156 396-190 157-25 712-25 865 0 131 21 258 65 315 108 136 103 123 230-52 514-70 114-112 203-112 237 0 38 41 81 102 109l53 24 1740 10v680c0 654-1 682-20 735-13 36-29 59-46 69-24 14-33 12-125-26-144-59-227-76-332-70-48 3-104 10-124 16-58 18-159 91-201 146-87 112-157 311-188 535-19 129-19 670-1 800 35 250 108 432 207 519 107 94 240 111 512 66 195-32 248-31 275 6 43 58 48 151 46 839l-3 645-1670 10-69 27c-68 26-121 66-131 99-8 23 22 91 72 166 63 92 119 193 142 256 22 61 28 157 11 201-14 39-77 102-127 131-53 29-180 69-268 84-139 24-428 35-640 24z" fill="#87be3e"/> <path d="m33515 32743c-330-30-510-97-573-213-20-39-23-55-19-115 6-87 39-163 148-337 82-130 100-179 80-216-16-30-92-72-170-94-61-17-122-18-884-18h-818l3-707c3-685 4-709 23-748 11-22 28-41 38-43s61 19 115 46c155 79 219 97 342 97 93 0 112-4 163-28 123-57 235-216 286-407 111-407 101-1102-20-1448-79-225-196-348-362-382-111-22-255 9-419 91-99 50-112 49-131 0-31-77-37-202-37-818v-612l858-3c814-3 860-4 910-22 69-25 112-73 112-124 0-46-23-95-106-233-99-166-126-231-132-320-5-85 5-114 60-168 108-107 367-161 774-161 526 0 806 85 842 256 21 98-11 187-146 406-107 174-123 234-75 283 85 84 98 85 1054 85h820l-3 673c-4 736-6 755-63 804-25 22-27 22-63 7-203-89-330-116-459-96-238 37-385 254-450 666-23 143-26 687-4 836 45 320 147 509 309 576 60 25 78 28 177 27 70 0 148-9 215-22 58-12 139-24 181-28 69-5 78-4 97 15 12 12 29 47 39 79 17 53 18 113 18 738v680l-1670 10-59 23c-69 26-123 64-138 98-14 31-1 61 84 197 114 181 148 263 148 356 0 70-40 144-98 185-133 92-396 138-772 134-102-1-203-3-225-5z" fill="#5373bc"/> <path d="m0 29360v-2480h90 90v835c0 572 3 851 11 887 21 100 71 158 136 158 33 0 137-48 235-108 169-104 294-151 366-137 160 30 245 223 273 625 12 169 6 440-12 580-26 204-85 359-160 424-98 84-224 55-484-110-212-135-289-126-348 39-8 23-13 281-17 897l-5 865-87 3-88 3v-2481z" fill="#87be3e"/> <path d="m46670 30998v-823l-25-75c-31-93-75-150-114-150-18 0-76 30-157 81-156 98-202 122-279 144-171 50-287-29-355-243-93-287-90-943 5-1221 57-170 137-245 260-245 86 0 169 32 330 125 104 61 152 83 186 86 43 5 47 3 78-33 17-22 40-63 51-92 19-51 20-80 20-878v-825l723 3c900 4 842-12 737 200-76 155-93 223-88 343 3 79 8 98 38 153 128 240 546 358 1190 338 902-27 1206-314 927-873-45-91-45-106 6-131 57-28 162-32 795-32h652v835c0 865 2 903 42 976 21 38 64 69 95 69 24 0 139-55 225-108 104-64 217-118 276-132 230-54 349 139 383 620 12 171 6 462-12 600-32 251-112 421-216 461-42 16-139 10-195-11-55-21-169-83-298-163-93-57-155-76-198-58-36 15-75 83-91 159-8 36-11 315-11 887v835h-685c-654 0-687-1-736-19-60-23-89-47-89-73 0-10 17-60 39-111 156-369 57-620-294-752-326-123-979-137-1355-28-324 93-478 284-440 545 13 89 46 190 92 282 37 73 30 97-40 129-47 22-50 22-759 25l-713 3v-823z" fill="#f36559"/> <path d="m36370 30982c0-787-1-832-19-884-64-188-105-198-298-76-239 152-340 184-438 139-102-46-173-179-210-394-36-210-38-601-5-841 15-102 54-237 88-301 63-116 158-168 266-145 60 12 179 69 326 155 150 88 203 77 264-55l26-55v-832-833h693c439 0 705 4 729 10 20 6 47 19 59 29l24 19-58 113c-74 148-101 253-95 369 15 264 235 412 708 477 175 24 671 24 851 0 372-50 594-159 681-334 28-56 33-79 36-158 5-117-19-219-87-361-46-97-48-103-32-119 45-40 125-45 803-45h647l3 858c3 805 4 860 21 907 37 99 95 131 184 101 26-9 98-46 158-82 218-132 319-168 403-145 62 16 106 52 142 114 73 127 108 312 117 622 14 495-54 811-193 905-32 21-49 25-113 25-90-1-140-22-326-135-152-92-190-110-242-110-57 0-96 36-126 115l-22 60-6 1716-687-3c-680-3-688-3-734-25-68-31-72-45-37-128 48-110 69-183 79-271 22-201-41-344-198-447-191-126-465-180-902-180-318 1-517 26-706 92-162 55-284 152-339 266-25 52-30 75-33 166-5 129 16 222 79 360l43 92-27 23c-62 53-74 54-814 54h-683v-828z" fill="#7151a4"/> <path d="m15830 30961c0-802 0-820-21-887-24-81-62-149-89-164-42-22-76-10-203 69-243 153-346 187-445 145-111-46-184-194-224-454-17-113-17-644 0-755 43-279 118-421 247-470 40-16 55-17 101-7 81 17 158 51 294 132 100 60 134 74 175 78 45 4 53 1 79-24 16-16 41-54 55-84l26-55 3-832 2-833h693c420 0 706 4 726 10 19 5 44 19 57 31l22 21-52 101c-79 156-91 200-91 347 0 119 2 128 30 183 90 178 314 280 720 329 177 21 635 16 820-9 230-32 418-93 525-171 201-147 229-385 79-686-21-43-39-85-39-93s21-24 48-36c47-22 51-22 734-25l688-3 2 868 3 868 23 52c34 73 54 88 116 87 57-1 88-14 238-106 249-151 368-172 467-83 119 108 170 341 171 776 0 444-43 663-155 787-45 50-89 66-169 60-75-6-137-34-304-135-158-95-197-113-247-113-55 0-77 18-111 92l-29 63-10 1740-620 3c-648 3-744-2-817-39-53-27-55-50-15-145 162-377 67-640-278-774-44-17-147-45-230-62l-150-32-360-1c-355 0-362 0-498 28-356 72-538 199-586 408-27 115 0 276 71 429 46 101 45 120-14 149-76 36-161 41-820 41h-638v-819z" fill="#69bc76"/> <path d="m26128 30943c-3-837-3-838-25-897-25-67-65-123-97-138-30-13-66 3-186 81-52 34-133 81-180 104-81 40-90 42-175 42-82 0-94-3-130-27-52-36-98-105-130-195-102-293-99-970 6-1258 40-109 84-166 154-200 49-24 64-27 119-22 78 7 148 33 251 93 144 84 226 124 252 124 37 0 96-66 122-135 21-55 21-68 21-881v-825l708 3c757 3 750 3 792 53 13 16 10 26-33 106-88 163-125 310-107 421 44 279 347 427 938 459 346 19 724-17 932-88 278-94 414-256 397-473-8-99-28-163-90-293-57-121-57-133 6-154 82-27 218-33 814-33h612l3 868c4 950 1 912 64 979 55 59 119 43 322-81 154-93 215-118 307-123 76-4 82-3 128 26 141 91 199 331 198 820-1 417-40 630-138 759-30 40-113 82-161 82-62 0-186-51-319-131-151-91-228-129-262-129-40 0-87 45-113 107l-23 58-3 868-3 867h-655c-702 0-758-3-819-51-32-26-32-42 5-127 66-155 84-238 78-357-12-229-151-365-466-456-174-51-292-62-622-63-332 0-456 12-640 65-225 66-358 166-421 319-19 45-23 73-23 160 0 117 22 201 88 339 41 85 36 111-23 135-84 33-153 36-813 36h-658l-2-837z" fill="#26a9e1"/> <path d="m57050 30951c0-786-1-821-20-882-26-85-72-157-106-165-32-8-83 15-203 93-299 195-463 189-566-21-42-87-61-156-81-306-44-336-21-780 52-1003 69-210 194-279 382-212 72 26 105 43 279 144 39 23 88 45 108 48 32 5 39 2 74-35 22-23 49-66 60-97 21-55 21-68 21-880v-825h679c420 0 699 4 732 10 34 7 63 20 78 35l25 24-56 108c-77 149-100 226-101 338 0 128 25 189 112 275 116 116 304 191 566 227 134 19 629 25 813 10l102-9v1462c0 1387-1 1461-17 1456-90-28-581-38-773-17-406 46-650 172-731 378-19 47-23 77-23 163 0 89 4 118 28 190 16 47 42 111 58 143 39 79 35 105-22 137l-45 25-712 3-713 3v-820z" fill="#26a9e1"/> <path d="m5620 30921c0-786-1-821-20-882-24-78-71-155-100-164-38-12-78 6-233 107-23 16-82 48-132 73-196 98-326 64-410-109-42-87-61-156-80-306-34-253-29-600 11-838 31-185 94-315 177-369 37-25 52-28 122-28 97 0 164 25 328 122 121 72 166 93 198 93s94-70 118-135c21-55 21-68 21-880v-825h679c420 0 699 4 732 10 34 7 63 20 78 35l25 24-56 108c-76 145-102 235-101 343 0 122 27 185 112 271 128 127 334 202 652 234 199 21 647 16 822-9 297-42 507-135 609-271 57-75 73-132 72-250-1-113-16-166-91-328-78-166-105-160 770-165l667-3v847c0 948-1 932 67 1e3 58 58 114 45 298-68 144-89 214-120 305-138 134-26 241 65 293 250 42 146 50 222 54 517 6 324-4 470-42 620-31 121-54 172-105 227s-92 70-179 63c-80-6-150-36-316-137-143-88-190-109-232-110-45 0-87 40-115 108l-23 57-6 1726-1404-6-42-23c-58-30-62-54-25-138 59-135 75-194 80-305 3-85 1-117-13-160-75-228-311-358-745-410-123-14-549-14-665 0-459 58-694 198-745 446-24 115 9 286 84 433 38 76 33 101-29 132l-50 25-707 3-708 3v-820z" fill="#fedd14"/> <path d="m59285 27634c-272-31-406-68-499-139-43-32-86-116-86-165 0-82 47-191 155-361 35-56 72-122 81-146 16-42 16-45-3-71-26-35-82-67-162-92-61-19-91-20-882-20h-820l3-718c3-673 4-720 21-745 10-16 25-31 34-34s59 16 117 45c154 78 222 97 341 97 87 0 107-3 157-27 184-86 292-299 344-678 24-174 25-662 1-840-59-441-203-677-443-721-109-20-236 8-407 92-168 81-160 120-164-748l-4-683h823c681 0 835-3 892-15 86-18 126-41 150-86 18-32 18-41 6-82-7-26-42-95-77-154-155-258-189-369-144-468 65-144 289-212 741-222 222-5 443 5 517 23l23 6v3464c0 1905-1 3464-2 3464-2 0-57 7-123 15-107 13-496 19-590 9z" fill="#ed297b"/> <path d="m38675 27624c-341-26-505-73-595-170-88-95-75-223 42-413 166-270 165-266 112-320-29-28-60-45-119-64l-80-27h-823-822l-2-637c-3-746-2-765 22-820 24-54 48-56 133-9 277 155 509 147 658-22 86-98 163-299 194-505 63-429 39-928-59-1234-41-126-87-208-158-280-148-150-334-161-605-33-58 27-112 50-120 50s-24-21-36-47c-22-48-22-52-25-740l-3-692 1746-6 52-29c69-38 90-80 72-143-6-24-43-97-82-161-91-153-122-216-142-287-59-200 65-315 400-372 154-25 707-26 865 0 198 32 324 89 377 168 24 37 28 52 27 113-1 93-22 147-138 339-51 86-99 176-106 201-11 40-10 49 7 78 12 21 40 44 78 63l59 30 1741 10 3 653c2 706-1 767-50 819-28 30-40 29-136-12-183-80-355-96-487-45-82 31-188 137-238 236-106 211-154 513-144 909 14 531 107 800 313 901 85 41 209 44 421 9 89-14 183-25 209-23 42 3 51 7 70 35 40 60 44 127 44 821v662h-822-823l-77 27c-81 28-142 69-151 102-6 26 26 95 98 206 153 236 178 365 92 476-62 81-229 145-437 169-100 11-470 21-555 14z" fill="#26a9e1"/> <path d="m48975 27620c-358-23-553-93-622-223-25-47-22-138 9-212 13-33 51-103 83-155 31-52 73-120 92-151 18-31 36-73 40-92 5-32 1-41-28-70-19-19-61-45-94-58l-60-24-847-3-848-2v-693c0-439 4-705 10-729 6-20 19-47 29-59l18-23 114 57c272 136 480 129 627-20 69-71 142-221 176-363 48-197 60-328 60-655 0-228-4-330-17-425-53-385-163-604-345-688-45-20-77-27-148-30-116-5-218 19-360 87-97 46-103 48-119 32-40-45-45-125-45-803v-647l858-3c805-3 860-4 907-21 99-37 131-95 101-184-9-26-46-97-82-158-88-146-120-211-140-283-53-190 83-305 427-359 163-25 645-25 807 0 193 30 307 74 374 144 93 97 78 203-64 436-105 173-128 222-128 278 0 59 33 92 121 122 64 22 70 22 917 25l853 3-3 687c-3 679-3 688-25 734-29 63-52 74-100 49-72-36-211-80-290-91-306-41-498 133-586 530-46 207-64 487-48 764 22 367 80 575 197 705 107 119 275 144 569 85 44-9 111-17 149-18 68-1 70 0 92 32 42 61 44 102 44 807v675h-828c-915 0-872-3-985 64-82 47-77 91 27 255 114 181 156 278 156 360-1 113-121 217-306 265-154 40-505 62-739 46z" fill="#7151a4"/> <path d="m28375 27614c-446-35-647-155-607-361 15-72 49-142 151-306 44-71 83-142 86-157 14-63-45-116-174-154-48-14-150-16-878-16h-823l-2-632c-3-734-2-750 18-805 26-72 30-72 166-4 148 73 242 96 366 88 197-12 329-148 411-424 100-339 106-993 11-1372-55-217-166-390-285-441-147-63-325-45-526 55-50 25-95 45-101 45-5 0-19-21-31-47-22-48-22-52-25-735l-3-687 863-3c820-3 865-4 908-22 25-10 59-32 75-48 25-24 30-36 29-76-1-53-17-88-123-266-91-152-114-213-115-296-1-89 23-133 101-186 105-71 238-105 493-124 342-26 694 2 873 69 87 33 133 64 174 118 25 33 28 45 28 112-1 66-5 86-36 151-20 41-68 128-108 193-87 143-101 173-101 230 0 55 29 87 109 119l56 23 1730 10 3 605c3 643-2 743-40 819-34 67-45 70-125 34-229-105-444-111-588-16-152 100-258 344-295 678-13 122-14 577 0 706 33 323 124 532 266 615 60 35 174 57 259 50 39-3 147-18 242-33 200-31 213-29 244 42 34 77 39 196 37 835l-3 615-1690 10-65 28c-87 39-120 70-120 117 0 29 19 68 89 180 99 157 140 248 148 327 5 43 1 62-21 107-53 109-176 170-421 212-88 14-517 27-630 18z" fill="#69bc76"/> <path d="m7777 27595c-208-26-337-66-421-130-43-32-86-116-86-165 0-82 47-191 155-361 35-56 72-122 81-146 16-42 16-45-3-71-26-35-82-67-162-92-61-19-91-20-882-20h-820l3-718c3-673 4-720 21-745 10-16 25-31 34-34s60 16 117 45c162 81 214 96 336 96 99 1 109-1 172-32 175-86 284-306 334-672 24-174 25-662 1-840-59-441-204-677-443-721-107-20-240 11-408 93-167 81-159 118-163-749l-4-683h823c871 0 913-2 992-47 17-10 39-36 50-57 23-47 13-88-46-191-23-38-63-107-89-152-60-102-99-210-99-271 1-211 275-312 850-312 504 0 785 83 830 246 27 96-6 192-144 418-83 136-109 199-97 242 11 44 67 81 155 104 76 19 109 20 908 20h828v654c0 663-3 727-38 795-26 49-49 54-113 24-30-13-94-39-144-56-80-27-103-31-205-31-114-1-117 0-192 37-260 128-383 524-364 1167 9 303 44 505 115 654 47 100 102 163 178 203 110 59 212 64 433 21 58-11 140-21 184-22 74-1 80 1 98 25 45 60 48 103 48 816v673l-832 2c-925 3-879 0-985 71-42 28-48 37-51 71-3 33 7 55 78 167 137 218 174 320 150 420-30 125-158 197-430 245-130 23-601 28-753 9z" fill="#f0466a"/> <path d="m18155 27574c-317-16-512-64-615-151-40-33-80-115-80-163 0-87 50-202 158-369 30-47 64-105 74-129 28-63 13-87-87-137l-80-40-847-3-848-2-2-638c-3-749-2-774 22-829 22-51 47-60 97-35 21 11 71 36 111 56 210 105 403 101 539-10 174-143 274-523 273-1039-1-495-89-851-250-1015-64-66-92-82-180-105-119-31-260-5-434 81-49 24-98 44-107 44-24 0-44-41-58-115-7-38-11-283-11-717v-657l863-3c941-4 909-2 975-63 64-58 57-83-111-376-161-281-123-425 133-515 273-95 986-94 1254 2 93 33 144 69 185 129 32 48 33 53 29 125-6 89-38 166-143 335-83 133-104 180-105 223 0 48 15 69 68 96 90 45 108 46 988 46h835l-3 698-3 697-25 49c-34 68-49 75-107 52-215-84-242-91-368-91-114 0-124 2-186 31-169 80-277 274-333 594-39 228-44 600-11 856 43 326 146 519 313 585 76 31 230 31 392 1 261-48 276-45 310 64 19 64 20 90 20 755v689l-842 2-843 3-65 28c-79 35-120 71-120 106 0 14 22 62 49 106s67 109 89 145c58 95 92 183 99 255 5 56 2 71-21 119-15 29-41 65-59 79-91 69-243 119-419 136-109 11-413 20-513 15z" fill="#fedd14"/> <path d="m51870 25811c0-802 0-820-21-887-24-81-62-149-89-164-42-22-76-10-203 69-243 153-346 187-445 145-111-46-184-194-224-454-17-113-17-644 0-755 43-279 118-421 247-470 40-16 55-17 101-7 81 17 158 51 294 132 100 60 134 74 175 78 45 4 53 1 79-24 16-16 41-54 55-84l26-55 3-832 2-833h693c420 0 706 4 726 10 19 5 44 19 57 31l22 21-52 101c-79 156-91 200-91 347 0 119 2 128 30 183 90 178 314 280 720 329 177 21 635 16 820-9 230-32 418-93 525-171 201-147 229-385 79-686-21-43-39-85-39-93s21-24 48-36c47-22 51-22 734-25l688-3 2 868 3 868 23 52c34 73 54 88 116 87 57-1 88-14 238-106 249-151 368-172 467-83 119 108 170 341 171 776 0 444-43 663-155 787-45 50-89 66-169 60-75-6-137-34-304-135-158-95-197-113-247-113-55 0-77 18-111 92l-29 63-10 1740-620 3c-648 3-744-2-817-39-53-27-55-50-15-145 162-377 67-640-278-774-44-17-147-45-230-62l-150-32-360-1c-355 0-362 0-498 28-356 72-538 199-586 408-27 115 0 276 71 429 46 101 45 120-14 149-76 36-161 41-820 41h-638v-819z" fill="#7f3f96"/> <path d="m41570 25790c0-809-1-832-20-891-28-81-64-137-95-145-35-9-67 5-185 80-278 177-420 199-530 80-121-131-166-382-157-866 6-343 31-491 104-631 99-188 251-204 508-55 224 129 241 135 289 97 15-12 39-44 54-72l27-52 10-1690 660-3c381-1 689 2 729 7 72 10 118 35 124 66 2 10-21 68-52 129-68 136-90 216-90 321 0 98 13 146 60 216 102 153 320 244 694 290 139 18 582 18 725 1 699-84 920-355 685-841-29-60-48-111-45-121 6-19 34-33 105-51 31-8 249-13 712-16l667-5 3 859c3 798 5 862 22 912 24 73 63 111 113 111 48 0 94-21 246-112 158-94 243-127 325-128 163-1 251 126 299 432 14 90 18 176 18 418 0 329-9 433-51 578-41 141-93 219-169 253-100 46-219 11-437-128-159-101-237-125-280-86-41 37-72 122-82 223-3 25-5 406-5 848l-1 802h-667c-697 0-745-3-807-44-39-25-41-53-8-126 38-83 79-219 87-291 15-136-36-272-138-364-148-134-381-203-766-227-204-12-482-1-646 27-112 20-272 68-345 105-277 140-340 382-189 725 22 52 39 102 37 111-5 27-51 55-114 70-47 11-196 14-741 14h-683v-830z" fill="#5373bc"/> <path d="m20920 25788v-823l-27-80c-19-59-36-90-64-119-47-47-62-45-169 21-41 25-107 66-146 89-358 219-543 60-584-502-32-453 18-847 128-1005 52-74 107-104 192-104 90 0 156 23 290 101 228 133 242 137 301 75 20-22 47-65 58-96 21-55 21-68 21-881v-825l708 3c634 3 711 5 744 20 62 28 64 45 13 140-152 285-148 485 12 644 137 135 401 211 816 236 138 8 238 8 380 0 447-27 710-108 853-266 75-82 98-145 98-266 0-115-17-177-87-323-60-126-59-132 29-161 56-19 90-20 729-21h670l5 870c5 864 5 870 26 916 28 60 66 89 115 89s67-8 224-101c191-113 243-133 341-134 72 0 85 3 123 28 112 74 172 274 190 638 10 190 0 452-24 611-37 247-117 380-246 403-74 14-210-38-368-139-102-66-206-116-239-116-42 0-81 35-111 99l-26 56-10 1740h-670c-709 0-743-2-800-47-32-25-32-41 6-129 180-420 50-690-391-813-146-40-284-57-536-63-418-10-701 33-905 138-280 145-340 396-179 746l39 83-22 26c-49 57-68 58-819 62l-688 3v-823z" fill="#87be3e"/> <path d="m31230 25798c0-864 0-851-49-963-41-93-79-116-144-87-23 10-80 43-127 74-176 113-261 149-351 151-235 2-340-297-326-931 3-136 10-278 16-317 43-275 126-425 252-455 97-23 193 5 370 110 153 90 183 103 226 95 40-7 82-60 113-141 20-53 20-75 20-875v-820l708 3 707 3 43 23c27 14 42 29 42 42 0 10-22 61-48 112-198 386-102 640 293 775 180 61 557 100 860 88 452-17 742-97 894-244 158-153 166-358 27-635-24-48-42-94-39-101 8-22 83-46 173-56 47-5 358-9 692-9h607l3 858 3 857 23 56c12 32 35 69 50 84 24 24 33 27 79 23 42-4 75-18 170-74 207-121 286-156 362-162 84-6 127 8 176 55 109 106 165 373 165 784 0 409-48 656-150 772-57 65-121 85-211 66-75-16-136-44-274-129-143-87-211-120-247-120-45 0-92 50-119 127l-24 68-6 1706-677-3c-606-3-682-6-728-21-64-21-88-47-81-84 3-15 22-71 42-122 104-267 80-451-78-597-162-150-429-221-874-231-411-10-676 30-890 135-277 135-347 399-193 731 23 49 40 97 38 107-5 29-74 61-155 73-48 7-301 11-718 11h-645v-812z" fill="#48b1aa"/> <path d="m428 25763-3-838-32-74c-43-99-67-124-114-118-20 3-50 14-65 25-25 17-166 105-201 126-10 6-13-153-13-779v-786l50 28c27 15 83 47 125 71 118 68 157 59 216-49l34-64 3-837 2-838 703 1c749 1 763 1 799 50l19 25-55 105c-60 115-82 178-97 286-12 84 6 181 46 249 35 59 127 140 204 179 75 38 235 89 329 105 210 37 598 51 832 30 530-48 798-193 840-457 18-112-8-230-86-389-24-49-44-99-44-110s12-27 28-36c57-33 159-38 816-38h646v853c0 753 2 860 16 907 20 67 69 120 112 120 33 0 140-52 296-144 213-126 349-137 440-36 113 125 156 346 156 794 0 265-17 438-55 571-34 115-69 178-124 224-44 36-45 36-135 36-86-1-95-3-171-41-44-22-132-72-195-111-122-74-165-93-212-93-43 0-84 48-108 127-19 63-20 92-20 914v850l-702-3c-752-3-741-2-791-52-25-25-21-53 18-143 190-438 15-716-513-817-473-90-1108-34-1354 120-162 102-236 237-226 408 6 95 36 201 84 299 50 102 46 120-36 163-33 18-74 19-747 22l-713 3-2-838z" fill="#ed297b"/> <path d="m10738 25763c-3-837-3-838-25-897-25-67-65-123-97-138-29-13-69 4-170 70-181 121-278 162-377 163-59 1-76-3-114-28-133-82-198-304-211-718-10-302 19-580 77-740 40-109 84-166 154-200 49-24 64-27 119-22 78 7 148 33 251 93 144 84 226 124 252 124 37 0 96-66 122-135 21-55 21-68 21-880v-825h680c717 0 759 2 808 45l27 24-48 91c-179 336-142 569 114 721 205 122 637 185 1102 160 255-14 427-44 587-103 164-60 286-162 331-276 19-45 23-76 23-152 0-115-16-176-87-323-57-121-57-133 6-154 82-27 218-33 814-33h612l3 868c4 950 1 912 64 979 55 59 119 43 322-81 150-91 216-118 303-123 63-5 82-2 116 15 92 48 148 157 189 372 22 115 31 633 14 798-20 193-62 334-127 420-31 42-111 82-162 82-64 0-187-51-324-134-146-88-222-126-256-126-40 0-87 45-113 107l-23 58-3 868-3 867h-655c-559 0-665-2-724-16-74-16-120-45-120-73 0-9 16-55 36-101 68-162 90-306 63-429-15-73-77-168-145-225-107-88-306-161-527-193-166-24-659-24-822 0-356 53-565 171-646 367-20 46-23 72-23 165 1 121 18 188 87 334 41 87 37 111-22 135-84 33-153 36-813 36h-658l-2-837z" fill="#f58347"/> <path d="m43815 22474c-16-2-68-9-115-15-182-23-304-63-384-124-43-32-86-116-86-165 0-82 47-191 155-361 35-56 72-122 81-146 16-42 16-45-3-71-26-35-82-67-162-92-61-19-91-20-882-20h-820l3-718c3-673 4-720 21-745 10-16 25-31 34-34s56 14 107 40c161 82 226 101 346 101 99 1 109-1 172-32 175-86 284-306 334-672 24-174 25-662 1-840-59-441-204-677-443-721-107-20-240 11-408 93-167 81-159 118-163-749l-4-683h823c871 0 913-2 992-47 17-10 39-36 50-57 23-47 13-88-46-191-23-38-63-107-89-152-60-102-99-210-99-271 1-212 275-311 855-312 481 0 756 76 821 229 39 89 2 201-140 435-83 136-109 199-97 242 11 44 67 81 155 104 76 19 109 20 908 20h828v654c0 665-3 727-39 796-16 31-22 35-57 34-21-1-78-18-126-38-364-154-633-29-751 350-65 208-93 471-83 794 9 303 44 505 115 654 47 100 102 163 178 203 110 59 212 64 433 21 58-11 140-21 184-22 74-1 80 1 98 25 45 60 48 103 48 816v673l-832 2c-925 3-879 0-985 71-43 28-48 36-51 72-2 35 7 54 68 150 181 281 209 416 110 528-43 48-134 97-226 121-151 39-247 48-524 51-151 2-288 1-305-1z" fill="#87be3e"/> <path d="m12875 22404c-209-24-326-59-410-122-105-80-123-193-53-342 19-42 66-125 105-186 115-181 119-214 25-270-108-65-95-64-997-64h-816l3-707c3-685 4-709 23-748 12-24 28-41 41-43 11-2 58 17 105 42 146 77 228 101 349 100 96 0 110-2 164-29 140-69 247-234 300-465 70-302 80-810 22-1150-64-377-203-580-424-620-110-20-259 13-414 91-98 49-112 49-131 1-32-80-37-190-37-813v-619h811c949 0 977-2 1044-82 40-47 32-100-30-209-173-302-185-330-185-432 0-208 271-307 845-307 325 0 567 35 693 99 112 57 162 144 143 247-16 81-42 141-125 278-134 221-146 260-100 316 35 41 65 55 156 74 67 14 188 16 898 16h820v624c0 636-5 748-38 815-31 64-43 65-177 11-275-111-459-89-610 72-161 170-235 475-235 963 0 476 66 753 214 901 113 112 250 135 506 84 63-12 151-23 195-24l80-1 22 45c13 25 27 77 33 115 5 41 10 337 10 713v642h-811c-880 0-869-1-980 55-48 25-89 67-89 92 0 20 35 85 103 193 166 261 181 415 50 515-89 68-244 112-472 135-141 14-480 11-626-6z" fill="#f0466a"/> <path d="m23225 22414c-341-26-505-73-595-170-88-95-75-223 42-413 166-270 165-266 112-320-29-28-60-45-119-64l-80-27h-823-822l-2-637c-3-746-2-765 22-820 24-54 48-56 133-9 97 54 205 93 292 106 241 35 410-100 508-405 93-289 114-849 47-1242-84-487-304-689-653-598-32 8-107 38-168 67-124 58-132 58-158-8-14-34-16-131-19-731l-3-693 873-2 873-3 52-29c69-38 90-80 72-143-6-24-43-97-82-161-91-153-122-216-142-287-59-202 69-318 406-372 160-25 703-25 859 0 198 32 325 89 378 170 23 35 27 51 26 111-1 93-22 147-138 339-51 86-99 176-106 201-18 64 5 101 85 141l60 30 1740 10 3 653c2 706-1 767-50 819-28 30-42 29-125-8-37-17-111-42-163-56-119-32-241-29-335 7-82 31-188 137-238 236-106 211-154 512-144 909 13 529 107 800 313 901 85 41 209 44 421 9 89-14 183-25 209-23 42 3 51 7 70 35 40 60 44 127 44 821v662h-824-825l-73 26c-83 30-135 65-149 100-11 30 11 77 98 211 151 234 175 363 90 474-62 81-229 145-437 169-100 11-470 21-555 14z" fill="#7151a4"/> <path d="m33525 22413c-316-16-533-84-610-193-27-38-30-49-30-123s4-90 36-158c20-42 63-118 96-170 78-122 103-172 103-205 0-42-57-88-147-118l-78-26h-828-828l3-707c3-635 5-712 20-745 28-63 41-63 159-3 143 73 233 99 339 98 140 0 233-47 317-158 59-78 84-129 121-245 69-218 102-580 82-919-25-442-106-703-264-847-82-74-144-97-266-98-126 0-185 17-358 102-84 42-99 39-120-24-27-80-32-222-30-814l3-605 1750-10 42-22c116-63 112-123-27-353-95-158-122-222-127-311-5-63-2-82 15-116 48-93 178-156 396-190 157-25 712-25 865 0 131 21 258 65 315 108 136 103 123 230-52 514-70 114-112 203-112 237 0 38 41 81 102 109l53 24 1740 10v680c0 655-1 682-20 735-13 36-29 59-46 69-25 14-33 12-115-23-287-120-503-97-651 69-92 104-171 317-204 555-19 129-19 671-1 800 35 250 108 432 210 521 20 18 61 44 92 58 50 24 66 26 185 26 90 0 170-7 261-23 163-29 220-27 246 9 43 58 48 151 46 839l-3 645-1670 10-69 27c-68 26-121 66-131 99-8 23 22 91 72 166 114 168 163 281 163 374 0 92-46 162-143 217-44 25-178 67-262 81-135 24-432 35-640 24z" fill="#f7a037"/> <path d="m36400 20651c0-802 0-820-21-887-24-81-62-149-89-164-42-22-76-10-203 69-243 153-346 187-445 145-111-46-184-194-224-454-17-113-17-644 0-755 43-279 118-421 247-470 40-16 55-17 101-7 81 17 158 51 294 132 100 60 134 74 175 78 45 4 53 1 79-24 16-16 41-54 55-84l26-55 3-832 2-833h693c420 0 706 4 726 10 19 5 44 19 57 31l22 21-52 101c-79 156-91 200-91 347 0 119 2 128 30 183 90 178 314 280 720 329 177 21 635 16 820-9 230-32 418-93 525-171 201-147 229-385 79-686-21-43-39-85-39-93s21-24 48-36c47-22 51-22 734-25l688-3 2 868 3 868 23 52c34 73 54 88 116 87 57-1 88-14 238-106 249-151 368-172 467-83 119 108 170 341 171 776 0 444-43 663-155 787-45 50-89 66-169 60-75-6-137-34-304-135-158-95-197-113-247-113-55 0-77 18-111 92l-29 63-10 1740-620 3c-648 3-744-2-817-39-53-27-55-50-15-145 162-377 67-640-278-774-44-17-147-45-230-62l-150-32-360-1c-355 0-362 0-498 28-356 72-538 199-586 408-27 115 0 276 71 429 46 101 45 120-14 149-76 36-161 41-820 41h-638v-819z" fill="#fedd14"/> <path d="m46713 21462c-10-6-13-199-15-853l-3-845-38-77c-21-42-47-82-59-88-30-16-88-6-134 23-21 14-72 46-112 72-110 71-226 124-289 132-169 21-271-108-330-417-26-139-26-709 1-854 36-200 81-302 161-373 63-56 121-69 206-47 61 16 195 78 249 115 80 55 159 90 203 90 41 0 49-4 81-41 69-81 66-42 66-961v-828h688c378 0 703 3 723 6 20 4 49 17 65 29l29 23-57 115c-118 235-128 423-31 566 136 198 505 301 1078 301 381 0 699-54 880-148 92-49 183-135 220-209 25-50 30-72 33-160 4-88 1-114-22-192-14-50-46-131-71-181l-45-90 26-17c60-39 123-43 797-43h647v818c0 836 3 910 39 981 31 59 56 76 115 75 57-1 88-15 238-105 235-143 350-169 449-98 71 50 136 203 165 386 35 225 28 703-13 903-48 238-133 350-266 350-75 0-158-35-326-137-158-96-195-113-250-113-37 0-49 5-75 33-17 18-40 58-51 88-19 52-19 88-23 917l-3 862h-619c-641 0-742-5-812-41-59-30-61-44-22-133 144-326 96-575-139-719-127-78-320-135-536-156-134-14-564-14-689 0-307 33-549 130-651 258-61 77-85 146-89 257-5 124 16 219 79 355l43 92-27 23c-15 13-51 31-80 41-47 15-117 17-722 20-368 2-676 0-682-5z" fill="#69bc76"/> <path d="m5530 20588v-823l-27-80c-19-59-36-90-64-119-47-47-62-45-169 21-41 25-107 66-146 89-252 155-418 121-509-105-66-162-97-505-77-844 7-111 19-236 28-277 62-303 176-422 363-380 77 17 140 47 281 130 75 45 135 74 160 77 37 5 44 2 79-35 22-23 49-66 60-97 21-55 21-68 21-881v-825l708 3c634 3 711 5 744 20 62 28 64 45 13 140-151 283-147 487 11 643 139 136 400 212 818 237 342 20 734-18 946-92 225-78 350-199 381-366 21-111-6-235-83-397-61-126-60-132 28-161 56-19 90-20 729-21h670l5 870c5 864 5 870 26 916 29 61 66 89 117 89 44 0 102-27 244-113 143-87 225-120 313-124 70-4 78-3 123 26 118 76 177 271 196 641 5 92 5 244 1 336-22 449-102 648-271 679-74 14-200-34-359-134-106-66-217-121-248-121-42 0-81 35-111 99l-26 56-10 1740h-670c-709 0-743-2-800-47-32-25-32-41 6-129 180-419 48-693-391-813-149-40-286-57-536-63-417-10-701 33-904 138-189 98-281 249-267 439 8 99 28 174 82 293l43 98-22 25c-48 57-67 58-818 62l-688 3v-823z" fill="#ed297b"/> <path d="m15840 20596v-815l-25-79c-29-91-60-142-98-160-33-16-73 0-187 73-185 119-271 157-361 158-236 2-340-297-326-931 7-331 34-489 105-625 105-203 258-205 579-10 102 61 140 76 180 68 40-7 82-60 113-141 20-53 20-75 20-875v-820l708 3 707 3 43 23c27 14 42 29 42 42 0 10-22 61-48 112-75 146-97 224-97 343 0 90 3 106 29 160 56 115 183 211 359 271 200 68 605 106 934 86 416-25 678-102 822-241 158-153 166-357 27-635-24-48-42-94-39-101 8-22 77-44 170-55 50-5 354-10 695-10h607l3 858 3 857 23 56c12 32 35 69 50 84 24 24 33 27 79 23 42-4 75-18 170-74 216-126 283-156 361-162 85-6 128 8 177 55 109 106 165 373 165 784 0 616-115 888-354 840-80-17-137-44-305-145-79-47-161-91-182-97-75-23-125 14-162 121-22 65-22 66-25 918l-3 853-677-3c-606-3-682-6-728-21-64-21-88-47-81-84 3-15 22-71 42-122 104-267 80-451-78-597-162-150-427-220-873-231-410-10-677 30-891 135-277 135-347 399-193 731 23 49 40 97 38 107-5 29-74 61-155 73-48 7-301 11-718 11h-645v-814z" fill="#7f3f96"/> <path d="m26120 20580c0-809-1-832-20-891-28-81-64-137-95-145-35-9-67 5-185 80-278 177-420 199-530 80-121-131-166-382-157-866 6-343 31-491 104-631 99-188 251-204 508-55 224 129 241 135 289 97 15-12 39-44 54-72l27-52 10-1690 660-3c381-1 689 2 729 7 72 10 118 35 124 66 2 10-21 68-52 129-68 136-90 216-90 321 0 98 13 146 60 216 102 153 320 244 694 290 139 18 582 18 725 1 699-84 920-355 685-841-29-60-48-111-45-121 6-19 34-33 105-51 31-8 249-13 712-16l667-5 3 859c3 798 5 862 22 912 24 73 63 111 113 111 48 0 94-21 246-112 158-94 243-127 325-128 163-1 251 126 299 432 14 90 18 176 18 418 0 329-9 433-51 578-41 141-93 219-169 253-100 46-219 11-437-128-159-101-237-125-280-86-41 37-72 122-82 223-3 25-5 406-5 848l-1 802h-667c-697 0-745-3-807-44-39-25-41-53-8-126 38-83 79-219 87-291 15-136-36-272-138-364-148-134-381-203-766-227-204-12-482-1-646 27-112 20-272 68-345 105-277 140-340 382-189 725 22 52 39 102 37 111-5 27-51 55-114 70-47 11-196 14-741 14h-683v-830z" fill="#ed297b"/> <path d="m49045 17354c-437-26-634-98-682-250-33-105-1-201 138-424 97-154 104-172 84-210-17-33-79-69-164-94-48-14-150-16-878-16h-823l-2-632c-3-778-3-780 25-838 12-25 30-47 40-48 10-2 73 24 140 57 147 73 231 94 343 89 193-10 328-147 409-413 67-218 97-571 77-903-25-426-101-681-245-825-145-145-345-152-610-21-49 24-98 44-108 44s-25-12-33-28c-32-63-36-144-36-804v-657l863-3c819-3 864-4 907-22 69-29 105-68 104-114-1-43-24-89-123-256-94-159-114-212-115-306-1-100 20-141 101-196 79-54 155-79 323-106 115-18 176-21 420-22 245 0 305 3 425 22 214 34 326 82 392 169 26 33 28 44 28 122s-4 93-36 161c-20 41-68 128-108 193-84 137-101 174-101 220 0 45 35 79 109 109l56 23 1725 6v677c0 727-1 742-51 806-26 34-52 33-130-4-318-147-575-91-714 155-126 223-186 635-156 1065 19 267 50 418 117 556 52 109 121 180 212 215 83 33 230 31 422-4 217-40 237-37 273 41 22 47 22 54 25 759l3 713-843 2-843 3-65 28c-79 35-120 71-120 107 0 16 35 83 89 170 50 78 102 172 117 209 70 174 29 292-131 378-60 32-217 71-330 82-114 11-430 20-520 15z" fill="#f36559"/> <path d="m28365 17264c-272-31-406-68-499-139-43-32-86-116-86-165 0-82 47-191 155-361 35-56 72-122 81-146 16-42 16-45-3-71-26-35-82-67-162-92-61-19-91-20-882-20h-820l3-718c3-673 4-720 21-745 10-16 25-31 34-34 10-4 54 13 107 40 158 81 226 101 346 101 99 1 109-1 172-32 175-86 285-307 334-672 22-159 25-641 5-805-48-406-161-635-356-727-63-29-79-32-160-32-108 0-194 24-339 96-96 47-100 48-118 30-43-43-48-118-48-809v-653h823c870 0 912-2 991-47 17-10 39-36 50-57 23-47 13-88-46-191-23-38-63-107-89-152-60-102-99-210-99-271 1-212 275-311 855-312 499 0 780 83 825 246 27 96-6 192-144 418-83 136-109 199-97 242 11 44 67 81 155 104 76 19 109 20 908 20h828v663c0 700-2 735-47 803-21 33-57 29-175-20-120-51-213-69-316-63-359 21-541 445-518 1207 20 700 200 961 616 897 58-9 144-24 193-32 120-22 174-17 200 16 44 60 47 104 47 817v672h-811c-706 0-819 2-872 16-73 19-131 47-163 79-41 41-33 74 57 218 99 158 135 234 150 311 47 255-236 379-856 375-121-1-233-4-250-5z" fill="#26a9e1"/> <path d="m18145 17220c-366-19-570-89-642-223-12-22-17-54-17-102 1-85 25-148 109-285 155-254 152-245 104-293-38-37-125-74-209-88-30-5-412-9-847-9h-793l-2-647c-2-357 0-681 4-721 7-77 32-135 62-140 10-2 68 21 129 52 467 234 735 34 824-614 24-176 24-654 0-830-90-656-357-857-838-628-109 51-110 51-130 32-44-45-49-115-49-816v-657l858-3c805-3 860-4 907-21 60-22 102-60 110-97 8-38-20-108-99-238-119-198-156-300-142-394 19-128 163-212 437-255 163-25 665-25 827 0 193 30 307 74 374 144 45 47 58 79 58 147 0 78-34 163-122 309-100 164-128 222-128 268 0 48 39 84 121 112 64 22 70 22 917 25l853 3-3 697c-3 693-3 697-25 744-32 70-57 78-133 44-178-80-322-107-439-82-206 44-334 211-404 526-61 274-71 714-22 1015 43 267 134 441 267 508 108 54 219 57 452 11 43-9 115-17 159-17l81-2 22 33c42 61 44 102 44 815v682h-818c-890 0-860-2-975 58-101 53-100 78 7 246 118 187 156 277 156 370-1 123-114 225-306 275-151 39-476 59-739 46z" fill="#69bc76"/> <path d="m7835 17214c-341-26-505-73-595-170-88-95-75-223 42-413 166-270 165-266 112-320-29-28-60-45-119-64l-80-27h-823-822l-2-637c-3-742-3-754 18-811 24-64 45-68 129-22 289 158 515 153 664-16 72-82 151-264 180-414 61-314 66-785 11-1107-84-487-304-689-653-598-32 8-107 38-168 67-124 58-132 58-158-8-14-34-16-132-19-731l-3-692 1746-6 52-29c69-38 90-80 72-143-6-24-43-97-82-161-91-153-122-216-142-287-59-202 69-318 406-372 160-25 703-25 859 0 198 32 325 89 378 170 23 35 27 51 26 111-1 94-22 147-140 342-52 87-99 176-105 199-17 59 9 101 85 140l60 30 1741 10 3 653c2 706-1 767-50 819-28 30-40 29-136-12-183-80-355-96-487-45-85 33-188 137-243 246-102 202-150 522-139 912 14 480 94 742 263 858 102 70 221 80 476 38 86-14 178-24 204-22 42 3 51 7 70 35 40 60 44 127 44 821v662h-822-823l-77 27c-81 28-142 69-151 102-6 26 26 95 98 206 153 236 178 365 92 476-62 81-229 145-437 169-100 11-470 21-555 14z" fill="#26a9e1"/> <path d="m38590 17209c-306-32-467-95-528-209-20-39-23-55-19-115 6-87 39-163 148-337 82-130 100-179 80-216-16-30-92-72-170-94-61-17-122-18-884-18h-818l3-707c3-685 4-709 23-748 11-22 28-41 38-43s61 19 115 46c155 79 219 97 342 97 92 0 112-4 162-27 86-40 165-125 221-239 25-52 55-128 67-169 110-399 99-1103-21-1448-79-225-196-348-362-382-111-22-255 9-419 91-99 50-112 49-131 0-31-77-37-202-37-818v-612l858-3c814-3 860-4 910-22 69-25 112-73 112-124 0-46-23-95-106-233-99-166-126-231-132-320-5-85 5-114 60-168 108-107 368-161 774-161 526 0 806 85 842 256 21 98-11 187-146 406-107 174-123 234-75 283 38 38 71 53 153 70 60 13 203 15 896 15h825l-3 673c-4 736-6 755-63 804-25 22-27 22-63 7-203-89-330-116-459-96-238 37-385 254-450 666-23 143-26 687-4 836 46 326 151 516 322 581 54 20 80 24 169 23 61-1 149-11 210-23 58-12 139-24 181-28 69-5 78-4 97 15 12 12 29 47 39 79 17 53 18 113 18 738v680l-1670 10-59 23c-69 26-123 64-138 98-14 31-1 61 84 197 121 192 153 272 146 370-11 172-187 263-573 297-131 12-446 11-565-1z" fill="#ed297b"/> <path d="m41520 15518v-823l-27-80c-19-59-36-90-64-119-47-47-62-45-169 21-41 25-107 66-146 89-261 160-435 115-519-134-65-192-90-534-64-877 33-452 159-645 388-595 76 16 144 48 283 131 74 45 132 73 158 76 37 5 44 3 78-34 21-22 48-65 60-97l22-58v-824-825l708 3c634 3 711 5 744 20 62 28 64 45 13 140-152 285-148 485 12 644 137 135 401 211 816 236 138 8 238 8 380 0 447-27 710-108 853-266 73-80 97-145 98-261 0-114-19-189-86-328-61-126-60-132 28-161 56-19 91-20 729-20l670-1 5 870c5 864 5 870 26 916 29 61 66 89 117 89 44 0 102-27 244-113 143-87 225-120 313-124 70-4 78-3 123 26 118 76 177 271 196 642 10 193-1 471-25 621-38 242-118 370-245 393-74 14-210-38-368-139-102-66-206-116-240-116-42 0-86 42-113 108l-23 57-10 1730h-670c-709 0-743-2-800-47-33-26-32-41 10-138 57-133 78-230 72-335-6-112-17-148-69-225-72-108-206-190-398-244-146-40-284-57-536-63-417-10-701 33-904 138-281 145-341 396-180 746l39 83-22 26c-49 57-68 58-819 62l-688 3v-823z" fill="#f0466a"/> <path d="m51830 15528c0-864 0-851-49-963-41-93-79-116-144-87-23 10-76 40-117 67-189 121-271 157-366 158-231 3-335-300-321-936 7-328 33-480 105-620 44-86 97-132 169-148 101-23 195 10 423 145 143 85 186 84 240-1 62-97 60-69 60-960v-814l708 3 707 3 43 23c29 15 42 29 42 43 0 12-20 58-44 102-205 381-107 648 289 784 180 61 557 100 860 89 450-18 742-98 894-245 158-153 166-358 27-635-24-48-42-94-39-101 8-22 77-44 170-55 50-5 355-10 696-10h607v823c0 550 4 843 11 883 14 78 53 149 90 165 51 20 104 5 228-68 205-120 284-155 360-161 84-6 127 8 176 55 109 106 165 373 165 784 0 513-77 780-242 835-43 14-59 15-111 4-74-14-170-59-292-136-112-71-202-114-237-114-45 0-92 50-119 127l-24 68-6 1706-677-3c-606-3-682-6-728-21-64-21-88-47-81-84 3-15 22-71 42-122 81-209 85-346 13-483-87-165-307-278-633-324-182-26-656-27-828-1-299 45-513 149-605 294-89 140-82 335 18 552 23 49 40 97 38 107-5 30-76 62-161 73-49 7-316 11-718 11h-639v-812z" fill="#f7a037"/> <path d="m20947 16254c-4-4-7-378-7-831 0-793-1-826-20-883-27-80-57-128-92-146-38-19-61-11-173 61-191 123-290 165-387 165-124 0-203-78-257-255-95-306-84-977 20-1246 40-103 109-181 179-199 89-24 191 3 345 91 230 132 243 136 294 100 15-11 40-46 56-78l30-58 3-405c1-223 3-601 5-840l2-435 674-3c581-2 683 0 735 13 59 15 96 38 96 58 0 6-22 54-49 106-82 163-95 209-96 341 0 107 2 119 29 170 96 185 328 294 726 341 136 16 604 16 740 0 696-81 921-370 674-863-24-48-41-94-38-102 6-16 36-29 104-47 32-9 240-13 708-16l662-4v843c0 881 1 892 43 975 23 44 54 63 102 63s89-18 215-94c168-101 256-139 336-144 57-4 77-1 110 16 130 67 193 250 216 635 27 449-32 841-145 966-29 31-114 71-153 71-70 0-209-62-384-172-89-55-163-88-199-88-40 0-84 45-113 118l-23 57-3 863-3 862h-637c-398 0-661-4-702-11-82-13-146-41-154-67-4-13 8-55 33-114 118-277 102-470-51-622-169-167-479-246-968-246-672 0-1025 155-1081 474-20 115 15 274 93 430 26 51 28 62 17 82-14 28-70 50-159 64-71 11-1342 14-1353 4z" fill="#fedd14"/> <path d="m31248 15423c-3-837-3-838-25-897-25-67-65-123-97-138-30-13-66 3-186 81-52 34-133 81-180 104-81 40-90 42-175 42-82 0-94-3-130-27-52-36-98-105-130-195-102-293-99-970 6-1258 40-109 84-166 154-200 49-24 64-27 119-22 78 7 148 33 251 93 144 84 226 124 252 124 37 0 96-66 122-135 21-55 21-68 21-881v-825l708 3c757 3 750 3 792 53 13 16 10 26-33 106-88 163-125 310-107 421 44 279 347 427 938 459 346 19 724-17 932-88 278-94 414-256 397-473-8-99-28-163-90-293-57-121-57-133 6-154 82-27 218-33 814-33h612l3 868c4 950 1 912 64 979 55 59 119 43 322-81 154-93 215-118 307-123 76-4 82-3 128 26 141 91 199 331 198 820-1 417-40 630-138 759-30 40-113 82-161 82-62 0-186-51-319-131-151-91-228-129-262-129-40 0-87 45-113 107l-23 58-3 868-3 867h-655c-702 0-758-3-819-51-32-26-32-42 5-127 66-155 84-238 78-357-12-229-151-365-466-456-174-51-292-62-622-63-332 0-456 12-640 65-225 66-358 166-421 319-19 45-23 73-23 160 0 117 22 201 88 339 41 85 36 111-23 135-84 33-153 36-813 36h-658l-2-837z" fill="#7151a4"/> <path d="m10740 15370c0-809-1-832-20-891-12-33-32-78-45-100-46-72-97-66-250 32-136 87-237 136-309 151-190 40-317-147-356-525-17-158-8-632 13-742 39-204 88-321 161-379 102-83 210-71 411 46 174 101 210 118 246 118 47 0 82-28 117-93l27-52 10-1690 670-3c708-2 753 0 803 43l26 23-56 113c-32 63-64 141-73 174-103 390 140 612 740 676 142 15 598 15 740 0 397-43 648-158 737-338 28-56 33-79 36-158 5-118-20-223-87-362-44-91-48-104-35-118 46-46 184-55 856-55h597l3 858c3 797 5 861 22 911 26 79 62 111 123 111 58 0 98-18 256-112 209-124 318-153 406-109 101 52 161 177 198 413 23 145 26 651 4 798-15 108-52 243-81 300-47 92-125 149-203 150-73 0-181-46-339-147-217-138-292-141-347-14-38 90-41 150-41 989v812h-655c-657 0-722-3-787-36-48-25-51-45-19-116 131-288 113-524-50-672-151-136-377-202-779-228-206-13-467-2-650 27-114 18-273 66-350 105-279 141-343 395-188 747l42 96-27 23c-56 48-60 48-799 52l-698 3v-831z" fill="#5373bc"/> <path d="m43825 12144c-341-26-505-73-595-170-88-95-75-223 42-413 166-270 165-266 112-320-29-28-60-45-119-64l-80-27h-823-822l-2-637c-3-742-3-754 18-811 24-64 45-68 129-22 290 159 515 153 666-18 52-59 122-203 153-314 65-229 92-623 65-959-53-671-278-949-682-844-32 8-107 38-168 67-124 58-132 58-158-8-14-34-16-131-19-731l-3-693 873-2 873-3 52-29c69-38 90-80 72-143-6-24-43-97-82-161-91-153-122-216-142-287-59-200 65-315 400-372 154-25 707-26 865 0 198 32 325 89 378 170 23 35 27 51 26 111-1 93-22 147-138 339-51 86-99 176-106 201-18 64 5 101 85 141l60 30 1740 10 3 653c2 706-1 767-50 819-28 30-40 29-136-12-183-80-355-96-487-45-92 36-192 140-250 262-52 110-89 245-112 412-25 173-24 620 1 801 33 236 94 400 185 492 114 116 230 135 527 89 214-34 251-32 280 11 40 60 44 127 44 821v662h-822-823l-77 27c-81 28-142 69-151 102-6 26 26 95 98 206 152 235 177 365 92 476-61 80-225 144-432 168-94 12-474 22-560 15z" fill="#26a9e1"/> <path d="m54125 12143c-316-16-530-83-609-192-29-40-31-49-31-125 1-72 5-90 36-156 20-41 63-118 96-170 78-123 103-173 103-206 0-42-57-88-147-118l-78-26h-828-828l3-707c3-635 5-712 20-745 22-49 46-61 84-41 172 91 242 118 346 133 270 39 455-140 538-520 86-391 71-1006-32-1330-45-141-92-225-169-301-90-90-147-113-284-112-120 1-189 20-329 89-110 54-122 53-144-12-27-80-32-222-30-814l3-605 870-5c820-5 872-6 913-24 57-25 92-68 92-114 0-45-28-106-110-242-95-158-122-222-127-311-5-63-2-82 15-116 48-93 178-156 396-190 157-25 712-25 865 0 131 21 258 65 315 108 136 103 123 230-52 514-70 114-112 203-112 237 0 38 41 81 102 109l53 24 1740 10v680c0 654-1 682-20 735-13 36-29 59-46 69-25 14-33 12-115-23-232-97-406-101-551-14-150 90-250 293-300 612-22 142-25 678-5 826 35 250 108 432 207 519 107 94 240 111 512 66 195-32 248-31 275 6 43 58 48 151 46 839l-3 645-1670 10-69 27c-68 26-121 66-131 99-8 23 22 91 72 166 114 168 163 281 163 374 0 92-46 162-143 217-44 25-178 67-262 81-139 24-428 35-640 24z" fill="#ed297b"/> <path d="m33515 12134c-446-35-647-155-607-361 15-72 49-142 151-306 44-71 83-142 86-157 14-63-45-116-174-154-48-14-150-16-878-16h-823l-2-632c-3-734-2-750 18-805 26-72 30-72 166-4 148 73 242 96 366 88 197-12 329-148 411-424 100-339 106-993 11-1372-55-217-166-390-285-441-147-63-325-45-526 55-50 25-95 45-101 45-5 0-19-21-31-47-22-48-22-52-25-735l-3-687 863-3c820-3 865-4 908-22 25-10 59-32 75-48 25-24 30-36 29-76-1-53-17-88-123-266-91-152-114-213-115-296-1-89 23-133 101-186 105-71 238-105 493-124 342-26 694 2 873 69 87 33 133 64 174 118 25 33 28 45 28 112-1 66-5 86-36 151-20 41-68 128-108 193-87 143-101 173-101 230 0 55 29 87 109 119l56 23 1730 10 3 605c3 643-2 743-40 819-34 67-45 70-125 34-229-105-444-111-588-16-152 100-258 344-295 678-13 122-14 577 0 706 33 323 124 532 266 615 60 35 174 57 259 50 39-3 147-18 242-33 200-31 213-29 244 42 34 77 39 196 37 835l-3 615-1690 10-65 28c-87 39-120 70-120 117 0 29 19 68 89 180 99 157 140 248 148 327 5 43 1 62-21 107-53 109-176 170-421 212-88 14-517 27-630 18z" fill="#5373bc"/> <path d="m12975 12064c-16-2-68-9-115-15-182-23-304-63-384-124-43-32-86-116-86-165 0-82 47-191 155-361 35-56 72-122 81-146 16-42 16-45-3-71-26-35-82-67-162-92-61-19-91-20-882-20h-820l3-718c3-673 4-720 21-745 10-16 25-31 34-34 9-4 56 14 110 41 164 82 223 100 343 100 99 1 109-1 172-32 175-86 284-307 334-672 24-172 25-662 2-836-52-389-163-607-353-696-63-29-79-32-160-32-109 1-195 25-339 96-167 81-159 118-163-749l-4-683h823c871 0 913-2 992-47 17-10 39-36 50-57 25-50 13-89-62-216-134-227-172-315-172-398 1-211 275-312 850-312 487 0 761 76 826 229 39 89 2 201-140 435-83 136-109 199-97 242 11 44 67 81 155 104 76 19 109 20 908 20h828v663c0 700-2 735-47 803-21 33-57 29-175-20-252-106-458-81-599 72-170 183-251 553-235 1072 9 303 44 505 115 654 47 100 102 163 178 203 110 59 212 64 433 21 58-11 140-21 184-22 74-1 80 1 98 25 45 60 48 103 48 816v673l-832 2c-925 3-879 0-985 71-42 28-48 37-51 70s8 56 82 175c100 162 132 229 147 307 22 119-31 212-153 272-146 71-301 95-648 98-151 2-288 1-305-1z" fill="#87be3e"/> <path d="m23250 12054c-401-27-601-104-646-249-31-98-2-181 145-418 44-71 83-142 86-157 14-63-45-116-174-154-48-14-150-16-878-16h-823l-2-632c-3-734-2-750 18-805 26-72 30-72 166-4 150 74 230 94 354 89 74-3 100-9 150-33 122-60 213-190 273-392 100-339 106-993 11-1372-55-217-166-390-285-441-147-63-325-45-526 55-50 25-95 45-101 45-5 0-19-21-31-47-22-48-22-52-25-735l-3-687 863-3c820-3 865-4 908-22 25-10 59-32 75-48 25-24 30-36 29-76-1-53-17-88-123-266-91-152-114-213-115-296-1-89 23-133 101-186 105-71 238-105 493-124 337-25 682 1 868 67 84 30 138 66 178 119 26 34 29 45 29 113-1 66-5 86-36 151-20 41-68 128-108 193-87 143-101 173-101 230 0 55 29 87 109 119l56 23 1726 6-6 1374-25 49c-36 72-46 75-127 39-278-127-517-109-666 51-173 186-261 636-228 1171 17 277 48 428 117 571 52 109 121 180 212 215 86 34 230 32 448-6 201-34 212-32 247 43 22 47 22 51 25 749l3 703-843 2-843 3-65 28c-87 39-120 70-120 117 0 29 19 68 89 180 99 157 140 248 148 327 5 43 1 62-21 107-15 30-44 68-64 84-85 66-229 113-404 132-101 11-449 20-538 14z" fill="#ed297b"/> <path d="m56880 10318v-823l-25-75c-31-93-75-150-114-150-18 0-76 30-157 81-156 98-202 122-279 144-171 50-287-29-355-243-93-287-90-943 5-1221 57-169 136-244 260-245 85 0 168 31 329 124 140 81 175 96 211 92 30-4 82-68 105-129 19-52 20-76 20-879v-825l723 3c900 4 842-12 737 200-76 155-93 223-88 343 3 79 8 98 38 153 120 226 489 342 1085 342 202 0 521-29 608-56 16-5 17 71 17 1495 0 826-2 1501-5 1501s-45-9-93-19c-258-57-689-63-982-15-448 75-665 279-620 586 13 89 46 190 92 282 37 73 30 97-40 129-47 22-50 22-759 25l-713 3v-823z" fill="#f36559"/> <path d="m26060 10308v-823l-27-80c-19-59-36-90-64-119-47-47-62-45-169 21-41 26-107 66-146 90-263 160-435 114-520-138-64-190-88-520-63-869 32-455 159-651 388-600 77 17 140 47 281 130 75 45 135 74 160 77 37 5 44 2 78-34 21-22 48-65 60-97l22-58v-824-825l708 3c634 3 711 5 744 20 63 28 65 46 14 140-152 280-148 487 10 643 139 136 400 212 819 237 140 8 239 8 380 0 428-25 685-101 831-247 152-152 162-337 32-608-61-126-60-132 28-161 56-19 90-20 729-21h670l5 870c5 864 5 870 26 916 29 61 66 89 117 89 44 0 102-27 244-113 143-87 225-120 313-124 70-4 78-3 123 26 118 76 177 271 196 642 10 193-1 471-25 621-48 304-162 430-345 384-72-19-147-55-270-131-121-75-204-115-237-115-42 0-81 35-111 99l-26 56-10 1740h-670c-709 0-743-2-800-47-33-26-32-41 10-138 57-133 78-230 72-335-6-112-17-148-69-225-72-108-206-190-398-244-146-40-284-57-536-63-418-10-701 33-905 138-280 145-340 397-179 746l39 83-22 26c-49 57-68 58-819 62l-688 3v-823z" fill="#f0466a"/> <path d="m36370 10318c0-864 0-851-49-963-52-119-102-127-233-37-94 64-204 125-267 149-256 97-399-75-442-534-13-142-7-578 10-688 55-353 174-497 374-456 67 13 154 54 284 132 111 67 149 82 190 74 40-7 82-60 113-141 20-53 20-75 20-875v-820l708 3c696 3 708 3 747 24 22 12 42 29 44 39 1 10-20 64-48 119-64 128-90 207-97 299-23 266 180 448 576 518 63 11 126 22 140 25 97 17 435 26 607 16 418-26 678-102 822-241 158-153 166-357 27-635-24-48-42-94-39-101 8-23 80-45 176-55 51-5 363-10 694-10h602l3 858 3 857 23 56c12 32 35 69 50 84 24 24 33 27 79 23 42-4 75-18 170-74 207-121 286-156 362-162 84-6 127 8 176 55 108 105 165 374 165 778 0 531-79 796-253 845-87 24-183-8-382-130-143-87-211-120-247-120-45 0-92 50-119 127l-24 68-6 1706-677-3c-597-3-683-6-725-20-92-31-103-58-63-149 40-92 75-214 82-291 27-306-210-507-681-574-182-26-656-27-827-1-300 45-514 149-606 294-89 140-82 335 18 552 23 49 40 97 38 107-5 29-74 61-155 73-48 7-301 11-718 11h-645v-812z" fill="#fedd14"/> <path d="m46730 10311c0-786-1-821-20-882-24-78-71-155-100-164-38-12-80 7-233 108-23 15-83 47-133 72-198 97-325 64-409-109-62-126-91-298-102-591-13-373 39-702 132-842 102-153 249-150 519 9 131 77 175 98 207 98s94-70 118-135c21-55 21-68 21-880v-825h679c420 0 699 4 732 10 34 7 63 20 78 35l25 24-56 108c-105 202-129 349-78 483 53 143 222 260 460 319 183 46 301 56 645 56 342 0 463-10 640-55 208-52 346-128 427-235 57-75 73-132 72-250-1-113-15-166-92-328-45-97-45-98-26-117 39-39 94-43 792-47l672-4v847c0 948-1 932 67 1e3 58 58 114 45 298-68 165-102 263-141 349-140 64 1 94 12 141 53 62 55 104 156 141 339 22 114 32 618 14 787-13 127-46 274-78 347-27 60-95 132-139 147-56 18-158 6-233-28-36-17-119-63-185-103-143-88-190-109-232-110-45 0-87 40-115 108l-23 57-6 1726-1404-6-42-23c-58-30-62-54-25-138 58-132 75-195 80-300 3-76 0-114-12-158-67-230-308-365-746-417-127-15-540-15-665 0-330 40-548 128-661 268-67 81-88 148-88 273 0 89 4 118 28 190 16 47 42 111 58 143 40 81 36 106-27 137l-50 25-707 3-708 3v-820z" fill="#48b1aa"/> <path d="m5560 10241c0-802 0-820-21-887-24-81-62-149-89-164-42-22-76-10-203 69-243 153-346 187-445 145-111-46-184-194-224-454-17-113-17-644 0-755 43-279 118-421 247-470 40-16 55-17 101-7 81 17 158 51 294 132 100 60 134 74 175 78 45 4 53 1 79-24 16-16 41-54 55-84l26-55 3-832 2-833h693c420 0 706 4 726 10 19 5 44 19 57 31l22 21-52 101c-79 156-91 200-91 347 0 119 2 128 30 183 90 178 314 280 720 329 177 21 635 16 820-9 230-32 418-93 525-171 201-147 229-385 79-686-21-43-39-85-39-93s21-24 48-36c47-22 51-22 734-25l688-3 2 868 3 868 23 52c34 73 54 88 116 87 57-1 88-14 238-106 249-151 368-172 467-83 119 108 170 341 171 776 0 444-43 663-155 787-45 50-89 66-169 60-75-6-137-34-304-135-158-95-197-113-247-113-55 0-77 18-111 92l-29 63-10 1740-620 3c-648 3-744-2-817-39-53-27-55-50-15-145 162-377 67-640-278-774-44-17-147-45-230-62l-150-32-360-1c-355 0-362 0-498 28-356 72-538 199-586 408-27 115 0 276 71 429 46 101 45 120-14 149-76 36-161 41-820 41h-638v-819z" fill="#fedd14"/> <path d="m15858 10223c-3-837-3-838-25-897-25-67-65-123-97-138-29-13-69 4-170 70-191 127-285 166-389 160-58-3-80-9-112-31-52-35-98-104-130-194-102-293-99-970 6-1258 40-109 84-166 154-200 49-24 64-27 119-22 78 7 148 33 251 93 144 84 226 124 252 124 37 0 96-66 122-135 21-55 21-68 21-880v-825h680c717 0 759 2 808 45l27 24-48 91c-88 166-125 311-107 422 44 278 344 426 933 459 294 16 643-9 848-60 164-42 307-118 388-207 71-78 95-145 95-264 0-115-16-176-87-323-57-121-57-133 7-154 79-27 230-33 818-33h607l3 868c4 950 1 912 64 979 56 59 114 45 324-82 200-121 327-153 419-105 160 81 231 409 210 975-8 222-17 304-50 423-36 135-84 209-162 248-94 48-194 21-414-112-145-89-218-124-255-124s-90 55-114 117c-18 45-19 95-22 916l-3 867h-655c-559 0-665-2-724-16-73-16-120-45-120-72 0-8 18-60 40-113 91-221 94-392 11-531-93-154-308-259-626-305-172-25-651-25-820 0-290 43-492 135-590 268-63 85-80 143-79 264 0 111 23 198 88 335 40 86 36 110-23 134-84 33-153 36-813 36h-658l-2-837z" fill="#48b1aa"/> <path d="m48965 6994c-272-31-406-68-499-139-43-32-86-116-86-165 0-82 47-191 155-361 35-56 72-122 81-146 16-42 16-45-3-71-26-35-82-67-162-92-61-19-91-20-882-20h-820l3-718c3-673 4-720 21-745 10-16 25-31 34-34 9-4 59 15 117 44 157 79 223 98 341 98 93 0 105-2 167-33 175-86 284-306 334-672 24-174 25-662 1-840-59-441-204-677-443-721-108-20-239 10-408 93-167 81-159 118-163-750l-4-682h813c510 0 837-4 878-10 140-23 206-86 180-173-6-23-52-110-100-193-134-230-164-335-121-429 68-152 343-225 836-225 489 1 756 75 821 229 39 89 2 201-140 435-83 136-109 199-97 242 11 44 67 81 155 104 76 19 109 20 908 20h828v654c0 663-3 727-38 795-26 49-49 54-113 24-30-13-94-39-144-56-80-27-103-31-205-31-114-1-117 0-192 37-260 128-383 522-364 1167 9 303 44 505 115 654 72 152 167 226 319 248 79 11 133 6 375-37 120-22 174-17 200 16 44 60 47 104 47 816v673l-832 2c-925 3-879 0-985 71-43 28-48 36-51 72-2 35 8 56 79 170 99 157 135 232 150 309 47 255-236 379-856 375-121-1-233-4-250-5z" fill="#fedd14"/> <path d="m28355 6939c-357-19-560-91-627-222-17-34-20-54-16-116 6-94 33-155 147-338 45-72 84-146 87-165 7-43-18-71-105-112l-66-31-1700-10v-715c0-678 1-717 19-753 28-56 49-56 158 1 147 75 224 97 343 97 93 0 105-2 167-33 173-85 277-298 330-672 21-150 18-713-5-860-56-361-161-568-333-655-56-28-66-30-174-30-131 1-179 14-339 92-109 54-117 52-146-28-19-52-20-85-23-736l-3-683h833c709 0 843-3 897-15 113-27 161-75 147-147-3-18-31-78-62-133-161-286-192-365-180-450 13-85 89-161 204-205 50-19 78-20 655-20h602l62 29c84 40 121 69 148 116 61 108 38 197-122 466-117 197-125 231-69 284 25 24 57 38 114 54 77 21 93 21 916 21h837l-3 683c-3 603-6 688-20 731-17 48-52 96-72 96-6 0-60-20-121-45-246-99-422-92-573 23-45 34-115 135-153 219-44 96-85 267-105 435-20 178-15 625 9 783 55 352 174 526 388 565 73 14 134 9 338-26 194-32 223-32 254 5 51 61 52 83 52 821v685l-829 2c-803 3-832 3-890 23-109 36-165 85-152 133 3 12 38 74 77 137 125 200 159 280 159 378 0 66-18 109-64 156-68 67-185 114-354 142-83 13-408 36-472 32-14 0-88-4-165-9z" fill="#26a9e1"/> <path d="m38665 6933c-316-16-530-83-609-192-29-40-31-49-31-125 0-73 4-89 36-157 20-42 63-118 96-170 78-122 103-172 103-205 0-42-57-88-147-118l-78-26h-828-828l3-707c4-895-11-842 199-739 142 71 220 92 329 90 134-3 236-57 314-168 55-77 77-121 109-221 122-373 125-1088 5-1465-45-141-92-225-169-301-90-90-147-113-284-112-114 0-195 23-340 95-49 24-90 38-99 35-9-4-23-22-31-42-30-69-36-226-33-830l3-600 870-5c820-5 872-6 913-24 56-24 92-68 92-112 0-47-17-85-110-243-44-75-91-166-105-204-66-177-8-295 180-363l66-24h574 575l67 25c116 44 182 109 198 196 14 74-32 194-143 374-70 114-112 203-112 237 0 38 41 81 102 109l53 24 1740 10v680c0 654-1 682-20 735-13 36-29 59-46 69-25 14-33 12-125-26-145-59-227-76-332-70-110 6-146 18-224 70-145 97-238 296-285 607-25 163-25 686-1 845 46 298 137 474 284 546 94 47 211 51 431 14 195-32 248-31 275 6 43 58 48 151 46 839l-3 645-1670 10-69 27c-68 26-121 66-131 99-8 23 22 91 72 166 63 92 119 193 142 256 22 61 28 157 11 201-14 39-77 102-127 131-53 29-180 69-268 84-139 24-428 35-640 24z" fill="#69bc76"/> <path d="m18115 6914c-446-35-647-155-607-361 15-72 49-142 151-306 44-71 83-142 86-157 14-63-45-116-174-154-48-14-150-16-878-16h-823l-2-632c-3-734-2-750 18-805 26-72 30-72 166-4 148 73 242 96 366 88 197-12 329-148 411-424 100-339 106-993 11-1372-55-217-166-390-285-441-147-63-325-45-526 55-50 25-95 45-101 45-5 0-19-21-31-47-22-48-22-52-25-735l-3-687 863-3c820-3 865-4 908-22 25-10 59-32 75-48 25-24 30-36 29-76-1-53-17-88-123-266-108-182-136-273-111-363 17-59 67-110 150-151l63-32h613c592 0 615 1 668 20 29 12 74 38 99 60 120 106 104 216-72 503-87 143-101 173-101 230 0 55 29 87 109 119l56 23 1730 10 3 605c3 643-2 743-40 819-34 67-45 70-125 34-229-105-444-111-588-16-152 100-258 344-295 678-13 122-14 577 0 706 33 323 124 532 266 615 60 35 174 57 259 50 39-3 147-18 242-33 200-31 213-29 244 42 34 77 39 196 37 835l-3 615-1690 10-65 28c-87 39-120 70-120 117 0 29 19 68 89 180 99 157 140 248 148 327 5 43 1 62-21 107-53 109-176 170-421 212-88 14-517 27-630 18z" fill="#f7a037"/> <path d="m41550 5171c0-802 0-820-21-887-24-81-62-149-89-164-42-22-76-10-203 69-243 153-346 187-445 145-111-46-184-194-224-454-17-113-17-644 0-755 43-279 118-421 247-470 40-16 55-17 101-7 81 17 158 51 294 132 100 60 134 74 175 78 45 4 53 1 79-24 16-16 41-54 55-84l26-55 3-832 2-833h693c420 0 706 4 726 10 19 5 44 19 57 31l22 21-52 101c-79 156-91 200-91 347 0 119 2 128 30 183 90 178 314 280 720 329 177 21 635 16 820-9 230-32 418-93 525-171 201-147 229-385 79-686-21-43-39-85-39-93s21-24 48-36c47-22 51-22 734-25l688-3 2 868 3 868 23 52c34 73 54 88 116 87 57-1 88-14 238-106 249-151 368-172 467-83 119 108 170 341 171 776 0 444-43 663-155 787-45 50-89 66-169 60-75-6-137-34-304-135-158-95-197-113-247-113-55 0-77 18-111 92l-29 63-10 1740-620 3c-648 3-744-2-817-39-53-27-55-50-15-145 162-377 67-640-278-774-44-17-147-45-230-62l-150-32-360-1c-355 0-362 0-498 28-356 72-538 199-586 408-27 115 0 276 71 429 46 101 45 120-14 149-76 36-161 41-820 41h-638v-819z" fill="#87be3e"/> <path d="m51848 5153c-3-837-3-838-25-897-24-64-63-120-94-137-30-15-59-2-213 94-171 107-246 138-338 138-60 0-75-4-116-30-85-55-146-177-176-352-61-364-41-868 45-1104 40-109 84-166 154-200 49-24 64-27 119-22 78 7 148 33 251 93 144 84 226 124 252 124 37 0 96-66 122-135 21-55 21-68 21-880v-825h680c717 0 759 2 808 45l27 24-48 91c-288 541-14 834 827 881 354 20 726-16 943-91 126-44 201-88 274-160 89-88 113-149 113-280 0-115-16-176-87-323-57-121-57-133 6-154 82-27 218-33 814-33h612l3 868c4 950 1 912 64 979 55 59 119 43 322-81 150-91 216-118 303-123 63-5 82-2 116 15 93 48 146 152 190 377 21 110 30 629 13 792-20 194-62 335-127 421-31 41-111 82-160 82-65 0-192-53-325-133-150-91-223-127-260-127s-90 55-114 117c-18 45-19 95-22 916l-3 867h-655c-559 0-665-2-724-16-74-17-120-45-120-73 0-10 18-60 39-112 122-291 86-519-103-659-116-85-324-155-546-182-161-20-634-17-785 6-356 52-565 170-646 366-19 46-23 73-23 160 0 120 18 190 83 329 46 97 43 120-18 145-84 33-153 36-813 36h-658l-2-837z" fill="#f7a037"/> <path d="m31270 5090c0-809-1-832-20-891-12-33-32-78-45-100-46-72-97-66-250 32-136 87-237 136-309 151-190 40-317-147-356-525-17-158-8-632 13-742 39-204 88-321 161-379 102-83 210-71 411 46 174 101 210 118 246 118 47 0 82-28 117-93l27-52 10-1690 670-3c708-2 753 0 803 43l26 23-56 113c-32 63-64 141-73 174-103 390 140 612 740 676 142 15 598 15 740 0 397-43 648-158 737-338 28-56 33-79 36-158 5-118-20-223-87-362-44-91-48-104-35-118 46-46 184-55 856-55h597l3 858c3 797 5 861 22 911 26 79 62 111 123 111 58 0 98-18 256-112 209-124 318-153 406-109 101 52 161 177 198 413 23 145 26 651 4 798-15 108-52 243-81 300-47 92-125 149-203 150-73 0-181-46-339-147-217-138-292-141-347-14-38 90-41 150-41 989v812h-655c-657 0-722-3-787-36-48-25-51-45-19-116 131-288 113-524-50-672-151-136-377-202-779-228-206-13-467-2-650 27-114 18-273 66-350 105-279 141-343 395-188 747l42 96-27 23c-56 48-60 48-799 52l-698 3v-831z" fill="#48b1aa"/> <path d="m10651 1772c-1.62 279.29 3.285 560.01-2.411 838.41-33.181 61.008-58.468 168.21-147.25 158.27-112.96-30.244-204.1-111.03-311.34-155.85-103.01-53.272-243.42-91.952-340.87-6.5854-127.23 117.7-156.47 301.01-175.93 465.12-22.399 271.98-26.137 548.26 16.83 818.43 28.377 135.33 67.57 295.04 198.81 366.49 132.98 60.301 274.61-19.747 387.82-87.529 81.066-43.019 153.4-114.38 246.8-127.03 96.859 45.558 121.14 178.35 123.56 277.31 8.908 529.49 0.399 1062.7 5.326 1590 454.17-2.4559 908.58 5.2193 1362.6-6.1601 62.9-2.721 145.19-18.764 173.69-81.017-36.569-118.26-107.96-227.21-115.4-354.16-12.44-117.56 0.325-246.34 85.019-336.55 159.13-181.68 411.62-231.31 640.2-260.3 259.15-22.877 522.13-26.551 780.09 10.944 208.82 36.191 439.87 91.131 576.88 266.81 130.44 172.48 79.263 407.15-3.015 588.75-24.77 45.782-42.18 120.42 24.734 138.64 86.877 39.643 186.79 20.244 279.46 27.48 389.7 2.0885 783.06 5.5107 1170.5 4.2167 2.959-572.33 1.866-1145.4 7.403-1717.3 24.461-69.606 57.259-175.06 148.08-171.91 114.69 26.808 207.55 107.24 310.24 161.46 90.349 59.396 196.79 96.202 305.93 81.255 109.19-15.278 160.3-132.63 191.33-225.6 78.87-274.34 70.09-564.1 59.438-846.55-12.661-185.06-29.548-385.14-143.15-539.24-70.701-94.878-205.16-90.2-303.26-45.895-149.5 57.145-271.22 175.13-427.95 213.74-81.786 2.9872-126.96-91.917-134.34-162.21-14.897-331.21-7.45-663.09-11.259-994.58-1.726-239.2 0.192-482.06-3.812-718.98-434.54 2.7205-869.32-6.7922-1303.7 7.5903-59.145 7.9659-144.81-2.0555-175.95 60.068 31.815 103.8 94.423 197.77 117.04 305.58 42.285 143.92 14.875 312.81-99.189 416.97-164.41 156.73-400.03 198.11-617.06 226.29-345.24 33.867-698.51 35.713-1038.5-40.472-177.2-44.054-375.04-121.14-457.22-297.58-75.635-175.22 0.861-367.45 82.497-525.73 46.92-56.228 36.228-140.92-49.284-141.31-296.63-14.586-594.01-6.9242-890.95-10.986-180.35 0.12489-364.36-3.423-542.42-1.003 0.018 276.89 0.036 553.77 0.055 830.66z" fill="#ed297b"/> <path d="m20970 5098c0-864 0-851-49-963-41-93-79-116-144-87-23 10-83 45-132 77-188 121-305 163-396 144-150-32-238-214-270-556-13-142-7-578 10-688 55-353 174-497 374-456 67 13 154 54 284 132 111 67 149 82 190 74 40-7 82-60 113-141 20-53 20-75 20-875v-820l708 3c696 3 708 3 747 24 22 12 42 29 44 39 1 10-20 64-48 119-65 131-90 209-98 305-16 216 115 373 392 468 179 61 558 100 855 89 457-19 746-97 899-245 158-153 166-358 27-635-24-48-42-94-39-101 8-22 77-44 170-55 50-5 355-10 696-10h607v823c0 550 4 843 11 883 13 71 52 147 84 164 46 25 108 7 233-66 206-121 285-156 361-162 84-6 127 8 176 55 109 106 165 373 165 784 0 407-48 657-150 772-94 108-223 96-445-40-153-93-252-143-286-143-47 0-95 51-121 128l-23 67-6 1706-677-3c-607-3-682-5-728-21-64-21-88-47-81-84 3-15 22-71 42-122 20-52 43-124 51-160 73-346-164-575-671-647-182-26-656-27-827-1-595 89-801 386-588 846 23 49 40 97 38 107-5 29-74 61-155 73-48 7-301 11-718 11h-645v-812z" fill="#fedd14"/> <path d="m33451 1779c-204-23-361-70-445-134-43-32-86-116-86-165 0-82 52-204 159-369 33-51 68-113 77-138 17-42 16-45-3-71-26-35-82-67-162-92-61-19-91-20-882-20h-819v-395-395h2480 2480v395 395h-812c-645 0-823 3-863 14-73 19-141 51-170 80-43 43-35 75 55 216 136 216 174 322 150 421-30 125-158 197-430 245-112 19-594 28-729 13z" fill="#ed297b"/> <path d="m12965 1714c-345-26-504-72-594-169-93-101-77-222 56-439 153-248 150-241 97-295-29-28-60-45-119-64l-80-27h-823-822v-360-360h2480 2480v360 360h-822-823l-77 27c-43 14-93 39-113 55-58 48-50 83 62 255 151 234 175 363 90 474-61 80-225 144-432 169-94 11-473 21-560 14z" fill="#f58347"/> <path d="m23270 1714c-329-19-535-84-614-193-29-40-31-49-31-125 1-72 5-90 36-156 20-41 63-118 96-170 78-123 103-173 103-206 0-42-57-88-147-118l-78-26h-828-827v-360-360h2485 2485l-2 358-3 357-1680 10-64 28c-66 28-116 67-126 98-8 25 17 80 85 185 110 169 150 266 150 362 0 90-53 163-155 216-66 33-217 73-330 86-98 11-451 20-555 14z" fill="#7f3f96"/> <path d="m26089 771c-1-6-1-20-1-31s0-182 1-380l1-360h739 739l-33 63c-80 151-68 315 42 550l37 78-26 26c-56 56-72 57-815 61-473 2-683 0-684-7z" fill="#f58347"/> <path d="m29701 769c-72-12-138-42-145-67-4-13 8-55 33-114 56-132 74-208 75-313 0-99-18-169-60-230-13-20-24-38-24-40 0-3 331-5 735-5h735v390 390l-647-1c-357-1-672-5-702-10z" fill="#f58347"/> <path d="m36397 773c-4-3-7-179-7-390v-383h746 745l-20 26c-31 40-62 132-68 204-8 94 12 191 64 316 54 130 58 159 22 186-56 42-144 47-830 48-355 0-649-3-652-7z" fill="#26a9e1"/> <path d="m39980 764c-69-15-113-40-118-68-2-9 15-61 37-115 53-128 71-207 71-307 0-94-17-160-59-226l-31-48h740 740v390 390l-657-1c-526-1-671-4-723-15z" fill="#26a9e1"/> <path d="m15870 350v-350h721c683 0 721 1 714 18-3 9-13 44-22 77-29 113 3 289 81 443 38 76 33 101-29 132l-50 25-707 3-708 3v-351z" fill="#48b1aa"/> <path d="m19430 685c-49-15-90-47-90-70 0-7 16-51 36-97 75-175 95-343 55-461l-20-57h715 714v350 350l-682-1c-554 0-692-3-728-14z" fill="#48b1aa"/> </g> </svg>